<?xml version="1.0" encoding="utf-8" standalone="no"?>
<!DOCTYPE svg PUBLIC "-//W3C//DTD SVG 1.1//EN"
  "http://www.w3.org/Graphics/SVG/1.1/DTD/svg11.dtd">
<svg xmlns:xlink="http://www.w3.org/1999/xlink" width="864pt" height="360pt" viewBox="0 0 864 360" xmlns="http://www.w3.org/2000/svg" version="1.1">
 <metadata>
  <rdf:RDF xmlns:dc="http://purl.org/dc/elements/1.1/" xmlns:cc="http://creativecommons.org/ns#" xmlns:rdf="http://www.w3.org/1999/02/22-rdf-syntax-ns#">
   <cc:Work>
    <dc:type rdf:resource="http://purl.org/dc/dcmitype/StillImage"/>
    <dc:date>2025-05-19T01:56:30.074450</dc:date>
    <dc:format>image/svg+xml</dc:format>
    <dc:creator>
     <cc:Agent>
      <dc:title>Matplotlib v3.10.1, https://matplotlib.org/</dc:title>
     </cc:Agent>
    </dc:creator>
   </cc:Work>
  </rdf:RDF>
 </metadata>
 <defs>
  <style type="text/css">*{stroke-linejoin: round; stroke-linecap: butt}</style>
 </defs>
 <g id="figure_1">
  <g id="patch_1">
   <path d="M 0 360 
L 864 360 
L 864 0 
L 0 0 
L 0 360 
z
" style="fill: none"/>
  </g>
  <g id="axes_1">
   <g id="patch_2">
    <path d="M 38.23 165.31 
L 853.2 165.31 
L 853.2 26.88 
L 38.23 26.88 
L 38.23 165.31 
z
" style="fill: none"/>
   </g>
   <g id="FillBetweenPolyCollection_1"/>
   <g id="FillBetweenPolyCollection_2"/>
   <g id="matplotlib.axis_1">
    <g id="xtick_1">
     <g id="line2d_1">
      <defs>
       <path id="mebbfd3be72" d="M 0 0 
L 0 3.5 
" style="stroke: #000000; stroke-width: 0.8"/>
      </defs>
      <g>
       <use xlink:href="#mebbfd3be72" x="49.708451" y="165.31" style="stroke: #000000; stroke-width: 0.8"/>
      </g>
     </g>
    </g>
    <g id="xtick_2">
     <g id="line2d_2">
      <g>
       <use xlink:href="#mebbfd3be72" x="141.536056" y="165.31" style="stroke: #000000; stroke-width: 0.8"/>
      </g>
     </g>
    </g>
    <g id="xtick_3">
     <g id="line2d_3">
      <g>
       <use xlink:href="#mebbfd3be72" x="233.363662" y="165.31" style="stroke: #000000; stroke-width: 0.8"/>
      </g>
     </g>
    </g>
    <g id="xtick_4">
     <g id="line2d_4">
      <g>
       <use xlink:href="#mebbfd3be72" x="325.191268" y="165.31" style="stroke: #000000; stroke-width: 0.8"/>
      </g>
     </g>
    </g>
    <g id="xtick_5">
     <g id="line2d_5">
      <g>
       <use xlink:href="#mebbfd3be72" x="417.018873" y="165.31" style="stroke: #000000; stroke-width: 0.8"/>
      </g>
     </g>
    </g>
    <g id="xtick_6">
     <g id="line2d_6">
      <g>
       <use xlink:href="#mebbfd3be72" x="508.846479" y="165.31" style="stroke: #000000; stroke-width: 0.8"/>
      </g>
     </g>
    </g>
    <g id="xtick_7">
     <g id="line2d_7">
      <g>
       <use xlink:href="#mebbfd3be72" x="600.674085" y="165.31" style="stroke: #000000; stroke-width: 0.8"/>
      </g>
     </g>
    </g>
    <g id="xtick_8">
     <g id="line2d_8">
      <g>
       <use xlink:href="#mebbfd3be72" x="692.50169" y="165.31" style="stroke: #000000; stroke-width: 0.8"/>
      </g>
     </g>
    </g>
    <g id="xtick_9">
     <g id="line2d_9">
      <g>
       <use xlink:href="#mebbfd3be72" x="784.329296" y="165.31" style="stroke: #000000; stroke-width: 0.8"/>
      </g>
     </g>
    </g>
   </g>
   <g id="matplotlib.axis_2">
    <g id="ytick_1">
     <g id="line2d_10">
      <defs>
       <path id="m5f82598849" d="M 0 0 
L -3.5 0 
" style="stroke: #000000; stroke-width: 0.8"/>
      </defs>
      <g>
       <use xlink:href="#m5f82598849" x="38.23" y="159.017727" style="stroke: #000000; stroke-width: 0.8"/>
      </g>
     </g>
     <g id="text_1">
      <!-- 0.0 -->
      <g transform="translate(15.619063 162.727884) scale(0.1 -0.1)">
       <defs>
        <path id="Montserrat-Medium-30" d="M 2138 -51 
Q 1613 -51 1200 217 
Q 787 486 547 998 
Q 307 1510 307 2240 
Q 307 2970 547 3482 
Q 787 3994 1200 4262 
Q 1613 4531 2138 4531 
Q 2656 4531 3072 4262 
Q 3488 3994 3725 3482 
Q 3962 2970 3962 2240 
Q 3962 1510 3725 998 
Q 3488 486 3072 217 
Q 2656 -51 2138 -51 
z
M 2138 518 
Q 2490 518 2755 710 
Q 3021 902 3171 1286 
Q 3322 1670 3322 2240 
Q 3322 2810 3171 3194 
Q 3021 3578 2755 3770 
Q 2490 3962 2138 3962 
Q 1786 3962 1517 3770 
Q 1248 3578 1097 3194 
Q 947 2810 947 2240 
Q 947 1670 1097 1286 
Q 1248 902 1517 710 
Q 1786 518 2138 518 
z
" transform="scale(0.015625)"/>
        <path id="Montserrat-Medium-2e" d="M 730 -38 
Q 550 -38 422 86 
Q 294 211 294 403 
Q 294 595 422 716 
Q 550 838 730 838 
Q 902 838 1027 716 
Q 1152 595 1152 403 
Q 1152 211 1027 86 
Q 902 -38 730 -38 
z
" transform="scale(0.015625)"/>
       </defs>
       <use xlink:href="#Montserrat-Medium-30"/>
       <use xlink:href="#Montserrat-Medium-2e" transform="translate(66.699997 0)"/>
       <use xlink:href="#Montserrat-Medium-30" transform="translate(89.399994 0)"/>
      </g>
     </g>
    </g>
    <g id="ytick_2">
     <g id="line2d_11">
      <g>
       <use xlink:href="#m5f82598849" x="38.23" y="135.666576" style="stroke: #000000; stroke-width: 0.8"/>
      </g>
     </g>
     <g id="text_2">
      <!-- 0.2 -->
      <g transform="translate(16.54875 139.376732) scale(0.1 -0.1)">
       <defs>
        <path id="Montserrat-Medium-32" d="M 237 0 
L 237 435 
L 2061 2195 
Q 2304 2426 2422 2602 
Q 2541 2778 2582 2928 
Q 2624 3078 2624 3219 
Q 2624 3565 2381 3763 
Q 2138 3962 1670 3962 
Q 1312 3962 1024 3843 
Q 736 3725 525 3475 
L 90 3853 
Q 346 4179 778 4355 
Q 1210 4531 1728 4531 
Q 2195 4531 2540 4380 
Q 2886 4230 3075 3948 
Q 3264 3667 3264 3283 
Q 3264 3066 3206 2854 
Q 3149 2643 2989 2406 
Q 2829 2170 2528 1875 
L 902 307 
L 749 557 
L 3456 557 
L 3456 0 
L 237 0 
z
" transform="scale(0.015625)"/>
       </defs>
       <use xlink:href="#Montserrat-Medium-30"/>
       <use xlink:href="#Montserrat-Medium-2e" transform="translate(66.699997 0)"/>
       <use xlink:href="#Montserrat-Medium-32" transform="translate(89.399994 0)"/>
      </g>
     </g>
    </g>
    <g id="ytick_3">
     <g id="line2d_12">
      <g>
       <use xlink:href="#m5f82598849" x="38.23" y="112.315425" style="stroke: #000000; stroke-width: 0.8"/>
      </g>
     </g>
     <g id="text_3">
      <!-- 0.4 -->
      <g transform="translate(15.59875 116.025581) scale(0.1 -0.1)">
       <defs>
        <path id="Montserrat-Medium-34" d="M 243 1101 
L 243 1549 
L 2534 4480 
L 3226 4480 
L 954 1549 
L 627 1651 
L 4205 1651 
L 4205 1101 
L 243 1101 
z
M 2733 0 
L 2733 1101 
L 2752 1651 
L 2752 2624 
L 3354 2624 
L 3354 0 
L 2733 0 
z
" transform="scale(0.015625)"/>
       </defs>
       <use xlink:href="#Montserrat-Medium-30"/>
       <use xlink:href="#Montserrat-Medium-2e" transform="translate(66.699997 0)"/>
       <use xlink:href="#Montserrat-Medium-34" transform="translate(89.399994 0)"/>
      </g>
     </g>
    </g>
    <g id="ytick_4">
     <g id="line2d_13">
      <g>
       <use xlink:href="#m5f82598849" x="38.23" y="88.964273" style="stroke: #000000; stroke-width: 0.8"/>
      </g>
     </g>
     <g id="text_4">
      <!-- 0.6 -->
      <g transform="translate(16.119063 92.67443) scale(0.1 -0.1)">
       <defs>
        <path id="Montserrat-Medium-36" d="M 2189 -51 
Q 1594 -51 1171 211 
Q 749 474 528 970 
Q 307 1466 307 2182 
Q 307 2944 576 3469 
Q 845 3994 1325 4262 
Q 1805 4531 2426 4531 
Q 2746 4531 3037 4467 
Q 3328 4403 3539 4269 
L 3296 3770 
Q 3123 3891 2902 3936 
Q 2682 3981 2438 3981 
Q 1754 3981 1350 3555 
Q 947 3130 947 2291 
Q 947 2157 960 1971 
Q 973 1786 1024 1606 
L 806 1824 
Q 902 2118 1110 2320 
Q 1318 2522 1609 2621 
Q 1901 2720 2240 2720 
Q 2688 2720 3033 2553 
Q 3379 2387 3577 2083 
Q 3776 1779 3776 1363 
Q 3776 934 3565 614 
Q 3354 294 2995 121 
Q 2637 -51 2189 -51 
z
M 2163 467 
Q 2458 467 2678 576 
Q 2899 685 3027 880 
Q 3155 1075 3155 1338 
Q 3155 1734 2880 1968 
Q 2605 2202 2131 2202 
Q 1824 2202 1593 2086 
Q 1363 1971 1232 1776 
Q 1101 1581 1101 1331 
Q 1101 1101 1222 905 
Q 1344 710 1581 588 
Q 1818 467 2163 467 
z
" transform="scale(0.015625)"/>
       </defs>
       <use xlink:href="#Montserrat-Medium-30"/>
       <use xlink:href="#Montserrat-Medium-2e" transform="translate(66.699997 0)"/>
       <use xlink:href="#Montserrat-Medium-36" transform="translate(89.399994 0)"/>
      </g>
     </g>
    </g>
    <g id="ytick_5">
     <g id="line2d_14">
      <g>
       <use xlink:href="#m5f82598849" x="38.23" y="65.613122" style="stroke: #000000; stroke-width: 0.8"/>
      </g>
     </g>
     <g id="text_5">
      <!-- 0.8 -->
      <g transform="translate(15.84875 69.323278) scale(0.1 -0.1)">
       <defs>
        <path id="Montserrat-Medium-38" d="M 2054 -51 
Q 1510 -51 1113 109 
Q 717 269 499 566 
Q 282 864 282 1267 
Q 282 1664 490 1942 
Q 698 2221 1094 2365 
Q 1491 2509 2054 2509 
Q 2618 2509 3018 2365 
Q 3418 2221 3629 1939 
Q 3840 1658 3840 1267 
Q 3840 864 3622 566 
Q 3405 269 3001 109 
Q 2598 -51 2054 -51 
z
M 2054 467 
Q 2592 467 2896 688 
Q 3200 909 3200 1286 
Q 3200 1658 2896 1872 
Q 2592 2086 2054 2086 
Q 1523 2086 1222 1872 
Q 922 1658 922 1286 
Q 922 909 1222 688 
Q 1523 467 2054 467 
z
M 2054 2573 
Q 2522 2573 2787 2765 
Q 3053 2957 3053 3290 
Q 3053 3629 2777 3821 
Q 2502 4013 2054 4013 
Q 1606 4013 1340 3821 
Q 1075 3629 1075 3290 
Q 1075 2957 1334 2765 
Q 1594 2573 2054 2573 
z
M 2054 2163 
Q 1542 2163 1184 2300 
Q 826 2438 634 2697 
Q 442 2957 442 3315 
Q 442 3693 643 3965 
Q 845 4237 1209 4384 
Q 1574 4531 2054 4531 
Q 2541 4531 2905 4384 
Q 3270 4237 3475 3965 
Q 3680 3693 3680 3315 
Q 3680 2957 3488 2697 
Q 3296 2438 2931 2300 
Q 2566 2163 2054 2163 
z
" transform="scale(0.015625)"/>
       </defs>
       <use xlink:href="#Montserrat-Medium-30"/>
       <use xlink:href="#Montserrat-Medium-2e" transform="translate(66.699997 0)"/>
       <use xlink:href="#Montserrat-Medium-38" transform="translate(89.399994 0)"/>
      </g>
     </g>
    </g>
    <g id="ytick_6">
     <g id="line2d_15">
      <g>
       <use xlink:href="#m5f82598849" x="38.23" y="42.261971" style="stroke: #000000; stroke-width: 0.8"/>
      </g>
     </g>
     <g id="text_6">
      <!-- 1.0 -->
      <g transform="translate(18.589375 45.972127) scale(0.1 -0.1)">
       <defs>
        <path id="Montserrat-Medium-31" d="M 1062 0 
L 1062 4224 
L 1338 3923 
L 51 3923 
L 51 4480 
L 1696 4480 
L 1696 0 
L 1062 0 
z
" transform="scale(0.015625)"/>
       </defs>
       <use xlink:href="#Montserrat-Medium-31"/>
       <use xlink:href="#Montserrat-Medium-2e" transform="translate(36.999985 0)"/>
       <use xlink:href="#Montserrat-Medium-30" transform="translate(59.699982 0)"/>
      </g>
     </g>
    </g>
   </g>
   <g id="line2d_16">
    <path d="M 49.708451 42.261971 
L 61.186901 60.798019 
L 72.665352 94.18899 
L 84.143803 118.593072 
L 95.622254 148.399391 
L 107.100704 135.114342 
L 118.579155 117.026124 
L 130.057606 117.398726 
L 141.536056 120.67113 
L 153.014507 147.856229 
L 164.492958 131.282933 
L 175.971408 110.377343 
L 187.449859 111.80517 
L 198.92831 148.270927 
L 210.406761 134.132545 
L 221.885211 122.147086 
L 233.363662 128.237282 
L 244.842113 142.958883 
L 256.320563 151.656109 
L 267.799014 152.766306 
L 279.277465 149.644055 
L 290.755915 157.111427 
L 302.234366 139.952651 
L 313.712817 131.324594 
L 325.191268 142.364433 
L 336.669718 155.813242 
L 348.148169 154.090603 
L 359.62662 149.171687 
L 371.10507 156.722177 
L 382.583521 143.221379 
L 394.061972 142.228094 
L 405.540423 159.017727 
L 417.018873 129.202548 
L 428.497324 127.234338 
L 439.975775 153.728825 
L 451.454225 142.941494 
L 462.932676 133.203732 
L 474.411127 132.985885 
L 485.889577 133.597251 
L 497.368028 151.687659 
L 508.846479 149.607087 
L 520.32493 149.931864 
L 531.80338 146.502641 
L 543.281831 154.156543 
L 554.760282 153.835743 
L 566.238732 158.849254 
L 577.717183 158.366335 
L 589.195634 155.596535 
L 600.674085 158.84138 
L 612.152535 151.8096 
L 623.630986 149.139365 
L 635.109437 158.727061 
L 646.587887 147.371803 
L 658.066338 139.101988 
L 669.544789 150.058608 
L 681.023239 149.933493 
L 692.50169 146.970621 
L 703.980141 156.127175 
L 715.458592 157.925292 
L 726.937042 157.009045 
L 738.415493 154.994759 
L 749.893944 156.379059 
L 761.372394 157.954344 
L 772.850845 140.275289 
L 784.329296 119.100797 
" clip-path="url(#p11239568f9)" style="fill: none; stroke: #309898; stroke-width: 1.5; stroke-linecap: square"/>
   </g>
   <g id="line2d_17">
    <path d="M 49.708451 33.172273 
L 61.186901 42.261971 
L 72.665352 51.351676 
L 84.143803 60.441381 
L 95.622254 69.531087 
L 107.100704 60.441381 
L 118.579155 51.351676 
L 130.057606 51.351676 
L 141.536056 51.351676 
L 153.014507 60.441381 
L 164.492958 51.351676 
L 175.971408 42.261971 
L 187.449859 42.261971 
L 198.92831 51.351676 
L 210.406761 42.261971 
L 221.885211 33.172273 
L 233.363662 33.172273 
L 244.842113 42.261971 
L 256.320563 42.261971 
L 267.799014 42.261971 
L 279.277465 42.261971 
L 290.755915 42.261971 
L 302.234366 33.172273 
L 313.712817 33.172273 
L 325.191268 42.261971 
L 336.669718 51.351676 
L 348.148169 51.351676 
L 359.62662 51.351676 
L 371.10507 51.351676 
L 382.583521 42.261971 
L 394.061972 42.261971 
L 405.540423 51.351676 
L 417.018873 42.261971 
L 428.497324 42.261971 
L 439.975775 51.351676 
L 451.454225 42.261971 
L 462.932676 33.172273 
L 474.411127 33.172273 
L 485.889577 33.172273 
L 497.368028 42.261971 
L 508.846479 42.261971 
L 520.32493 42.261971 
L 531.80338 42.261971 
L 543.281831 42.261971 
L 554.760282 42.261971 
L 566.238732 42.261971 
L 577.717183 42.261971 
L 589.195634 42.261971 
L 600.674085 42.261971 
L 612.152535 42.261971 
L 623.630986 42.261971 
L 635.109437 51.351676 
L 646.587887 42.261971 
L 658.066338 42.261971 
L 669.544789 51.351676 
L 681.023239 51.351676 
L 692.50169 51.351676 
L 703.980141 60.441381 
L 715.458592 60.441381 
L 726.937042 60.441381 
L 738.415493 60.441381 
L 749.893944 60.441381 
L 761.372394 60.441381 
L 772.850845 51.351676 
L 784.329296 42.261971 
" clip-path="url(#p11239568f9)" style="fill: none; stroke: #fb7e3e; stroke-width: 1.5; stroke-linecap: square"/>
   </g>
   <g id="patch_3">
    <path d="M 38.23 165.31 
L 38.23 26.88 
" style="fill: none; stroke: #000000; stroke-width: 0.8; stroke-linejoin: miter; stroke-linecap: square"/>
   </g>
   <g id="patch_4">
    <path d="M 853.2 165.31 
L 853.2 26.88 
" style="fill: none; stroke: #000000; stroke-width: 0.8; stroke-linejoin: miter; stroke-linecap: square"/>
   </g>
   <g id="patch_5">
    <path d="M 38.23 165.31 
L 853.2 165.31 
" style="fill: none; stroke: #000000; stroke-width: 0.8; stroke-linejoin: miter; stroke-linecap: square"/>
   </g>
   <g id="patch_6">
    <path d="M 38.23 26.88 
L 853.2 26.88 
" style="fill: none; stroke: #000000; stroke-width: 0.8; stroke-linejoin: miter; stroke-linecap: square"/>
   </g>
   <g id="text_7">
    <!-- Threshold Based Representation -->
    <g transform="translate(329.415469 20.88) scale(0.14 -0.14)">
     <defs>
      <path id="Montserrat-Medium-54" d="M 1562 0 
L 1562 3923 
L 26 3923 
L 26 4480 
L 3731 4480 
L 3731 3923 
L 2195 3923 
L 2195 0 
L 1562 0 
z
" transform="scale(0.015625)"/>
      <path id="Montserrat-Medium-68" d="M 582 0 
L 582 4749 
L 1197 4749 
L 1197 2477 
L 1075 2720 
Q 1242 3053 1587 3238 
Q 1933 3424 2394 3424 
Q 2810 3424 3126 3264 
Q 3443 3104 3622 2777 
Q 3802 2451 3802 1952 
L 3802 0 
L 3187 0 
L 3187 1882 
Q 3187 2374 2947 2624 
Q 2707 2874 2272 2874 
Q 1946 2874 1702 2746 
Q 1459 2618 1328 2368 
Q 1197 2118 1197 1747 
L 1197 0 
L 582 0 
z
" transform="scale(0.015625)"/>
      <path id="Montserrat-Medium-72" d="M 582 0 
L 582 3392 
L 1171 3392 
L 1171 2470 
L 1114 2701 
Q 1254 3053 1587 3238 
Q 1920 3424 2406 3424 
L 2406 2829 
Q 2368 2835 2333 2835 
Q 2298 2835 2266 2835 
Q 1773 2835 1485 2540 
Q 1197 2246 1197 1690 
L 1197 0 
L 582 0 
z
" transform="scale(0.015625)"/>
      <path id="Montserrat-Medium-65" d="M 2093 -38 
Q 1549 -38 1136 186 
Q 723 410 496 800 
Q 269 1190 269 1696 
Q 269 2202 489 2592 
Q 710 2982 1097 3203 
Q 1485 3424 1971 3424 
Q 2464 3424 2841 3206 
Q 3219 2989 3433 2595 
Q 3648 2202 3648 1677 
Q 3648 1638 3645 1587 
Q 3642 1536 3635 1491 
L 749 1491 
L 749 1933 
L 3315 1933 
L 3066 1779 
Q 3072 2106 2931 2362 
Q 2790 2618 2544 2762 
Q 2298 2906 1971 2906 
Q 1651 2906 1401 2762 
Q 1152 2618 1011 2358 
Q 870 2099 870 1766 
L 870 1664 
Q 870 1325 1027 1059 
Q 1184 794 1465 646 
Q 1747 499 2112 499 
Q 2413 499 2659 601 
Q 2906 704 3091 909 
L 3430 512 
Q 3200 243 2857 102 
Q 2515 -38 2093 -38 
z
" transform="scale(0.015625)"/>
      <path id="Montserrat-Medium-73" d="M 1555 -38 
Q 1133 -38 752 77 
Q 371 192 154 358 
L 410 845 
Q 627 698 947 595 
Q 1267 493 1600 493 
Q 2029 493 2217 614 
Q 2406 736 2406 954 
Q 2406 1114 2291 1203 
Q 2176 1293 1987 1337 
Q 1798 1382 1568 1417 
Q 1338 1453 1107 1507 
Q 877 1562 685 1661 
Q 493 1760 377 1936 
Q 262 2112 262 2406 
Q 262 2714 435 2944 
Q 608 3174 925 3299 
Q 1242 3424 1677 3424 
Q 2010 3424 2352 3344 
Q 2694 3264 2912 3117 
L 2650 2630 
Q 2419 2784 2169 2841 
Q 1920 2899 1670 2899 
Q 1267 2899 1068 2768 
Q 870 2637 870 2432 
Q 870 2259 988 2166 
Q 1107 2074 1296 2022 
Q 1485 1971 1715 1936 
Q 1946 1901 2176 1846 
Q 2406 1792 2595 1696 
Q 2784 1600 2902 1427 
Q 3021 1254 3021 966 
Q 3021 659 2841 435 
Q 2662 211 2336 86 
Q 2010 -38 1555 -38 
z
" transform="scale(0.015625)"/>
      <path id="Montserrat-Medium-6f" d="M 2035 -38 
Q 1523 -38 1126 186 
Q 730 410 499 803 
Q 269 1197 269 1696 
Q 269 2202 499 2592 
Q 730 2982 1126 3203 
Q 1523 3424 2035 3424 
Q 2541 3424 2941 3203 
Q 3341 2982 3568 2595 
Q 3795 2208 3795 1696 
Q 3795 1190 3568 800 
Q 3341 410 2941 186 
Q 2541 -38 2035 -38 
z
M 2035 499 
Q 2362 499 2621 646 
Q 2880 794 3027 1066 
Q 3174 1338 3174 1696 
Q 3174 2061 3027 2326 
Q 2880 2592 2621 2739 
Q 2362 2886 2035 2886 
Q 1709 2886 1453 2739 
Q 1197 2592 1043 2326 
Q 890 2061 890 1696 
Q 890 1338 1043 1066 
Q 1197 794 1453 646 
Q 1709 499 2035 499 
z
" transform="scale(0.015625)"/>
      <path id="Montserrat-Medium-6c" d="M 582 0 
L 582 4749 
L 1197 4749 
L 1197 0 
L 582 0 
z
" transform="scale(0.015625)"/>
      <path id="Montserrat-Medium-64" d="M 1984 -38 
Q 1491 -38 1104 179 
Q 717 397 493 787 
Q 269 1178 269 1696 
Q 269 2214 493 2601 
Q 717 2989 1104 3206 
Q 1491 3424 1984 3424 
Q 2413 3424 2758 3232 
Q 3104 3040 3312 2656 
Q 3520 2272 3520 1696 
Q 3520 1120 3318 736 
Q 3117 352 2771 157 
Q 2426 -38 1984 -38 
z
M 2035 499 
Q 2355 499 2614 646 
Q 2874 794 3024 1066 
Q 3174 1338 3174 1696 
Q 3174 2061 3024 2326 
Q 2874 2592 2614 2739 
Q 2355 2886 2035 2886 
Q 1709 2886 1453 2739 
Q 1197 2592 1043 2326 
Q 890 2061 890 1696 
Q 890 1338 1043 1066 
Q 1197 794 1453 646 
Q 1709 499 2035 499 
z
M 3194 0 
L 3194 915 
L 3232 1702 
L 3168 2490 
L 3168 4749 
L 3782 4749 
L 3782 0 
L 3194 0 
z
" transform="scale(0.015625)"/>
      <path id="Montserrat-Medium-20" transform="scale(0.015625)"/>
      <path id="Montserrat-Medium-42" d="M 672 0 
L 672 4480 
L 2682 4480 
Q 3456 4480 3872 4169 
Q 4288 3859 4288 3322 
Q 4288 2957 4125 2707 
Q 3962 2458 3686 2323 
Q 3411 2189 3091 2189 
L 3206 2381 
Q 3590 2381 3884 2246 
Q 4179 2112 4352 1853 
Q 4525 1594 4525 1210 
Q 4525 634 4093 317 
Q 3661 0 2810 0 
L 672 0 
z
M 1312 518 
L 2784 518 
Q 3315 518 3596 697 
Q 3878 877 3878 1261 
Q 3878 1651 3596 1830 
Q 3315 2010 2784 2010 
L 1254 2010 
L 1254 2528 
L 2624 2528 
Q 3110 2528 3379 2707 
Q 3648 2886 3648 3245 
Q 3648 3603 3379 3782 
Q 3110 3962 2624 3962 
L 1312 3962 
L 1312 518 
z
" transform="scale(0.015625)"/>
      <path id="Montserrat-Medium-61" d="M 2688 0 
L 2688 717 
L 2656 851 
L 2656 2074 
Q 2656 2464 2429 2678 
Q 2202 2893 1747 2893 
Q 1446 2893 1158 2793 
Q 870 2694 672 2528 
L 416 2989 
Q 678 3200 1046 3312 
Q 1414 3424 1818 3424 
Q 2515 3424 2892 3085 
Q 3270 2746 3270 2048 
L 3270 0 
L 2688 0 
z
M 1574 -38 
Q 1197 -38 912 90 
Q 627 218 473 445 
Q 320 672 320 960 
Q 320 1235 451 1459 
Q 582 1683 880 1817 
Q 1178 1952 1683 1952 
L 2758 1952 
L 2758 1510 
L 1709 1510 
Q 1248 1510 1088 1356 
Q 928 1203 928 986 
Q 928 736 1126 585 
Q 1325 435 1677 435 
Q 2022 435 2281 588 
Q 2541 742 2656 1037 
L 2778 614 
Q 2656 314 2349 138 
Q 2042 -38 1574 -38 
z
" transform="scale(0.015625)"/>
      <path id="Montserrat-Medium-52" d="M 672 0 
L 672 4480 
L 2419 4480 
Q 3290 4480 3789 4067 
Q 4288 3654 4288 2918 
Q 4288 2432 4064 2083 
Q 3840 1734 3424 1548 
Q 3008 1363 2419 1363 
L 1024 1363 
L 1312 1658 
L 1312 0 
L 672 0 
z
M 3667 0 
L 2528 1626 
L 3213 1626 
L 4365 0 
L 3667 0 
z
M 1312 1594 
L 1024 1907 
L 2400 1907 
Q 3014 1907 3331 2172 
Q 3648 2438 3648 2918 
Q 3648 3398 3331 3660 
Q 3014 3923 2400 3923 
L 1024 3923 
L 1312 4243 
L 1312 1594 
z
" transform="scale(0.015625)"/>
      <path id="Montserrat-Medium-70" d="M 2381 -38 
Q 1958 -38 1609 157 
Q 1261 352 1053 736 
Q 845 1120 845 1696 
Q 845 2272 1046 2656 
Q 1248 3040 1597 3232 
Q 1946 3424 2381 3424 
Q 2880 3424 3264 3206 
Q 3648 2989 3872 2601 
Q 4096 2214 4096 1696 
Q 4096 1178 3872 787 
Q 3648 397 3264 179 
Q 2880 -38 2381 -38 
z
M 582 -1242 
L 582 3392 
L 1171 3392 
L 1171 2477 
L 1133 1690 
L 1197 902 
L 1197 -1242 
L 582 -1242 
z
M 2330 499 
Q 2656 499 2915 646 
Q 3174 794 3324 1066 
Q 3475 1338 3475 1696 
Q 3475 2061 3324 2326 
Q 3174 2592 2915 2739 
Q 2656 2886 2330 2886 
Q 2010 2886 1750 2739 
Q 1491 2592 1340 2326 
Q 1190 2061 1190 1696 
Q 1190 1338 1340 1066 
Q 1491 794 1750 646 
Q 2010 499 2330 499 
z
" transform="scale(0.015625)"/>
      <path id="Montserrat-Medium-6e" d="M 582 0 
L 582 3392 
L 1171 3392 
L 1171 2477 
L 1075 2720 
Q 1242 3053 1587 3238 
Q 1933 3424 2394 3424 
Q 2810 3424 3126 3264 
Q 3443 3104 3622 2777 
Q 3802 2451 3802 1952 
L 3802 0 
L 3187 0 
L 3187 1882 
Q 3187 2374 2947 2624 
Q 2707 2874 2272 2874 
Q 1946 2874 1702 2746 
Q 1459 2618 1328 2368 
Q 1197 2118 1197 1747 
L 1197 0 
L 582 0 
z
" transform="scale(0.015625)"/>
      <path id="Montserrat-Medium-74" d="M 1747 -38 
Q 1235 -38 953 237 
Q 672 512 672 1024 
L 672 4134 
L 1286 4134 
L 1286 1050 
Q 1286 774 1424 627 
Q 1562 480 1818 480 
Q 2106 480 2298 640 
L 2490 198 
Q 2349 77 2153 19 
Q 1958 -38 1747 -38 
z
M 96 2886 
L 96 3392 
L 2259 3392 
L 2259 2886 
L 96 2886 
z
" transform="scale(0.015625)"/>
      <path id="Montserrat-Medium-69" d="M 582 0 
L 582 3392 
L 1197 3392 
L 1197 0 
L 582 0 
z
M 888 4045 
Q 709 4045 590 4160 
Q 472 4275 472 4442 
Q 472 4614 590 4729 
Q 709 4845 888 4845 
Q 1067 4845 1185 4733 
Q 1304 4621 1304 4454 
Q 1304 4282 1189 4163 
Q 1074 4045 888 4045 
z
" transform="scale(0.015625)"/>
     </defs>
     <use xlink:href="#Montserrat-Medium-54"/>
     <use xlink:href="#Montserrat-Medium-68" transform="translate(58.699997 0)"/>
     <use xlink:href="#Montserrat-Medium-72" transform="translate(126.799988 0)"/>
     <use xlink:href="#Montserrat-Medium-65" transform="translate(167.799973 0)"/>
     <use xlink:href="#Montserrat-Medium-73" transform="translate(228.999969 0)"/>
     <use xlink:href="#Montserrat-Medium-68" transform="translate(279.09996 0)"/>
     <use xlink:href="#Montserrat-Medium-6f" transform="translate(347.199951 0)"/>
     <use xlink:href="#Montserrat-Medium-6c" transform="translate(410.699936 0)"/>
     <use xlink:href="#Montserrat-Medium-64" transform="translate(438.59993 0)"/>
     <use xlink:href="#Montserrat-Medium-20" transform="translate(506.799911 0)"/>
     <use xlink:href="#Montserrat-Medium-42" transform="translate(533.699905 0)"/>
     <use xlink:href="#Montserrat-Medium-61" transform="translate(609.399887 0)"/>
     <use xlink:href="#Montserrat-Medium-73" transform="translate(669.199875 0)"/>
     <use xlink:href="#Montserrat-Medium-65" transform="translate(719.299866 0)"/>
     <use xlink:href="#Montserrat-Medium-64" transform="translate(780.499863 0)"/>
     <use xlink:href="#Montserrat-Medium-20" transform="translate(848.699844 0)"/>
     <use xlink:href="#Montserrat-Medium-52" transform="translate(875.599838 0)"/>
     <use xlink:href="#Montserrat-Medium-65" transform="translate(948.29982 0)"/>
     <use xlink:href="#Montserrat-Medium-70" transform="translate(1009.499817 0)"/>
     <use xlink:href="#Montserrat-Medium-72" transform="translate(1077.699799 0)"/>
     <use xlink:href="#Montserrat-Medium-65" transform="translate(1118.699783 0)"/>
     <use xlink:href="#Montserrat-Medium-73" transform="translate(1179.89978 0)"/>
     <use xlink:href="#Montserrat-Medium-65" transform="translate(1229.999771 0)"/>
     <use xlink:href="#Montserrat-Medium-6e" transform="translate(1291.199768 0)"/>
     <use xlink:href="#Montserrat-Medium-74" transform="translate(1359.299759 0)"/>
     <use xlink:href="#Montserrat-Medium-61" transform="translate(1400.699753 0)"/>
     <use xlink:href="#Montserrat-Medium-74" transform="translate(1460.499741 0)"/>
     <use xlink:href="#Montserrat-Medium-69" transform="translate(1501.899734 0)"/>
     <use xlink:href="#Montserrat-Medium-6f" transform="translate(1529.799728 0)"/>
     <use xlink:href="#Montserrat-Medium-6e" transform="translate(1593.299713 0)"/>
    </g>
   </g>
   <g id="legend_1">
    <g id="patch_7">
     <path d="M 733.829688 112.165313 
L 846.2 112.165313 
Q 848.2 112.165313 848.2 110.165313 
L 848.2 82.024688 
Q 848.2 80.024688 846.2 80.024688 
L 733.829688 80.024688 
Q 731.829688 80.024688 731.829688 82.024688 
L 731.829688 110.165313 
Q 731.829688 112.165313 733.829688 112.165313 
z
" style="fill: #ffffff; opacity: 0.8; stroke: #cccccc; stroke-linejoin: miter"/>
    </g>
    <g id="line2d_18">
     <path d="M 735.829688 88.095 
L 745.829688 88.095 
L 755.829688 88.095 
" style="fill: none; stroke: #309898; stroke-width: 1.5; stroke-linecap: square"/>
    </g>
    <g id="text_8">
     <!-- Original Signal -->
     <g transform="translate(763.829688 91.595) scale(0.1 -0.1)">
      <defs>
       <path id="Montserrat-Medium-4f" d="M 2694 -51 
Q 2182 -51 1744 121 
Q 1306 294 986 604 
Q 666 915 486 1331 
Q 307 1747 307 2240 
Q 307 2733 486 3149 
Q 666 3565 986 3875 
Q 1306 4186 1741 4358 
Q 2176 4531 2694 4531 
Q 3206 4531 3638 4361 
Q 4070 4192 4393 3881 
Q 4717 3571 4893 3155 
Q 5069 2739 5069 2240 
Q 5069 1741 4893 1325 
Q 4717 909 4393 598 
Q 4070 288 3638 118 
Q 3206 -51 2694 -51 
z
M 2694 518 
Q 3066 518 3382 646 
Q 3699 774 3932 1008 
Q 4166 1242 4297 1555 
Q 4429 1869 4429 2240 
Q 4429 2611 4297 2924 
Q 4166 3238 3932 3472 
Q 3699 3706 3382 3834 
Q 3066 3962 2694 3962 
Q 2317 3962 2000 3834 
Q 1683 3706 1446 3472 
Q 1210 3238 1078 2924 
Q 947 2611 947 2240 
Q 947 1869 1078 1555 
Q 1210 1242 1446 1008 
Q 1683 774 2000 646 
Q 2317 518 2694 518 
z
" transform="scale(0.015625)"/>
       <path id="Montserrat-Medium-67" d="M 2067 -1280 
Q 1600 -1280 1161 -1149 
Q 723 -1018 448 -774 
L 742 -301 
Q 979 -506 1324 -624 
Q 1670 -742 2048 -742 
Q 2650 -742 2931 -460 
Q 3213 -179 3213 397 
L 3213 1114 
L 3277 1786 
L 3245 2464 
L 3245 3392 
L 3827 3392 
L 3827 461 
Q 3827 -435 3379 -857 
Q 2931 -1280 2067 -1280 
z
M 1990 141 
Q 1498 141 1110 349 
Q 723 557 496 928 
Q 269 1299 269 1786 
Q 269 2278 496 2646 
Q 723 3014 1110 3219 
Q 1498 3424 1990 3424 
Q 2426 3424 2784 3248 
Q 3142 3072 3356 2707 
Q 3571 2342 3571 1786 
Q 3571 1235 3356 870 
Q 3142 506 2784 323 
Q 2426 141 1990 141 
z
M 2061 678 
Q 2400 678 2662 819 
Q 2925 960 3075 1209 
Q 3226 1459 3226 1786 
Q 3226 2112 3075 2361 
Q 2925 2611 2662 2748 
Q 2400 2886 2061 2886 
Q 1722 2886 1456 2748 
Q 1190 2611 1040 2361 
Q 890 2112 890 1786 
Q 890 1459 1040 1209 
Q 1190 960 1456 819 
Q 1722 678 2061 678 
z
" transform="scale(0.015625)"/>
       <path id="Montserrat-Medium-53" d="M 1978 -51 
Q 1466 -51 998 105 
Q 531 262 262 512 
L 499 1011 
Q 755 787 1152 640 
Q 1549 493 1978 493 
Q 2368 493 2611 582 
Q 2854 672 2969 829 
Q 3085 986 3085 1184 
Q 3085 1414 2934 1555 
Q 2784 1696 2544 1782 
Q 2304 1869 2016 1933 
Q 1728 1997 1437 2083 
Q 1146 2170 906 2304 
Q 666 2438 518 2665 
Q 371 2893 371 3251 
Q 371 3597 553 3888 
Q 736 4179 1117 4355 
Q 1498 4531 2086 4531 
Q 2477 4531 2861 4428 
Q 3245 4326 3526 4134 
L 3315 3622 
Q 3027 3814 2707 3900 
Q 2387 3987 2086 3987 
Q 1709 3987 1465 3891 
Q 1222 3795 1110 3635 
Q 998 3475 998 3277 
Q 998 3040 1148 2899 
Q 1299 2758 1539 2675 
Q 1779 2592 2067 2525 
Q 2355 2458 2646 2374 
Q 2938 2291 3178 2156 
Q 3418 2022 3565 1798 
Q 3712 1574 3712 1222 
Q 3712 883 3526 592 
Q 3341 301 2953 125 
Q 2566 -51 1978 -51 
z
" transform="scale(0.015625)"/>
      </defs>
      <use xlink:href="#Montserrat-Medium-4f"/>
      <use xlink:href="#Montserrat-Medium-72" transform="translate(83.999985 0)"/>
      <use xlink:href="#Montserrat-Medium-69" transform="translate(124.999969 0)"/>
      <use xlink:href="#Montserrat-Medium-67" transform="translate(152.899963 0)"/>
      <use xlink:href="#Montserrat-Medium-69" transform="translate(221.899948 0)"/>
      <use xlink:href="#Montserrat-Medium-6e" transform="translate(249.799942 0)"/>
      <use xlink:href="#Montserrat-Medium-61" transform="translate(317.899933 0)"/>
      <use xlink:href="#Montserrat-Medium-6c" transform="translate(377.699921 0)"/>
      <use xlink:href="#Montserrat-Medium-20" transform="translate(405.599915 0)"/>
      <use xlink:href="#Montserrat-Medium-53" transform="translate(432.499908 0)"/>
      <use xlink:href="#Montserrat-Medium-69" transform="translate(494.599899 0)"/>
      <use xlink:href="#Montserrat-Medium-67" transform="translate(522.499893 0)"/>
      <use xlink:href="#Montserrat-Medium-6e" transform="translate(591.499878 0)"/>
      <use xlink:href="#Montserrat-Medium-61" transform="translate(659.599869 0)"/>
      <use xlink:href="#Montserrat-Medium-6c" transform="translate(719.399857 0)"/>
     </g>
    </g>
    <g id="line2d_19">
     <path d="M 735.829688 102.665313 
L 745.829688 102.665313 
L 755.829688 102.665313 
" style="fill: none; stroke: #fb7e3e; stroke-width: 1.5; stroke-linecap: square"/>
    </g>
    <g id="text_9">
     <!-- Decoded Signal -->
     <g transform="translate(763.829688 106.165313) scale(0.1 -0.1)">
      <defs>
       <path id="Montserrat-Medium-44" d="M 672 0 
L 672 4480 
L 2560 4480 
Q 3277 4480 3824 4198 
Q 4371 3917 4675 3411 
Q 4979 2906 4979 2240 
Q 4979 1574 4675 1068 
Q 4371 563 3824 281 
Q 3277 0 2560 0 
L 672 0 
z
M 1312 557 
L 2522 557 
Q 3078 557 3484 768 
Q 3891 979 4115 1360 
Q 4339 1741 4339 2240 
Q 4339 2746 4115 3123 
Q 3891 3501 3484 3712 
Q 3078 3923 2522 3923 
L 1312 3923 
L 1312 557 
z
" transform="scale(0.015625)"/>
       <path id="Montserrat-Medium-63" d="M 2061 -38 
Q 1542 -38 1136 186 
Q 730 410 499 800 
Q 269 1190 269 1696 
Q 269 2202 499 2592 
Q 730 2982 1136 3203 
Q 1542 3424 2061 3424 
Q 2522 3424 2883 3241 
Q 3245 3059 3443 2701 
L 2976 2400 
Q 2810 2650 2570 2768 
Q 2330 2886 2054 2886 
Q 1722 2886 1459 2739 
Q 1197 2592 1043 2326 
Q 890 2061 890 1696 
Q 890 1331 1043 1062 
Q 1197 794 1459 646 
Q 1722 499 2054 499 
Q 2330 499 2570 617 
Q 2810 736 2976 986 
L 3443 691 
Q 3245 339 2883 150 
Q 2522 -38 2061 -38 
z
" transform="scale(0.015625)"/>
      </defs>
      <use xlink:href="#Montserrat-Medium-44"/>
      <use xlink:href="#Montserrat-Medium-65" transform="translate(82.599991 0)"/>
      <use xlink:href="#Montserrat-Medium-63" transform="translate(143.799988 0)"/>
      <use xlink:href="#Montserrat-Medium-6f" transform="translate(200.899979 0)"/>
      <use xlink:href="#Montserrat-Medium-64" transform="translate(264.399963 0)"/>
      <use xlink:href="#Montserrat-Medium-65" transform="translate(332.599945 0)"/>
      <use xlink:href="#Montserrat-Medium-64" transform="translate(393.799942 0)"/>
      <use xlink:href="#Montserrat-Medium-20" transform="translate(461.999924 0)"/>
      <use xlink:href="#Montserrat-Medium-53" transform="translate(488.899918 0)"/>
      <use xlink:href="#Montserrat-Medium-69" transform="translate(550.999908 0)"/>
      <use xlink:href="#Montserrat-Medium-67" transform="translate(578.899902 0)"/>
      <use xlink:href="#Montserrat-Medium-6e" transform="translate(647.899887 0)"/>
      <use xlink:href="#Montserrat-Medium-61" transform="translate(715.999878 0)"/>
      <use xlink:href="#Montserrat-Medium-6c" transform="translate(775.799866 0)"/>
     </g>
    </g>
   </g>
  </g>
  <g id="axes_2">
   <g id="patch_8">
    <path d="M 38.23 318.04 
L 853.2 318.04 
L 853.2 179.61 
L 38.23 179.61 
L 38.23 318.04 
z
" style="fill: none"/>
   </g>
   <g id="matplotlib.axis_3">
    <g id="xtick_10">
     <g id="line2d_20">
      <g>
       <use xlink:href="#mebbfd3be72" x="49.708451" y="318.04" style="stroke: #000000; stroke-width: 0.8"/>
      </g>
     </g>
     <g id="text_10">
      <!-- 0 -->
      <g transform="translate(46.373294 332.460313) scale(0.1 -0.1)">
       <use xlink:href="#Montserrat-Medium-30"/>
      </g>
     </g>
    </g>
    <g id="xtick_11">
     <g id="line2d_21">
      <g>
       <use xlink:href="#mebbfd3be72" x="141.536056" y="318.04" style="stroke: #000000; stroke-width: 0.8"/>
      </g>
     </g>
     <g id="text_11">
      <!-- 8 -->
      <g transform="translate(138.315744 332.460313) scale(0.1 -0.1)">
       <use xlink:href="#Montserrat-Medium-38"/>
      </g>
     </g>
    </g>
    <g id="xtick_12">
     <g id="line2d_22">
      <g>
       <use xlink:href="#mebbfd3be72" x="233.363662" y="318.04" style="stroke: #000000; stroke-width: 0.8"/>
      </g>
     </g>
     <g id="text_12">
      <!-- 16 -->
      <g transform="translate(228.428506 332.460313) scale(0.1 -0.1)">
       <use xlink:href="#Montserrat-Medium-31"/>
       <use xlink:href="#Montserrat-Medium-36" transform="translate(36.999985 0)"/>
      </g>
     </g>
    </g>
    <g id="xtick_13">
     <g id="line2d_23">
      <g>
       <use xlink:href="#mebbfd3be72" x="325.191268" y="318.04" style="stroke: #000000; stroke-width: 0.8"/>
      </g>
     </g>
     <g id="text_13">
      <!-- 24 -->
      <g transform="translate(318.975643 332.460313) scale(0.1 -0.1)">
       <use xlink:href="#Montserrat-Medium-32"/>
       <use xlink:href="#Montserrat-Medium-34" transform="translate(57.399994 0)"/>
      </g>
     </g>
    </g>
    <g id="xtick_14">
     <g id="line2d_24">
      <g>
       <use xlink:href="#mebbfd3be72" x="417.018873" y="318.04" style="stroke: #000000; stroke-width: 0.8"/>
      </g>
     </g>
     <g id="text_14">
      <!-- 32 -->
      <g transform="translate(411.288404 332.460313) scale(0.1 -0.1)">
       <defs>
        <path id="Montserrat-Medium-33" d="M 1677 -51 
Q 1203 -51 758 96 
Q 314 243 32 493 
L 326 998 
Q 550 787 908 652 
Q 1267 518 1677 518 
Q 2176 518 2454 732 
Q 2733 947 2733 1312 
Q 2733 1664 2467 1878 
Q 2202 2093 1626 2093 
L 1267 2093 
L 1267 2541 
L 2598 4179 
L 2688 3923 
L 237 3923 
L 237 4480 
L 3194 4480 
L 3194 4045 
L 1869 2413 
L 1536 2611 
L 1747 2611 
Q 2560 2611 2966 2246 
Q 3373 1882 3373 1318 
Q 3373 941 3187 627 
Q 3002 314 2627 131 
Q 2253 -51 1677 -51 
z
" transform="scale(0.015625)"/>
       </defs>
       <use xlink:href="#Montserrat-Medium-33"/>
       <use xlink:href="#Montserrat-Medium-32" transform="translate(57.199997 0)"/>
      </g>
     </g>
    </g>
    <g id="xtick_15">
     <g id="line2d_25">
      <g>
       <use xlink:href="#mebbfd3be72" x="508.846479" y="318.04" style="stroke: #000000; stroke-width: 0.8"/>
      </g>
     </g>
     <g id="text_15">
      <!-- 40 -->
      <g transform="translate(502.16601 332.460313) scale(0.1 -0.1)">
       <use xlink:href="#Montserrat-Medium-34"/>
       <use xlink:href="#Montserrat-Medium-30" transform="translate(66.899994 0)"/>
      </g>
     </g>
    </g>
    <g id="xtick_16">
     <g id="line2d_26">
      <g>
       <use xlink:href="#mebbfd3be72" x="600.674085" y="318.04" style="stroke: #000000; stroke-width: 0.8"/>
      </g>
     </g>
     <g id="text_16">
      <!-- 48 -->
      <g transform="translate(594.10846 332.460313) scale(0.1 -0.1)">
       <use xlink:href="#Montserrat-Medium-34"/>
       <use xlink:href="#Montserrat-Medium-38" transform="translate(66.899994 0)"/>
      </g>
     </g>
    </g>
    <g id="xtick_17">
     <g id="line2d_27">
      <g>
       <use xlink:href="#mebbfd3be72" x="692.50169" y="318.04" style="stroke: #000000; stroke-width: 0.8"/>
      </g>
     </g>
     <g id="text_17">
      <!-- 56 -->
      <g transform="translate(686.546221 332.460313) scale(0.1 -0.1)">
       <defs>
        <path id="Montserrat-Medium-35" d="M 1754 -51 
Q 1280 -51 835 96 
Q 390 243 109 493 
L 403 998 
Q 627 787 985 652 
Q 1344 518 1747 518 
Q 2259 518 2534 736 
Q 2810 954 2810 1318 
Q 2810 1568 2688 1753 
Q 2566 1939 2268 2038 
Q 1971 2138 1453 2138 
L 435 2138 
L 672 4480 
L 3200 4480 
L 3200 3923 
L 909 3923 
L 1242 4237 
L 1056 2387 
L 723 2694 
L 1587 2694 
Q 2259 2694 2668 2521 
Q 3078 2349 3264 2045 
Q 3450 1741 3450 1344 
Q 3450 960 3264 643 
Q 3078 326 2704 137 
Q 2330 -51 1754 -51 
z
" transform="scale(0.015625)"/>
       </defs>
       <use xlink:href="#Montserrat-Medium-35"/>
       <use xlink:href="#Montserrat-Medium-36" transform="translate(57.399994 0)"/>
      </g>
     </g>
    </g>
    <g id="xtick_18">
     <g id="line2d_28">
      <g>
       <use xlink:href="#mebbfd3be72" x="784.329296" y="318.04" style="stroke: #000000; stroke-width: 0.8"/>
      </g>
     </g>
     <g id="text_18">
      <!-- 64 -->
      <g transform="translate(777.898827 332.460313) scale(0.1 -0.1)">
       <use xlink:href="#Montserrat-Medium-36"/>
       <use xlink:href="#Montserrat-Medium-34" transform="translate(61.699997 0)"/>
      </g>
     </g>
    </g>
    <g id="text_19">
     <!-- Timestep -->
     <g transform="translate(422.294688 345.82125) scale(0.1 -0.1)">
      <defs>
       <path id="Montserrat-Regular-54" d="M 1600 0 
L 1600 4070 
L 26 4070 
L 26 4480 
L 3648 4480 
L 3648 4070 
L 2074 4070 
L 2074 0 
L 1600 0 
z
" transform="scale(0.015625)"/>
       <path id="Montserrat-Regular-69" d="M 634 0 
L 634 3360 
L 1088 3360 
L 1088 0 
L 634 0 
z
M 864 4102 
Q 723 4102 627 4198 
Q 531 4294 531 4429 
Q 531 4563 627 4656 
Q 723 4749 864 4749 
Q 1005 4749 1101 4659 
Q 1197 4570 1197 4435 
Q 1197 4294 1104 4198 
Q 1011 4102 864 4102 
z
" transform="scale(0.015625)"/>
       <path id="Montserrat-Regular-6d" d="M 634 0 
L 634 3360 
L 1069 3360 
L 1069 2451 
L 998 2611 
Q 1152 2976 1494 3184 
Q 1837 3392 2304 3392 
Q 2797 3392 3142 3145 
Q 3488 2899 3590 2406 
L 3411 2477 
Q 3558 2886 3932 3139 
Q 4307 3392 4832 3392 
Q 5242 3392 5546 3235 
Q 5850 3078 6019 2758 
Q 6189 2438 6189 1952 
L 6189 0 
L 5734 0 
L 5734 1907 
Q 5734 2438 5481 2710 
Q 5229 2982 4768 2982 
Q 4422 2982 4169 2838 
Q 3917 2694 3779 2422 
Q 3642 2150 3642 1766 
L 3642 0 
L 3187 0 
L 3187 1907 
Q 3187 2438 2931 2710 
Q 2675 2982 2214 2982 
Q 1875 2982 1619 2838 
Q 1363 2694 1225 2422 
Q 1088 2150 1088 1766 
L 1088 0 
L 634 0 
z
" transform="scale(0.015625)"/>
       <path id="Montserrat-Regular-65" d="M 2061 -32 
Q 1536 -32 1139 189 
Q 742 410 518 797 
Q 294 1184 294 1683 
Q 294 2182 508 2566 
Q 723 2950 1097 3171 
Q 1472 3392 1939 3392 
Q 2413 3392 2781 3177 
Q 3149 2963 3360 2576 
Q 3571 2189 3571 1683 
Q 3571 1651 3568 1616 
Q 3565 1581 3565 1542 
L 640 1542 
L 640 1882 
L 3322 1882 
L 3142 1747 
Q 3142 2112 2985 2397 
Q 2829 2682 2560 2842 
Q 2291 3002 1939 3002 
Q 1594 3002 1318 2842 
Q 1043 2682 889 2394 
Q 736 2106 736 1734 
L 736 1664 
Q 736 1280 905 989 
Q 1075 698 1379 534 
Q 1683 371 2074 371 
Q 2381 371 2646 480 
Q 2912 589 3104 813 
L 3360 518 
Q 3136 250 2800 109 
Q 2464 -32 2061 -32 
z
" transform="scale(0.015625)"/>
       <path id="Montserrat-Regular-73" d="M 1536 -32 
Q 1120 -32 749 86 
Q 378 205 166 384 
L 371 742 
Q 576 589 896 477 
Q 1216 365 1568 365 
Q 2048 365 2259 515 
Q 2470 666 2470 915 
Q 2470 1101 2352 1206 
Q 2234 1312 2042 1366 
Q 1850 1421 1613 1459 
Q 1376 1498 1142 1549 
Q 909 1600 717 1699 
Q 525 1798 406 1971 
Q 288 2144 288 2432 
Q 288 2707 441 2924 
Q 595 3142 892 3267 
Q 1190 3392 1619 3392 
Q 1946 3392 2272 3305 
Q 2598 3219 2810 3078 
L 2611 2714 
Q 2387 2867 2131 2934 
Q 1875 3002 1619 3002 
Q 1165 3002 950 2845 
Q 736 2688 736 2445 
Q 736 2253 854 2144 
Q 973 2035 1168 1974 
Q 1363 1914 1596 1875 
Q 1830 1837 2064 1782 
Q 2298 1728 2493 1635 
Q 2688 1542 2806 1372 
Q 2925 1203 2925 928 
Q 2925 634 2761 419 
Q 2598 205 2288 86 
Q 1978 -32 1536 -32 
z
" transform="scale(0.015625)"/>
       <path id="Montserrat-Regular-74" d="M 1696 -32 
Q 1222 -32 966 224 
Q 710 480 710 947 
L 710 4102 
L 1165 4102 
L 1165 973 
Q 1165 678 1315 518 
Q 1466 358 1747 358 
Q 2048 358 2246 531 
L 2406 205 
Q 2272 83 2083 25 
Q 1894 -32 1696 -32 
z
M 109 2982 
L 109 3360 
L 2189 3360 
L 2189 2982 
L 109 2982 
z
" transform="scale(0.015625)"/>
       <path id="Montserrat-Regular-70" d="M 2368 -32 
Q 1933 -32 1581 169 
Q 1229 371 1021 752 
Q 813 1133 813 1683 
Q 813 2234 1017 2614 
Q 1222 2995 1574 3193 
Q 1926 3392 2368 3392 
Q 2848 3392 3229 3177 
Q 3610 2963 3827 2576 
Q 4045 2189 4045 1683 
Q 4045 1171 3827 787 
Q 3610 403 3229 185 
Q 2848 -32 2368 -32 
z
M 634 -1242 
L 634 3360 
L 1069 3360 
L 1069 2349 
L 1024 1677 
L 1088 998 
L 1088 -1242 
L 634 -1242 
z
M 2336 371 
Q 2694 371 2976 534 
Q 3258 698 3424 995 
Q 3590 1293 3590 1683 
Q 3590 2074 3424 2368 
Q 3258 2662 2976 2828 
Q 2694 2995 2336 2995 
Q 1978 2995 1693 2828 
Q 1408 2662 1245 2368 
Q 1082 2074 1082 1683 
Q 1082 1293 1245 995 
Q 1408 698 1693 534 
Q 1978 371 2336 371 
z
" transform="scale(0.015625)"/>
      </defs>
      <use xlink:href="#Montserrat-Regular-54"/>
      <use xlink:href="#Montserrat-Regular-69" transform="translate(57.399994 0)"/>
      <use xlink:href="#Montserrat-Regular-6d" transform="translate(84.299988 0)"/>
      <use xlink:href="#Montserrat-Regular-65" transform="translate(190.399979 0)"/>
      <use xlink:href="#Montserrat-Regular-73" transform="translate(250.799973 0)"/>
      <use xlink:href="#Montserrat-Regular-74" transform="translate(299.59996 0)"/>
      <use xlink:href="#Montserrat-Regular-65" transform="translate(340.199951 0)"/>
      <use xlink:href="#Montserrat-Regular-70" transform="translate(400.599945 0)"/>
     </g>
    </g>
   </g>
   <g id="matplotlib.axis_4">
    <g id="ytick_7">
     <g id="line2d_29">
      <g>
       <use xlink:href="#m5f82598849" x="38.23" y="311.747727" style="stroke: #000000; stroke-width: 0.8"/>
      </g>
     </g>
     <g id="text_20">
      <!-- −1.0 -->
      <g transform="translate(12.769063 315.457884) scale(0.1 -0.1)">
       <defs>
        <path id="Montserrat-Medium-2212" d="M 429 1984 
L 429 2490 
L 3296 2490 
L 3296 1984 
L 429 1984 
z
" transform="scale(0.015625)"/>
       </defs>
       <use xlink:href="#Montserrat-Medium-2212"/>
       <use xlink:href="#Montserrat-Medium-31" transform="translate(58.199997 0)"/>
       <use xlink:href="#Montserrat-Medium-2e" transform="translate(95.199982 0)"/>
       <use xlink:href="#Montserrat-Medium-30" transform="translate(117.899979 0)"/>
      </g>
     </g>
    </g>
    <g id="ytick_8">
     <g id="line2d_30">
      <g>
       <use xlink:href="#m5f82598849" x="38.23" y="280.286364" style="stroke: #000000; stroke-width: 0.8"/>
      </g>
     </g>
     <g id="text_21">
      <!-- −0.5 -->
      <g transform="translate(10.728438 283.99652) scale(0.1 -0.1)">
       <use xlink:href="#Montserrat-Medium-2212"/>
       <use xlink:href="#Montserrat-Medium-30" transform="translate(58.199997 0)"/>
       <use xlink:href="#Montserrat-Medium-2e" transform="translate(124.899994 0)"/>
       <use xlink:href="#Montserrat-Medium-35" transform="translate(147.599991 0)"/>
      </g>
     </g>
    </g>
    <g id="ytick_9">
     <g id="line2d_31">
      <g>
       <use xlink:href="#m5f82598849" x="38.23" y="248.825" style="stroke: #000000; stroke-width: 0.8"/>
      </g>
     </g>
     <g id="text_22">
      <!-- 0.0 -->
      <g transform="translate(15.619063 252.535156) scale(0.1 -0.1)">
       <use xlink:href="#Montserrat-Medium-30"/>
       <use xlink:href="#Montserrat-Medium-2e" transform="translate(66.699997 0)"/>
       <use xlink:href="#Montserrat-Medium-30" transform="translate(89.399994 0)"/>
      </g>
     </g>
    </g>
    <g id="ytick_10">
     <g id="line2d_32">
      <g>
       <use xlink:href="#m5f82598849" x="38.23" y="217.363636" style="stroke: #000000; stroke-width: 0.8"/>
      </g>
     </g>
     <g id="text_23">
      <!-- 0.5 -->
      <g transform="translate(16.54875 221.073793) scale(0.1 -0.1)">
       <use xlink:href="#Montserrat-Medium-30"/>
       <use xlink:href="#Montserrat-Medium-2e" transform="translate(66.699997 0)"/>
       <use xlink:href="#Montserrat-Medium-35" transform="translate(89.399994 0)"/>
      </g>
     </g>
    </g>
    <g id="ytick_11">
     <g id="line2d_33">
      <g>
       <use xlink:href="#m5f82598849" x="38.23" y="185.902273" style="stroke: #000000; stroke-width: 0.8"/>
      </g>
     </g>
     <g id="text_24">
      <!-- 1.0 -->
      <g transform="translate(18.589375 189.612429) scale(0.1 -0.1)">
       <use xlink:href="#Montserrat-Medium-31"/>
       <use xlink:href="#Montserrat-Medium-2e" transform="translate(36.999985 0)"/>
       <use xlink:href="#Montserrat-Medium-30" transform="translate(59.699982 0)"/>
      </g>
     </g>
    </g>
   </g>
   <g id="LineCollection_1">
    <path d="M 49.708451 248.825 
L 49.708451 185.902273 
" clip-path="url(#p369e62344a)" style="fill: none; stroke: #375da5; stroke-width: 1.5"/>
    <path d="M 61.186901 248.825 
L 61.186901 311.747727 
" clip-path="url(#p369e62344a)" style="fill: none; stroke: #375da5; stroke-width: 1.5"/>
    <path d="M 72.665352 248.825 
L 72.665352 311.747727 
" clip-path="url(#p369e62344a)" style="fill: none; stroke: #375da5; stroke-width: 1.5"/>
    <path d="M 84.143803 248.825 
L 84.143803 311.747727 
" clip-path="url(#p369e62344a)" style="fill: none; stroke: #375da5; stroke-width: 1.5"/>
    <path d="M 95.622254 248.825 
L 95.622254 311.747727 
" clip-path="url(#p369e62344a)" style="fill: none; stroke: #375da5; stroke-width: 1.5"/>
    <path d="M 107.100704 248.825 
L 107.100704 185.902273 
" clip-path="url(#p369e62344a)" style="fill: none; stroke: #375da5; stroke-width: 1.5"/>
    <path d="M 118.579155 248.825 
L 118.579155 185.902273 
" clip-path="url(#p369e62344a)" style="fill: none; stroke: #375da5; stroke-width: 1.5"/>
    <path d="M 130.057606 248.825 
L 130.057606 248.825 
" clip-path="url(#p369e62344a)" style="fill: none; stroke: #375da5; stroke-width: 1.5"/>
    <path d="M 141.536056 248.825 
L 141.536056 248.825 
" clip-path="url(#p369e62344a)" style="fill: none; stroke: #375da5; stroke-width: 1.5"/>
    <path d="M 153.014507 248.825 
L 153.014507 311.747727 
" clip-path="url(#p369e62344a)" style="fill: none; stroke: #375da5; stroke-width: 1.5"/>
    <path d="M 164.492958 248.825 
L 164.492958 185.902273 
" clip-path="url(#p369e62344a)" style="fill: none; stroke: #375da5; stroke-width: 1.5"/>
    <path d="M 175.971408 248.825 
L 175.971408 185.902273 
" clip-path="url(#p369e62344a)" style="fill: none; stroke: #375da5; stroke-width: 1.5"/>
    <path d="M 187.449859 248.825 
L 187.449859 248.825 
" clip-path="url(#p369e62344a)" style="fill: none; stroke: #375da5; stroke-width: 1.5"/>
    <path d="M 198.92831 248.825 
L 198.92831 311.747727 
" clip-path="url(#p369e62344a)" style="fill: none; stroke: #375da5; stroke-width: 1.5"/>
    <path d="M 210.406761 248.825 
L 210.406761 185.902273 
" clip-path="url(#p369e62344a)" style="fill: none; stroke: #375da5; stroke-width: 1.5"/>
    <path d="M 221.885211 248.825 
L 221.885211 185.902273 
" clip-path="url(#p369e62344a)" style="fill: none; stroke: #375da5; stroke-width: 1.5"/>
    <path d="M 233.363662 248.825 
L 233.363662 248.825 
" clip-path="url(#p369e62344a)" style="fill: none; stroke: #375da5; stroke-width: 1.5"/>
    <path d="M 244.842113 248.825 
L 244.842113 311.747727 
" clip-path="url(#p369e62344a)" style="fill: none; stroke: #375da5; stroke-width: 1.5"/>
    <path d="M 256.320563 248.825 
L 256.320563 248.825 
" clip-path="url(#p369e62344a)" style="fill: none; stroke: #375da5; stroke-width: 1.5"/>
    <path d="M 267.799014 248.825 
L 267.799014 248.825 
" clip-path="url(#p369e62344a)" style="fill: none; stroke: #375da5; stroke-width: 1.5"/>
    <path d="M 279.277465 248.825 
L 279.277465 248.825 
" clip-path="url(#p369e62344a)" style="fill: none; stroke: #375da5; stroke-width: 1.5"/>
    <path d="M 290.755915 248.825 
L 290.755915 248.825 
" clip-path="url(#p369e62344a)" style="fill: none; stroke: #375da5; stroke-width: 1.5"/>
    <path d="M 302.234366 248.825 
L 302.234366 185.902273 
" clip-path="url(#p369e62344a)" style="fill: none; stroke: #375da5; stroke-width: 1.5"/>
    <path d="M 313.712817 248.825 
L 313.712817 248.825 
" clip-path="url(#p369e62344a)" style="fill: none; stroke: #375da5; stroke-width: 1.5"/>
    <path d="M 325.191268 248.825 
L 325.191268 311.747727 
" clip-path="url(#p369e62344a)" style="fill: none; stroke: #375da5; stroke-width: 1.5"/>
    <path d="M 336.669718 248.825 
L 336.669718 311.747727 
" clip-path="url(#p369e62344a)" style="fill: none; stroke: #375da5; stroke-width: 1.5"/>
    <path d="M 348.148169 248.825 
L 348.148169 248.825 
" clip-path="url(#p369e62344a)" style="fill: none; stroke: #375da5; stroke-width: 1.5"/>
    <path d="M 359.62662 248.825 
L 359.62662 248.825 
" clip-path="url(#p369e62344a)" style="fill: none; stroke: #375da5; stroke-width: 1.5"/>
    <path d="M 371.10507 248.825 
L 371.10507 248.825 
" clip-path="url(#p369e62344a)" style="fill: none; stroke: #375da5; stroke-width: 1.5"/>
    <path d="M 382.583521 248.825 
L 382.583521 185.902273 
" clip-path="url(#p369e62344a)" style="fill: none; stroke: #375da5; stroke-width: 1.5"/>
    <path d="M 394.061972 248.825 
L 394.061972 248.825 
" clip-path="url(#p369e62344a)" style="fill: none; stroke: #375da5; stroke-width: 1.5"/>
    <path d="M 405.540423 248.825 
L 405.540423 311.747727 
" clip-path="url(#p369e62344a)" style="fill: none; stroke: #375da5; stroke-width: 1.5"/>
    <path d="M 417.018873 248.825 
L 417.018873 185.902273 
" clip-path="url(#p369e62344a)" style="fill: none; stroke: #375da5; stroke-width: 1.5"/>
    <path d="M 428.497324 248.825 
L 428.497324 248.825 
" clip-path="url(#p369e62344a)" style="fill: none; stroke: #375da5; stroke-width: 1.5"/>
    <path d="M 439.975775 248.825 
L 439.975775 311.747727 
" clip-path="url(#p369e62344a)" style="fill: none; stroke: #375da5; stroke-width: 1.5"/>
    <path d="M 451.454225 248.825 
L 451.454225 185.902273 
" clip-path="url(#p369e62344a)" style="fill: none; stroke: #375da5; stroke-width: 1.5"/>
    <path d="M 462.932676 248.825 
L 462.932676 185.902273 
" clip-path="url(#p369e62344a)" style="fill: none; stroke: #375da5; stroke-width: 1.5"/>
    <path d="M 474.411127 248.825 
L 474.411127 248.825 
" clip-path="url(#p369e62344a)" style="fill: none; stroke: #375da5; stroke-width: 1.5"/>
    <path d="M 485.889577 248.825 
L 485.889577 248.825 
" clip-path="url(#p369e62344a)" style="fill: none; stroke: #375da5; stroke-width: 1.5"/>
    <path d="M 497.368028 248.825 
L 497.368028 311.747727 
" clip-path="url(#p369e62344a)" style="fill: none; stroke: #375da5; stroke-width: 1.5"/>
    <path d="M 508.846479 248.825 
L 508.846479 248.825 
" clip-path="url(#p369e62344a)" style="fill: none; stroke: #375da5; stroke-width: 1.5"/>
    <path d="M 520.32493 248.825 
L 520.32493 248.825 
" clip-path="url(#p369e62344a)" style="fill: none; stroke: #375da5; stroke-width: 1.5"/>
    <path d="M 531.80338 248.825 
L 531.80338 248.825 
" clip-path="url(#p369e62344a)" style="fill: none; stroke: #375da5; stroke-width: 1.5"/>
    <path d="M 543.281831 248.825 
L 543.281831 248.825 
" clip-path="url(#p369e62344a)" style="fill: none; stroke: #375da5; stroke-width: 1.5"/>
    <path d="M 554.760282 248.825 
L 554.760282 248.825 
" clip-path="url(#p369e62344a)" style="fill: none; stroke: #375da5; stroke-width: 1.5"/>
    <path d="M 566.238732 248.825 
L 566.238732 248.825 
" clip-path="url(#p369e62344a)" style="fill: none; stroke: #375da5; stroke-width: 1.5"/>
    <path d="M 577.717183 248.825 
L 577.717183 248.825 
" clip-path="url(#p369e62344a)" style="fill: none; stroke: #375da5; stroke-width: 1.5"/>
    <path d="M 589.195634 248.825 
L 589.195634 248.825 
" clip-path="url(#p369e62344a)" style="fill: none; stroke: #375da5; stroke-width: 1.5"/>
    <path d="M 600.674085 248.825 
L 600.674085 248.825 
" clip-path="url(#p369e62344a)" style="fill: none; stroke: #375da5; stroke-width: 1.5"/>
    <path d="M 612.152535 248.825 
L 612.152535 248.825 
" clip-path="url(#p369e62344a)" style="fill: none; stroke: #375da5; stroke-width: 1.5"/>
    <path d="M 623.630986 248.825 
L 623.630986 248.825 
" clip-path="url(#p369e62344a)" style="fill: none; stroke: #375da5; stroke-width: 1.5"/>
    <path d="M 635.109437 248.825 
L 635.109437 311.747727 
" clip-path="url(#p369e62344a)" style="fill: none; stroke: #375da5; stroke-width: 1.5"/>
    <path d="M 646.587887 248.825 
L 646.587887 185.902273 
" clip-path="url(#p369e62344a)" style="fill: none; stroke: #375da5; stroke-width: 1.5"/>
    <path d="M 658.066338 248.825 
L 658.066338 248.825 
" clip-path="url(#p369e62344a)" style="fill: none; stroke: #375da5; stroke-width: 1.5"/>
    <path d="M 669.544789 248.825 
L 669.544789 311.747727 
" clip-path="url(#p369e62344a)" style="fill: none; stroke: #375da5; stroke-width: 1.5"/>
    <path d="M 681.023239 248.825 
L 681.023239 248.825 
" clip-path="url(#p369e62344a)" style="fill: none; stroke: #375da5; stroke-width: 1.5"/>
    <path d="M 692.50169 248.825 
L 692.50169 248.825 
" clip-path="url(#p369e62344a)" style="fill: none; stroke: #375da5; stroke-width: 1.5"/>
    <path d="M 703.980141 248.825 
L 703.980141 311.747727 
" clip-path="url(#p369e62344a)" style="fill: none; stroke: #375da5; stroke-width: 1.5"/>
    <path d="M 715.458592 248.825 
L 715.458592 248.825 
" clip-path="url(#p369e62344a)" style="fill: none; stroke: #375da5; stroke-width: 1.5"/>
    <path d="M 726.937042 248.825 
L 726.937042 248.825 
" clip-path="url(#p369e62344a)" style="fill: none; stroke: #375da5; stroke-width: 1.5"/>
    <path d="M 738.415493 248.825 
L 738.415493 248.825 
" clip-path="url(#p369e62344a)" style="fill: none; stroke: #375da5; stroke-width: 1.5"/>
    <path d="M 749.893944 248.825 
L 749.893944 248.825 
" clip-path="url(#p369e62344a)" style="fill: none; stroke: #375da5; stroke-width: 1.5"/>
    <path d="M 761.372394 248.825 
L 761.372394 248.825 
" clip-path="url(#p369e62344a)" style="fill: none; stroke: #375da5; stroke-width: 1.5"/>
    <path d="M 772.850845 248.825 
L 772.850845 185.902273 
" clip-path="url(#p369e62344a)" style="fill: none; stroke: #375da5; stroke-width: 1.5"/>
    <path d="M 784.329296 248.825 
L 784.329296 185.902273 
" clip-path="url(#p369e62344a)" style="fill: none; stroke: #375da5; stroke-width: 1.5"/>
   </g>
   <g id="line2d_34"/>
   <g id="line2d_35">
    <path d="M 49.708451 248.825 
L 784.329296 248.825 
" clip-path="url(#p369e62344a)" style="fill: none; stroke: #febd2e; stroke-width: 1.5; stroke-linecap: square"/>
   </g>
   <g id="patch_9">
    <path d="M 38.23 318.04 
L 38.23 179.61 
" style="fill: none; stroke: #000000; stroke-width: 0.8; stroke-linejoin: miter; stroke-linecap: square"/>
   </g>
   <g id="patch_10">
    <path d="M 853.2 318.04 
L 853.2 179.61 
" style="fill: none; stroke: #000000; stroke-width: 0.8; stroke-linejoin: miter; stroke-linecap: square"/>
   </g>
   <g id="patch_11">
    <path d="M 38.23 318.04 
L 853.2 318.04 
" style="fill: none; stroke: #000000; stroke-width: 0.8; stroke-linejoin: miter; stroke-linecap: square"/>
   </g>
   <g id="patch_12">
    <path d="M 38.23 179.61 
L 853.2 179.61 
" style="fill: none; stroke: #000000; stroke-width: 0.8; stroke-linejoin: miter; stroke-linecap: square"/>
   </g>
  </g>
 </g>
 <defs>
  <clipPath id="p11239568f9">
   <rect x="38.23" y="26.88" width="814.97" height="138.43"/>
  </clipPath>
  <clipPath id="p369e62344a">
   <rect x="38.23" y="179.61" width="814.97" height="138.43"/>
  </clipPath>
 </defs>
</svg>
