<?xml version="1.0" encoding="utf-8" standalone="no"?>
<!DOCTYPE svg PUBLIC "-//W3C//DTD SVG 1.1//EN"
  "http://www.w3.org/Graphics/SVG/1.1/DTD/svg11.dtd">
<svg xmlns:xlink="http://www.w3.org/1999/xlink" width="720pt" height="252pt" viewBox="0 0 720 252" xmlns="http://www.w3.org/2000/svg" version="1.1">
 <metadata>
  <rdf:RDF xmlns:dc="http://purl.org/dc/elements/1.1/" xmlns:cc="http://creativecommons.org/ns#" xmlns:rdf="http://www.w3.org/1999/02/22-rdf-syntax-ns#">
   <cc:Work>
    <dc:type rdf:resource="http://purl.org/dc/dcmitype/StillImage"/>
    <dc:date>2025-05-15T02:26:19.560328</dc:date>
    <dc:format>image/svg+xml</dc:format>
    <dc:creator>
     <cc:Agent>
      <dc:title>Matplotlib v3.10.1, https://matplotlib.org/</dc:title>
     </cc:Agent>
    </dc:creator>
   </cc:Work>
  </rdf:RDF>
 </metadata>
 <defs>
  <style type="text/css">*{stroke-linejoin: round; stroke-linecap: butt}</style>
 </defs>
 <g id="figure_1">
  <g id="patch_1">
   <path d="M 0 252 
L 720 252 
L 720 0 
L 0 0 
L 0 252 
z
" style="fill: none"/>
  </g>
  <g id="axes_1">
   <g id="patch_2">
    <path d="M 44.804928 218.64351 
L 716.99976 218.64351 
L 716.99976 18.118365 
L 44.804928 18.118365 
L 44.804928 218.64351 
z
" style="fill: none"/>
   </g>
   <g id="FillBetweenPolyCollection_1">
    <path d="M 44.804928 29.039597 
L 44.804928 49.61159 
L 45.471787 49.066445 
L 46.138647 51.10483 
L 46.805507 51.423107 
L 47.472367 54.717961 
L 48.139227 54.018885 
L 48.806087 52.64275 
L 49.472947 56.677487 
L 50.139807 54.220119 
L 50.806667 55.787999 
L 51.473527 55.866205 
L 52.140387 56.747078 
L 52.807247 55.491556 
L 53.474107 55.69449 
L 54.140967 58.419411 
L 54.807827 54.456324 
L 55.474687 52.321497 
L 56.141547 54.193822 
L 56.808407 53.456802 
L 57.475267 55.787566 
L 58.142127 58.138909 
L 58.808987 60.18169 
L 59.475846 60.487906 
L 60.142706 59.413016 
L 60.809566 57.966283 
L 61.476426 59.057169 
L 62.143286 59.492339 
L 62.810146 62.97312 
L 63.477006 62.34663 
L 64.143866 61.553474 
L 64.810726 63.548237 
L 65.477586 62.41681 
L 66.144446 59.502826 
L 66.811306 62.33312 
L 67.478166 60.56888 
L 68.145026 61.83464 
L 68.811886 63.111601 
L 69.478746 61.685097 
L 70.145606 60.342294 
L 70.812466 64.252976 
L 71.479326 64.816282 
L 72.146186 64.164104 
L 72.813046 66.931867 
L 73.479905 65.921835 
L 74.146765 65.253207 
L 74.813625 62.786223 
L 75.480485 63.926551 
L 76.147345 67.629119 
L 76.814205 68.807705 
L 77.481065 71.038069 
L 78.147925 68.569284 
L 78.814785 67.17331 
L 79.481645 68.903733 
L 80.148505 68.444919 
L 80.815365 71.057926 
L 81.482225 73.553079 
L 82.149085 74.058877 
L 82.815945 72.715147 
L 83.482805 70.545291 
L 84.149665 70.795123 
L 84.816525 71.563527 
L 85.483385 69.972615 
L 86.150245 72.130421 
L 86.817105 76.532785 
L 87.483964 75.639516 
L 88.150824 77.070236 
L 88.817684 75.102464 
L 89.484544 74.747259 
L 90.151404 75.09917 
L 90.818264 71.922239 
L 91.485124 74.831794 
L 92.151984 76.340512 
L 92.818844 74.553356 
L 93.485704 78.077635 
L 94.152564 75.09233 
L 94.819424 76.635926 
L 95.486284 75.641802 
L 96.153144 79.670027 
L 96.820004 77.774264 
L 97.486864 77.617328 
L 98.153724 77.869684 
L 98.820584 77.264584 
L 99.487444 80.450564 
L 100.154304 79.472823 
L 100.821164 79.033117 
L 101.488023 77.263995 
L 102.154883 81.401458 
L 102.821743 81.520237 
L 103.488603 77.755713 
L 104.155463 78.52243 
L 104.822323 81.770308 
L 105.489183 81.172353 
L 106.156043 81.173264 
L 106.822903 80.34455 
L 107.489763 79.044368 
L 108.156623 80.698549 
L 108.823483 83.023792 
L 109.490343 80.436477 
L 110.157203 79.620953 
L 110.824063 77.341875 
L 111.490923 80.858353 
L 112.157783 83.268966 
L 112.824643 82.284614 
L 113.491503 80.902903 
L 114.158363 80.215479 
L 114.825223 79.61407 
L 115.492083 78.666861 
L 116.158942 83.705471 
L 116.825802 83.973434 
L 117.492662 82.916183 
L 118.159522 83.167472 
L 118.826382 73.161344 
L 119.493242 66.924205 
L 120.160102 74.560456 
L 120.826962 82.592331 
L 121.493822 85.876907 
L 122.160682 84.603055 
L 122.827542 82.433806 
L 123.494402 80.497765 
L 124.161262 78.909633 
L 124.828122 80.771207 
L 125.494982 83.81307 
L 126.161842 83.683903 
L 126.828702 84.057389 
L 127.495562 82.779794 
L 128.162422 83.520926 
L 128.829282 85.364589 
L 129.496142 86.811863 
L 130.163001 83.824513 
L 130.829861 81.109185 
L 131.496721 81.708562 
L 132.163581 83.132828 
L 132.830441 85.90174 
L 133.497301 84.494284 
L 134.164161 83.560639 
L 134.831021 82.85513 
L 135.497881 84.149162 
L 136.164741 82.892514 
L 136.831601 81.790628 
L 137.498461 82.802727 
L 138.165321 84.644241 
L 138.832181 84.861938 
L 139.499041 84.263498 
L 140.165901 85.237774 
L 140.832761 85.081221 
L 141.499621 84.564513 
L 142.166481 85.547285 
L 142.833341 87.920893 
L 143.500201 86.757314 
L 144.16706 86.240757 
L 144.83392 85.874256 
L 145.50078 85.162911 
L 146.16764 84.078597 
L 146.8345 83.24888 
L 147.50136 85.870005 
L 148.16822 85.912857 
L 148.83508 86.650933 
L 149.50194 86.468525 
L 150.1688 87.81838 
L 150.83566 87.342891 
L 151.50252 85.310664 
L 152.16938 84.479834 
L 152.83624 83.144427 
L 153.5031 85.467262 
L 154.16996 87.589214 
L 154.83682 85.960743 
L 155.50368 87.016071 
L 156.17054 89.354003 
L 156.8374 89.384251 
L 157.50426 87.898252 
L 158.171119 88.780444 
L 158.837979 87.137619 
L 159.504839 86.633942 
L 160.171699 85.275335 
L 160.838559 88.611566 
L 161.505419 85.991453 
L 162.172279 85.911681 
L 162.839139 86.875781 
L 163.505999 88.723445 
L 164.172859 90.005387 
L 164.839719 89.254246 
L 165.506579 88.237928 
L 166.173439 87.230173 
L 166.840299 85.777069 
L 167.507159 86.915238 
L 168.174019 87.726375 
L 168.840879 86.222241 
L 169.507739 85.644721 
L 170.174599 86.349693 
L 170.841459 86.848595 
L 171.508319 89.124218 
L 172.175178 89.806808 
L 172.842038 88.450088 
L 173.508898 88.108588 
L 174.175758 89.568688 
L 174.842618 88.457712 
L 175.509478 87.851021 
L 176.176338 89.02741 
L 176.843198 86.58203 
L 177.510058 88.031272 
L 178.176918 88.378825 
L 178.843778 87.978242 
L 179.510638 89.350256 
L 180.177498 87.409944 
L 180.844358 87.740142 
L 181.511218 87.033563 
L 182.178078 85.848856 
L 182.844938 84.637166 
L 183.511798 83.328688 
L 184.178658 84.828992 
L 184.845518 85.94514 
L 185.512378 85.939928 
L 186.179238 83.958286 
L 186.846097 87.756376 
L 187.512957 87.914963 
L 188.179817 88.018787 
L 188.846677 89.617011 
L 189.513537 86.152012 
L 190.180397 86.024106 
L 190.847257 86.294855 
L 191.514117 86.76756 
L 192.180977 85.510347 
L 192.847837 88.034707 
L 193.514697 87.116276 
L 194.181557 87.972534 
L 194.848417 85.981301 
L 195.515277 85.171454 
L 196.182137 84.567188 
L 196.848997 87.141551 
L 197.515857 89.823345 
L 198.182717 88.222 
L 198.849577 86.032994 
L 199.516437 86.362997 
L 200.183297 88.835467 
L 200.850156 88.785388 
L 201.517016 88.560311 
L 202.183876 88.490458 
L 202.850736 88.48196 
L 203.517596 90.136946 
L 204.184456 75.80512 
L 204.851316 64.914346 
L 205.518176 74.140104 
L 206.185036 87.609056 
L 206.851896 87.707407 
L 207.518756 88.553612 
L 208.185616 90.854144 
L 208.852476 91.743699 
L 209.519336 89.511072 
L 210.186196 88.504192 
L 210.853056 87.694148 
L 211.519916 86.012388 
L 212.186776 87.946349 
L 212.853636 86.979566 
L 213.520496 87.87385 
L 214.187356 87.877514 
L 214.854215 88.441335 
L 215.521075 88.941789 
L 216.187935 89.361891 
L 216.854795 90.54432 
L 217.521655 89.256143 
L 218.188515 89.564794 
L 218.855375 90.758691 
L 219.522235 90.412192 
L 220.189095 88.784213 
L 220.855955 88.868205 
L 221.522815 88.496052 
L 222.189675 89.770018 
L 222.856535 89.685575 
L 223.523395 91.877485 
L 224.190255 90.806732 
L 224.857115 89.753195 
L 225.523975 89.932573 
L 226.190835 88.22751 
L 226.857695 87.495002 
L 227.524555 87.876159 
L 228.191415 89.442811 
L 228.858274 89.939772 
L 229.525134 92.186082 
L 230.191994 91.367713 
L 230.858854 89.518288 
L 231.525714 89.045654 
L 232.192574 90.27595 
L 232.859434 88.073526 
L 233.526294 86.862441 
L 234.193154 88.143047 
L 234.860014 87.752358 
L 235.526874 90.882425 
L 236.193734 92.985351 
L 236.860594 91.977757 
L 237.527454 89.749395 
L 238.194314 89.050758 
L 238.861174 88.994546 
L 239.528034 91.783253 
L 240.194894 91.109126 
L 240.861754 92.556419 
L 241.528614 90.002267 
L 242.195474 89.867402 
L 242.862334 88.656469 
L 243.529193 89.747408 
L 244.196053 91.687357 
L 244.862913 94.433241 
L 245.529773 91.843621 
L 246.196633 92.42876 
L 246.863493 92.038771 
L 247.530353 91.430859 
L 248.197213 92.119576 
L 248.864073 91.574955 
L 249.530933 91.493094 
L 250.197793 92.718577 
L 250.864653 92.599649 
L 251.531513 91.103487 
L 252.198373 91.465146 
L 252.865233 95.24181 
L 253.532093 96.755685 
L 254.198953 96.695539 
L 254.865813 94.784642 
L 255.532673 96.33902 
L 256.199533 92.390336 
L 256.866393 93.189426 
L 257.533252 95.810704 
L 258.200112 94.073241 
L 258.866972 95.410883 
L 259.533832 98.594932 
L 260.200692 99.271408 
L 260.867552 96.981273 
L 261.534412 94.838323 
L 262.201272 95.102983 
L 262.868132 97.239793 
L 263.534992 97.032217 
L 264.201852 94.571617 
L 264.868712 96.968997 
L 265.535572 96.617789 
L 266.202432 98.027147 
L 266.869292 97.220073 
L 267.536152 100.268501 
L 268.203012 96.989068 
L 268.869872 91.026236 
L 269.536732 91.015699 
L 270.203592 97.360769 
L 270.870452 98.356777 
L 271.537311 97.986904 
L 272.204171 97.535198 
L 272.871031 97.2332 
L 273.537891 96.65328 
L 274.204751 95.464141 
L 274.871611 97.347869 
L 275.538471 98.336452 
L 276.205331 98.343973 
L 276.872191 96.261172 
L 277.539051 98.632632 
L 278.205911 99.85097 
L 278.872771 100.259649 
L 279.539631 102.000288 
L 280.206491 101.099432 
L 280.873351 98.707561 
L 281.540211 99.707792 
L 282.207071 102.646363 
L 282.873931 105.36316 
L 283.540791 102.566598 
L 284.207651 100.865206 
L 284.874511 101.306126 
L 285.54137 100.079083 
L 286.20823 101.985358 
L 286.87509 102.850036 
L 287.54195 102.613878 
L 288.20881 104.495488 
L 288.87567 103.434825 
L 289.54253 87.292883 
L 290.20939 79.664717 
L 290.87625 87.614902 
L 291.54311 103.373395 
L 292.20997 102.53173 
L 292.87683 105.139538 
L 293.54369 105.8234 
L 294.21055 103.54082 
L 294.87741 107.443396 
L 295.54427 109.215447 
L 296.21113 108.418306 
L 296.87799 108.085622 
L 297.54485 106.538416 
L 298.21171 104.221246 
L 298.87857 106.534913 
L 299.545429 108.495585 
L 300.212289 108.957193 
L 300.879149 108.892893 
L 301.546009 110.736131 
L 302.212869 111.414957 
L 302.879729 111.930994 
L 303.546589 111.618281 
L 304.213449 113.879304 
L 304.880309 112.421119 
L 305.547169 111.718751 
L 306.214029 113.960693 
L 306.880889 113.228488 
L 307.547749 114.939381 
L 308.214609 113.143845 
L 308.881469 112.306627 
L 309.548329 114.14123 
L 310.215189 116.895917 
L 310.882049 113.988368 
L 311.548909 112.100692 
L 312.215769 114.460734 
L 312.882629 117.572726 
L 313.549489 118.385468 
L 314.216348 117.100394 
L 314.883208 116.648992 
L 315.550068 117.507031 
L 316.216928 117.481767 
L 316.883788 118.93702 
L 317.550648 120.117134 
L 318.217508 119.100655 
L 318.884368 119.163116 
L 319.551228 118.866217 
L 320.218088 119.835273 
L 320.884948 125.794785 
L 321.551808 124.322208 
L 322.218668 122.144359 
L 322.885528 121.237546 
L 323.552388 123.677653 
L 324.219248 124.93848 
L 324.886108 126.794822 
L 325.552968 125.830915 
L 326.219828 125.651377 
L 326.886688 126.944269 
L 327.553548 128.901951 
L 328.220407 129.942273 
L 328.887267 131.200749 
L 329.554127 131.469298 
L 330.220987 130.28126 
L 330.887847 128.661607 
L 331.554707 128.999665 
L 332.221567 130.772802 
L 332.888427 132.625343 
L 333.555287 132.132889 
L 334.222147 131.34769 
L 334.889007 132.897562 
L 335.555867 131.635198 
L 336.222727 132.704419 
L 336.889587 131.805484 
L 337.556447 133.331198 
L 338.223307 136.131252 
L 338.890167 136.232005 
L 339.557027 139.662322 
L 340.223887 138.387823 
L 340.890747 138.644653 
L 341.557607 136.239909 
L 342.224466 138.218963 
L 342.891326 141.059675 
L 343.558186 138.4575 
L 344.225046 138.581036 
L 344.891906 141.333248 
L 345.558766 141.164646 
L 346.225626 142.125476 
L 346.892486 144.163604 
L 347.559346 144.13345 
L 348.226206 144.987598 
L 348.893066 145.232622 
L 349.559926 143.775087 
L 350.226786 141.502237 
L 350.893646 142.075489 
L 351.560506 147.185655 
L 352.227366 156.767388 
L 352.894226 175.337261 
L 353.561086 190.057481 
L 354.227946 190.658161 
L 354.894806 189.75052 
L 355.561666 177.294665 
L 356.228525 160.941472 
L 356.895385 149.653486 
L 357.562245 145.109758 
L 358.229105 144.742393 
L 358.895965 143.088011 
L 359.562825 144.701291 
L 360.229685 146.214672 
L 360.896545 144.739048 
L 361.563405 145.634837 
L 362.230265 144.467727 
L 362.897125 144.216641 
L 363.563985 147.470194 
L 364.230845 147.279751 
L 364.897705 147.382002 
L 365.564565 145.888403 
L 366.231425 143.686823 
L 366.898285 142.884642 
L 367.565145 141.153974 
L 368.232005 143.94015 
L 368.898865 144.565234 
L 369.565725 144.206754 
L 370.232585 140.303216 
L 370.899444 137.283052 
L 371.566304 139.253104 
L 372.233164 139.316501 
L 372.900024 138.420583 
L 373.566884 140.22277 
L 374.233744 139.782818 
L 374.900604 122.5224 
L 375.567464 111.993667 
L 376.234324 121.740698 
L 376.901184 140.003249 
L 377.568044 135.831892 
L 378.234904 135.545634 
L 378.901764 134.964183 
L 379.568624 136.983138 
L 380.235484 136.86403 
L 380.902344 138.766989 
L 381.569204 133.036125 
L 382.236064 134.204976 
L 382.902924 134.523641 
L 383.569784 132.551381 
L 384.236644 131.389187 
L 384.903503 130.2108 
L 385.570363 130.471949 
L 386.237223 133.028649 
L 386.904083 131.902329 
L 387.570943 132.514974 
L 388.237803 131.281272 
L 388.904663 132.301908 
L 389.571523 129.147589 
L 390.238383 129.186916 
L 390.905243 130.02615 
L 391.572103 131.51132 
L 392.238963 129.34904 
L 392.905823 128.243813 
L 393.572683 128.38963 
L 394.239543 125.042054 
L 394.906403 125.73521 
L 395.573263 124.921751 
L 396.240123 123.135371 
L 396.906983 121.981597 
L 397.573843 124.845619 
L 398.240703 126.262937 
L 398.907562 125.578819 
L 399.574422 122.376494 
L 400.241282 121.355442 
L 400.908142 123.257749 
L 401.575002 120.9908 
L 402.241862 121.711983 
L 402.908722 122.335075 
L 403.575582 120.876632 
L 404.242442 120.782791 
L 404.909302 119.310916 
L 405.576162 119.943683 
L 406.243022 118.565595 
L 406.909882 119.903598 
L 407.576742 119.513977 
L 408.243602 117.206354 
L 408.910462 116.965362 
L 409.577322 118.521119 
L 410.244182 117.943984 
L 410.911042 119.113027 
L 411.577902 119.277502 
L 412.244762 118.473151 
L 412.911621 117.5257 
L 413.578481 118.687318 
L 414.245341 116.180427 
L 414.912201 114.751194 
L 415.579061 114.673528 
L 416.245921 116.184525 
L 416.912781 114.805517 
L 417.579641 113.340753 
L 418.246501 111.44355 
L 418.913361 112.541809 
L 419.580221 116.784742 
L 420.247081 117.406448 
L 420.913941 116.087926 
L 421.580801 113.536708 
L 422.247661 112.937297 
L 422.914521 114.505991 
L 423.581381 112.351166 
L 424.248241 112.355334 
L 424.915101 114.27491 
L 425.581961 113.144946 
L 426.248821 116.065409 
L 426.91568 113.93043 
L 427.58254 110.56158 
L 428.2494 109.298068 
L 428.91626 112.075594 
L 429.58312 114.322861 
L 430.24998 112.485529 
L 430.91684 110.267185 
L 431.5837 112.714419 
L 432.25056 111.613065 
L 432.91742 109.259077 
L 433.58428 111.00694 
L 434.25114 110.18949 
L 434.918 110.532364 
L 435.58486 112.824553 
L 436.25172 111.820895 
L 436.91858 110.531898 
L 437.58544 109.397865 
L 438.2523 111.192092 
L 438.91916 97.347011 
L 439.58602 91.379996 
L 440.25288 102.724398 
L 440.91974 110.349961 
L 441.586599 109.784415 
L 442.253459 109.763806 
L 442.920319 110.421536 
L 443.587179 110.10372 
L 444.254039 112.273053 
L 444.920899 107.256926 
L 445.587759 107.829948 
L 446.254619 109.074888 
L 446.921479 107.84184 
L 447.588339 110.078722 
L 448.255199 110.015915 
L 448.922059 108.718655 
L 449.588919 106.721923 
L 450.255779 108.465703 
L 450.922639 110.844858 
L 451.589499 110.676048 
L 452.256359 109.085307 
L 452.923219 111.223742 
L 453.590079 112.931809 
L 454.256939 111.602854 
L 454.923799 109.408582 
L 455.590658 108.677358 
L 456.257518 110.054456 
L 456.924378 109.992396 
L 457.591238 109.831728 
L 458.258098 109.064488 
L 458.924958 107.076466 
L 459.591818 108.965858 
L 460.258678 94.2171 
L 460.925538 85.654398 
L 461.592398 94.192596 
L 462.259258 106.125404 
L 462.926118 110.717646 
L 463.592978 110.36677 
L 464.259838 107.338474 
L 464.926698 110.344816 
L 465.593558 111.517236 
L 466.260418 111.947582 
L 466.927278 111.65649 
L 467.594138 109.977211 
L 468.260998 110.332531 
L 468.927858 109.569564 
L 469.594717 109.10674 
L 470.261577 110.639067 
L 470.928437 110.406017 
L 471.595297 112.08923 
L 472.262157 109.390751 
L 472.929017 110.665454 
L 473.595877 112.141592 
L 474.262737 110.455171 
L 474.929597 107.712292 
L 475.596457 110.317636 
L 476.263317 111.293732 
L 476.930177 108.997119 
L 477.597037 110.136267 
L 478.263897 111.395212 
L 478.930757 112.526462 
L 479.597617 114.097661 
L 480.264477 114.649717 
L 480.931337 111.887633 
L 481.598197 110.154109 
L 482.265057 110.189967 
L 482.931917 112.661501 
L 483.598776 113.679993 
L 484.265636 112.184442 
L 484.932496 112.420027 
L 485.599356 113.281556 
L 486.266216 113.532428 
L 486.933076 114.761415 
L 487.599936 114.58641 
L 488.266796 114.797412 
L 488.933656 112.388875 
L 489.600516 114.026705 
L 490.267376 113.760826 
L 490.934236 117.423351 
L 491.601096 119.282833 
L 492.267956 117.007046 
L 492.934816 114.721138 
L 493.601676 115.561682 
L 494.268536 116.932031 
L 494.935396 117.206457 
L 495.602256 115.767496 
L 496.269116 114.049565 
L 496.935976 116.965735 
L 497.602836 116.116892 
L 498.269695 118.833291 
L 498.936555 120.202296 
L 499.603415 120.782254 
L 500.270275 120.359819 
L 500.937135 118.264466 
L 501.603995 119.419599 
L 502.270855 120.331749 
L 502.937715 122.188584 
L 503.604575 119.404816 
L 504.271435 120.443521 
L 504.938295 121.810897 
L 505.605155 122.818768 
L 506.272015 121.898049 
L 506.938875 121.909823 
L 507.605735 124.113572 
L 508.272595 124.100446 
L 508.939455 122.908266 
L 509.606315 123.735749 
L 510.273175 125.288185 
L 510.940035 123.490121 
L 511.606895 126.493728 
L 512.273754 127.943013 
L 512.940614 126.886845 
L 513.607474 127.758435 
L 514.274334 127.482211 
L 514.941194 128.895615 
L 515.608054 130.123443 
L 516.274914 131.39709 
L 516.941774 132.272658 
L 517.608634 135.119707 
L 518.275494 135.023137 
L 518.942354 133.029029 
L 519.609214 134.169959 
L 520.276074 134.020022 
L 520.942934 135.644421 
L 521.609794 135.070561 
L 522.276654 135.660092 
L 522.943514 138.587425 
L 523.610374 138.797588 
L 524.277234 132.888501 
L 524.944094 131.490664 
L 525.610954 136.137367 
L 526.277813 139.957489 
L 526.944673 141.065196 
L 527.611533 141.730094 
L 528.278393 143.361291 
L 528.945253 144.580464 
L 529.612113 144.355185 
L 530.278973 145.17071 
L 530.945833 147.17858 
L 531.612693 148.293054 
L 532.279553 148.077171 
L 532.946413 146.238016 
L 533.613273 145.261523 
L 534.280133 146.877628 
L 534.946993 151.561698 
L 535.613853 151.060628 
L 536.280713 151.588564 
L 536.947573 153.507588 
L 537.614433 157.21549 
L 538.281293 156.832006 
L 538.948153 155.844342 
L 539.615013 158.799664 
L 540.281872 159.233216 
L 540.948732 160.71244 
L 541.615592 158.765585 
L 542.282452 161.338523 
L 542.949312 162.798376 
L 543.616172 163.980614 
L 544.283032 164.610172 
L 544.949892 166.177051 
L 545.616752 157.580026 
L 546.283612 149.406546 
L 546.950472 157.880758 
L 547.617332 169.507573 
L 548.284192 171.751401 
L 548.951052 171.226566 
L 549.617912 171.549748 
L 550.284772 176.144494 
L 550.951632 177.165932 
L 551.618492 179.17517 
L 552.285352 179.364829 
L 552.952212 182.314243 
L 553.619072 179.509985 
L 554.285931 182.317201 
L 554.952791 182.442098 
L 555.619651 186.40342 
L 556.286511 185.041308 
L 556.953371 187.164436 
L 557.620231 189.136418 
L 558.287091 188.510725 
L 558.953951 189.550127 
L 559.620811 191.336913 
L 560.287671 190.999905 
L 560.954531 193.674199 
L 561.621391 193.348204 
L 562.288251 196.09623 
L 562.955111 195.636226 
L 563.621971 196.919773 
L 564.288831 196.587067 
L 564.955691 197.270992 
L 565.622551 198.408028 
L 566.289411 198.133736 
L 566.956271 199.901707 
L 567.623131 198.677725 
L 568.289991 199.801396 
L 568.95685 199.17791 
L 569.62371 199.767662 
L 570.29057 199.718306 
L 570.95743 199.878085 
L 571.62429 199.688714 
L 572.29115 199.935146 
L 572.95801 199.555943 
L 573.62487 199.714384 
L 574.29173 200.560446 
L 574.95859 199.626967 
L 575.62545 199.768218 
L 576.29231 199.903392 
L 576.95917 199.745972 
L 577.62603 199.025479 
L 578.29289 200.142568 
L 578.95975 199.67484 
L 579.62661 199.954839 
L 580.29347 200.274489 
L 580.96033 199.672077 
L 581.62719 199.911009 
L 582.29405 199.954792 
L 582.960909 200.356323 
L 583.627769 200.044488 
L 584.294629 200.338941 
L 584.961489 200.110975 
L 585.628349 200.054658 
L 586.295209 200.58193 
L 586.962069 200.718899 
L 587.628929 200.427502 
L 588.295789 200.236819 
L 588.962649 200.858437 
L 589.629509 200.445861 
L 590.296369 200.802823 
L 590.963229 200.428405 
L 591.630089 200.900361 
L 592.296949 200.707845 
L 592.963809 200.857663 
L 593.630669 200.887573 
L 594.297529 200.775837 
L 594.964389 201.129287 
L 595.631249 200.765379 
L 596.298109 200.975931 
L 596.964968 200.891516 
L 597.631828 201.189717 
L 598.298688 200.76134 
L 598.965548 201.319304 
L 599.632408 200.941664 
L 600.299268 201.232609 
L 600.966128 201.044659 
L 601.632988 201.138835 
L 602.299848 201.219688 
L 602.966708 201.165763 
L 603.633568 201.247852 
L 604.300428 201.185234 
L 604.967288 201.353873 
L 605.634148 201.236655 
L 606.301008 201.392296 
L 606.967868 201.182642 
L 607.634728 201.521122 
L 608.301588 201.263448 
L 608.968448 201.441612 
L 609.635308 201.414776 
L 610.302168 201.371299 
L 610.969027 201.422625 
L 611.635887 201.562201 
L 612.302747 201.48091 
L 612.969607 201.447523 
L 613.636467 201.599353 
L 614.303327 201.450664 
L 614.970187 201.774603 
L 615.637047 201.397144 
L 616.303907 201.741422 
L 616.970767 201.438867 
L 617.637627 201.779982 
L 618.304487 201.581017 
L 618.971347 201.724496 
L 619.638207 201.585435 
L 620.305067 201.738877 
L 620.971927 201.767543 
L 621.638787 201.74843 
L 622.305647 201.812661 
L 622.972507 201.659918 
L 623.639367 201.901978 
L 624.306227 201.782301 
L 624.973087 201.874816 
L 625.639946 201.853152 
L 626.306806 201.843404 
L 626.973666 201.915641 
L 627.640526 201.8856 
L 628.307386 201.933192 
L 628.974246 201.928362 
L 629.641106 201.956899 
L 630.307966 201.961633 
L 630.974826 202.007344 
L 631.641686 201.936448 
L 632.308546 202.025596 
L 632.975406 202.063318 
L 633.642266 201.945217 
L 634.309126 202.166487 
L 634.975986 201.957646 
L 635.642846 202.148424 
L 636.309706 201.994107 
L 636.976566 202.270619 
L 637.643426 201.961564 
L 638.310286 202.237197 
L 638.977146 202.060275 
L 639.644005 202.040675 
L 640.310865 202.160957 
L 640.977725 202.22628 
L 641.644585 202.254898 
L 642.311445 201.874783 
L 642.978305 202.459163 
L 643.645165 202.011482 
L 644.312025 202.535564 
L 644.978885 201.878144 
L 645.645745 202.362742 
L 646.312605 202.455543 
L 646.979465 202.075985 
L 647.646325 202.426845 
L 648.313185 202.134105 
L 648.980045 202.476188 
L 649.646905 202.148466 
L 650.313765 202.414876 
L 650.980625 202.356396 
L 651.647485 202.244925 
L 652.314345 202.555267 
L 652.981205 202.246811 
L 653.648064 202.316842 
L 654.314924 202.362748 
L 654.981784 202.558698 
L 655.648644 202.352842 
L 656.315504 202.413512 
L 656.982364 202.506194 
L 657.649224 202.464405 
L 658.316084 202.384334 
L 658.982944 202.485853 
L 659.649804 202.54449 
L 660.316664 202.45445 
L 660.983524 202.561061 
L 661.650384 202.493249 
L 662.317244 202.545596 
L 662.984104 202.543371 
L 663.650964 202.551259 
L 664.317824 202.555477 
L 664.984684 202.581543 
L 665.651544 202.557962 
L 666.318404 202.579232 
L 666.985264 202.61883 
L 667.652123 202.587923 
L 668.318983 202.581765 
L 668.985843 202.613183 
L 669.652703 202.564853 
L 670.319563 202.725471 
L 670.986423 202.58608 
L 671.653283 202.651654 
L 672.320143 202.625813 
L 672.987003 202.638225 
L 673.653863 202.736703 
L 674.320723 202.604953 
L 674.987583 202.698476 
L 675.654443 202.609046 
L 676.321303 202.671249 
L 676.988163 202.668491 
L 677.655023 202.806366 
L 678.321883 202.59301 
L 678.988743 202.575954 
L 679.655603 202.823635 
L 680.322463 202.711374 
L 680.989323 202.614397 
L 681.656182 202.978637 
L 682.323042 202.556817 
L 682.989902 202.874751 
L 683.656762 202.571564 
L 684.323622 202.737168 
L 684.990482 202.777368 
L 685.657342 202.865463 
L 686.324202 202.631848 
L 686.991062 202.86009 
L 687.657922 202.710085 
L 688.324782 202.837057 
L 688.991642 202.844513 
L 689.658502 202.749685 
L 690.325362 202.824431 
L 690.992222 202.775085 
L 691.659082 202.815275 
L 692.325942 202.823716 
L 692.992802 202.781107 
L 693.659662 202.830276 
L 694.326522 202.833389 
L 694.993382 202.830513 
L 695.660242 202.835884 
L 696.327101 202.873625 
L 696.993961 202.818592 
L 697.660821 202.848119 
L 698.327681 202.851621 
L 698.994541 202.855025 
L 699.661401 202.849887 
L 700.328261 202.864728 
L 700.995121 202.855565 
L 701.661981 202.866411 
L 702.328841 202.869559 
L 702.995701 202.850724 
L 703.662561 202.893395 
L 704.329421 202.827195 
L 704.996281 202.92781 
L 705.663141 202.80555 
L 706.330001 202.91911 
L 706.996861 202.812444 
L 707.663721 202.870183 
L 708.330581 202.921744 
L 708.997441 202.862765 
L 709.664301 202.823724 
L 710.33116 202.987305 
L 710.99802 202.717182 
L 711.66488 202.989826 
L 712.33174 202.861139 
L 712.9986 202.843272 
L 713.66546 202.912494 
L 714.33232 202.817754 
L 714.99918 202.891953 
L 715.66604 202.879737 
L 716.3329 202.947261 
L 716.99976 209.528731 
L 716.99976 193.517108 
L 716.99976 193.517108 
L 716.3329 186.743543 
L 715.66604 186.818232 
L 714.99918 186.795607 
L 714.33232 186.692236 
L 713.66546 186.836923 
L 712.9986 186.79434 
L 712.33174 186.739559 
L 711.66488 186.865466 
L 710.99802 186.698017 
L 710.33116 186.809245 
L 709.664301 186.84269 
L 708.997441 186.746792 
L 708.330581 186.802819 
L 707.663721 186.772637 
L 706.996861 186.769145 
L 706.330001 186.819052 
L 705.663141 186.738479 
L 704.996281 186.847777 
L 704.329421 186.722964 
L 703.662561 186.81435 
L 702.995701 186.755674 
L 702.328841 186.775934 
L 701.661981 186.779502 
L 700.995121 186.742303 
L 700.328261 186.78207 
L 699.661401 186.750683 
L 698.994541 186.751456 
L 698.327681 186.751898 
L 697.660821 186.74559 
L 696.993961 186.745393 
L 696.327101 186.757014 
L 695.660242 186.662841 
L 694.993382 186.830313 
L 694.326522 186.653707 
L 693.659662 186.71805 
L 692.992802 186.723974 
L 692.325942 186.681325 
L 691.659082 186.749022 
L 690.992222 186.590622 
L 690.325362 186.779879 
L 689.658502 186.542061 
L 688.991642 186.784864 
L 688.324782 186.620319 
L 687.657922 186.643912 
L 686.991062 186.648074 
L 686.324202 186.622778 
L 685.657342 186.718253 
L 684.990482 186.527104 
L 684.323622 186.629686 
L 683.656762 186.580105 
L 682.989902 186.669246 
L 682.323042 186.498682 
L 681.656182 186.633356 
L 680.989323 186.473039 
L 680.322463 186.724988 
L 679.655603 186.551876 
L 678.988743 186.469257 
L 678.321883 186.599023 
L 677.655023 186.573405 
L 676.988163 186.520276 
L 676.321303 186.519477 
L 675.654443 186.430273 
L 674.987583 186.616408 
L 674.320723 186.42453 
L 673.653863 186.457218 
L 672.987003 186.602321 
L 672.320143 186.379938 
L 671.653283 186.404184 
L 670.986423 186.47302 
L 670.319563 186.461912 
L 669.652703 186.450079 
L 668.985843 186.381023 
L 668.318983 186.433874 
L 667.652123 186.38621 
L 666.985264 186.410745 
L 666.318404 186.375061 
L 665.651544 186.38424 
L 664.984684 186.348463 
L 664.317824 186.354628 
L 663.650964 186.335805 
L 662.984104 186.342115 
L 662.317244 186.260366 
L 661.650384 186.364068 
L 660.983524 186.25367 
L 660.316664 186.24344 
L 659.649804 186.289485 
L 658.982944 186.244663 
L 658.316084 186.210768 
L 657.649224 186.160701 
L 656.982364 186.178307 
L 656.315504 186.245606 
L 655.648644 186.092058 
L 654.981784 186.233056 
L 654.314924 186.122723 
L 653.648064 186.156143 
L 652.981205 185.967289 
L 652.314345 186.116203 
L 651.647485 186.063306 
L 650.980625 186.208131 
L 650.313765 185.82012 
L 649.646905 186.184043 
L 648.980045 185.948231 
L 648.313185 185.920224 
L 647.646325 186.025528 
L 646.979465 185.904201 
L 646.312605 186.151827 
L 645.645745 185.642675 
L 644.978885 185.914322 
L 644.312025 185.999402 
L 643.645165 185.768023 
L 642.978305 185.881703 
L 642.311445 185.733728 
L 641.644585 185.941806 
L 640.977725 185.730237 
L 640.310865 185.794267 
L 639.644005 185.782733 
L 638.977146 185.856499 
L 638.310286 185.612247 
L 637.643426 185.752954 
L 636.976566 185.693533 
L 636.309706 185.717465 
L 635.642846 185.619817 
L 634.975986 185.676413 
L 634.309126 185.614714 
L 633.642266 185.628618 
L 632.975406 185.569348 
L 632.308546 185.568182 
L 631.641686 185.590307 
L 630.974826 185.518309 
L 630.307966 185.501463 
L 629.641106 185.493461 
L 628.974246 185.465102 
L 628.307386 185.430958 
L 627.640526 185.434008 
L 626.973666 185.391869 
L 626.306806 185.397634 
L 625.639946 185.303552 
L 624.973087 185.370939 
L 624.306227 185.250565 
L 623.639367 185.341618 
L 622.972507 185.188243 
L 622.305647 185.290158 
L 621.638787 185.175952 
L 620.971927 185.21336 
L 620.305067 185.108065 
L 619.638207 185.137545 
L 618.971347 185.011804 
L 618.304487 185.163932 
L 617.637627 185.036994 
L 616.970767 184.970796 
L 616.303907 185.057796 
L 615.637047 184.862988 
L 614.970187 185.054797 
L 614.303327 184.73893 
L 613.636467 185.10165 
L 612.969607 184.698641 
L 612.302747 184.915966 
L 611.635887 184.68813 
L 610.969027 184.802577 
L 610.302168 184.843598 
L 609.635308 184.557007 
L 608.968448 184.810486 
L 608.301588 184.572244 
L 607.634728 184.63462 
L 606.967868 184.550293 
L 606.301008 184.611985 
L 605.634148 184.463937 
L 604.967288 184.525197 
L 604.300428 184.496979 
L 603.633568 184.394104 
L 602.966708 184.346574 
L 602.299848 184.488981 
L 601.632988 184.254522 
L 600.966128 184.29703 
L 600.299268 184.241266 
L 599.632408 184.190287 
L 598.965548 184.317146 
L 598.298688 183.962786 
L 597.631828 184.283823 
L 596.964968 183.932598 
L 596.298109 184.01706 
L 595.631249 184.058499 
L 594.964389 183.936281 
L 594.297529 183.944989 
L 593.630669 183.703231 
L 592.963809 184.010786 
L 592.296949 183.44909 
L 591.630089 183.985252 
L 590.963229 183.554864 
L 590.296369 183.355708 
L 589.629509 183.771496 
L 588.962649 183.202359 
L 588.295789 183.479015 
L 587.628929 183.303211 
L 586.962069 183.373551 
L 586.295209 183.208304 
L 585.628349 183.109075 
L 584.961489 183.312937 
L 584.294629 182.456888 
L 583.627769 183.503343 
L 582.960909 182.417744 
L 582.29405 183.4604 
L 581.62719 182.013284 
L 580.96033 182.799649 
L 580.29347 182.484067 
L 579.62661 183.003453 
L 578.95975 181.637299 
L 578.29289 182.967865 
L 577.62603 182.376992 
L 576.95917 182.516336 
L 576.29231 181.648328 
L 575.62545 182.552151 
L 574.95859 182.147337 
L 574.29173 182.493326 
L 573.62487 182.30881 
L 572.95801 181.767202 
L 572.29115 182.578729 
L 571.62429 182.128547 
L 570.95743 182.214758 
L 570.29057 182.199983 
L 569.62371 181.991251 
L 568.95685 181.964446 
L 568.289991 181.803402 
L 567.623131 180.872083 
L 566.956271 181.228982 
L 566.289411 181.42801 
L 565.622551 179.650065 
L 564.955691 177.605855 
L 564.288831 179.063417 
L 563.621971 175.421902 
L 562.955111 177.558427 
L 562.288251 175.266559 
L 561.621391 175.603282 
L 560.954531 172.412018 
L 560.287671 171.174437 
L 559.620811 169.744499 
L 558.953951 166.30369 
L 558.287091 166.203429 
L 557.620231 163.622212 
L 556.953371 161.211063 
L 556.286511 160.457087 
L 555.619651 158.500589 
L 554.952791 158.73949 
L 554.285931 156.09962 
L 553.619072 152.985148 
L 552.952212 153.407974 
L 552.285352 150.11127 
L 551.618492 151.308569 
L 550.951632 151.864044 
L 550.284772 150.662531 
L 549.617912 144.251814 
L 548.951052 144.013357 
L 548.284192 143.418078 
L 547.617332 143.214862 
L 546.950472 140.342807 
L 546.283612 132.204195 
L 545.616752 138.399227 
L 544.949892 140.02068 
L 544.283032 138.482262 
L 543.616172 136.426158 
L 542.949312 132.244595 
L 542.282452 129.989784 
L 541.615592 129.870626 
L 540.948732 130.554103 
L 540.281872 131.622576 
L 539.615013 129.249914 
L 538.948153 129.090486 
L 538.281293 130.259102 
L 537.614433 129.160612 
L 536.947573 127.841052 
L 536.280713 125.011532 
L 535.613853 128.143589 
L 534.946993 125.708229 
L 534.280133 122.235351 
L 533.613273 122.464287 
L 532.946413 121.84952 
L 532.279553 116.442566 
L 531.612693 116.191796 
L 530.945833 117.224336 
L 530.278973 114.248151 
L 529.612113 117.582312 
L 528.945253 117.7229 
L 528.278393 113.812978 
L 527.611533 114.927353 
L 526.944673 113.801144 
L 526.277813 113.763579 
L 525.610954 109.357291 
L 524.944094 105.041702 
L 524.277234 106.170801 
L 523.610374 110.29733 
L 522.943514 107.966442 
L 522.276654 107.856187 
L 521.609794 108.065903 
L 520.942934 105.844913 
L 520.276074 104.000646 
L 519.609214 101.896105 
L 518.942354 101.387963 
L 518.275494 102.051951 
L 517.608634 101.946562 
L 516.941774 100.417011 
L 516.274914 101.517557 
L 515.608054 105.213414 
L 514.941194 105.321805 
L 514.274334 102.879977 
L 513.607474 100.773265 
L 512.940614 100.111607 
L 512.273754 99.818091 
L 511.606895 96.67139 
L 510.940035 96.322467 
L 510.273175 98.297944 
L 509.606315 95.965344 
L 508.939455 94.856174 
L 508.272595 96.446171 
L 507.605735 96.296564 
L 506.938875 95.252881 
L 506.272015 96.031876 
L 505.605155 91.573837 
L 504.938295 89.157671 
L 504.271435 88.3659 
L 503.604575 91.230693 
L 502.937715 92.577573 
L 502.270855 92.019526 
L 501.603995 93.021885 
L 500.937135 90.818229 
L 500.270275 90.908164 
L 499.603415 89.453992 
L 498.936555 87.77491 
L 498.269695 89.649179 
L 497.602836 92.657944 
L 496.935976 91.699255 
L 496.269116 91.338104 
L 495.602256 88.395298 
L 494.935396 89.354889 
L 494.268536 92.058244 
L 493.601676 92.147627 
L 492.934816 87.520567 
L 492.267956 86.096899 
L 491.601096 87.43814 
L 490.934236 87.478246 
L 490.267376 85.73883 
L 489.600516 87.116439 
L 488.933656 86.546175 
L 488.266796 88.038847 
L 487.599936 88.268222 
L 486.933076 85.945419 
L 486.266216 83.831944 
L 485.599356 84.076439 
L 484.932496 84.158467 
L 484.265636 80.129848 
L 483.598776 83.689025 
L 482.931917 85.571124 
L 482.265057 83.630253 
L 481.598197 83.940906 
L 480.931337 82.711928 
L 480.264477 81.618697 
L 479.597617 80.00772 
L 478.930757 79.888954 
L 478.263897 82.289671 
L 477.597037 84.135416 
L 476.930177 82.066916 
L 476.263317 79.195307 
L 475.596457 76.618258 
L 474.929597 78.983946 
L 474.262737 80.224514 
L 473.595877 82.675404 
L 472.929017 80.292207 
L 472.262157 78.507415 
L 471.595297 78.885185 
L 470.928437 78.624887 
L 470.261577 80.005339 
L 469.594717 81.066674 
L 468.927858 79.594929 
L 468.260998 78.925236 
L 467.594138 78.900015 
L 466.927278 77.907887 
L 466.260418 76.693002 
L 465.593558 75.89174 
L 464.926698 77.135418 
L 464.259838 77.177536 
L 463.592978 76.526447 
L 462.926118 77.757676 
L 462.259258 77.564477 
L 461.592398 74.401447 
L 460.925538 68.386386 
L 460.258678 75.656647 
L 459.591818 79.937319 
L 458.924958 80.430066 
L 458.258098 78.375254 
L 457.591238 79.108587 
L 456.924378 81.409471 
L 456.257518 81.142055 
L 455.590658 77.393375 
L 454.923799 77.565596 
L 454.256939 81.15571 
L 453.590079 80.256977 
L 452.923219 79.684325 
L 452.256359 82.428131 
L 451.589499 83.62418 
L 450.922639 84.640741 
L 450.255779 80.254062 
L 449.588919 78.284318 
L 448.922059 80.702062 
L 448.255199 79.738214 
L 447.588339 77.839584 
L 446.921479 77.461367 
L 446.254619 78.434892 
L 445.587759 80.597118 
L 444.920899 83.31422 
L 444.254039 83.729821 
L 443.587179 79.862988 
L 442.920319 78.630922 
L 442.253459 83.204506 
L 441.586599 82.835108 
L 440.91974 81.305061 
L 440.25288 74.145612 
L 439.58602 59.181378 
L 438.91916 65.716824 
L 438.2523 81.044578 
L 437.58544 80.725028 
L 436.91858 81.884591 
L 436.25172 84.713042 
L 435.58486 84.173761 
L 434.918 82.243291 
L 434.25114 81.900017 
L 433.58428 81.507171 
L 432.91742 81.163508 
L 432.25056 79.053878 
L 431.5837 78.827677 
L 430.91684 77.912948 
L 430.24998 79.548453 
L 429.58312 81.486267 
L 428.91626 82.065699 
L 428.2494 83.93547 
L 427.58254 84.891905 
L 426.91568 84.360497 
L 426.248821 83.347617 
L 425.581961 83.9671 
L 424.915101 83.109624 
L 424.248241 85.334052 
L 423.581381 84.417221 
L 422.914521 84.875656 
L 422.247661 81.599037 
L 421.580801 81.353621 
L 420.913941 82.480479 
L 420.247081 86.695384 
L 419.580221 87.1056 
L 418.913361 86.301012 
L 418.246501 88.817286 
L 417.579641 85.572636 
L 416.912781 83.986326 
L 416.245921 86.154483 
L 415.579061 85.138202 
L 414.912201 84.900807 
L 414.245341 88.630848 
L 413.578481 86.126706 
L 412.911621 86.307332 
L 412.244762 86.257096 
L 411.577902 84.396758 
L 410.911042 84.952151 
L 410.244182 85.332755 
L 409.577322 85.978845 
L 408.910462 86.410508 
L 408.243602 85.478628 
L 407.576742 87.834906 
L 406.909882 88.4179 
L 406.243022 88.874494 
L 405.576162 90.747561 
L 404.909302 90.469407 
L 404.242442 90.798987 
L 403.575582 90.823552 
L 402.908722 90.759145 
L 402.241862 90.811362 
L 401.575002 88.903711 
L 400.908142 91.793607 
L 400.241282 94.697668 
L 399.574422 94.568685 
L 398.907562 95.831997 
L 398.240703 96.224506 
L 397.573843 93.84312 
L 396.906983 93.022555 
L 396.240123 94.28295 
L 395.573263 94.984815 
L 394.906403 96.714688 
L 394.239543 95.337785 
L 393.572683 95.890395 
L 392.905823 99.743912 
L 392.238963 99.116945 
L 391.572103 98.904721 
L 390.905243 97.510857 
L 390.238383 96.918582 
L 389.571523 98.024599 
L 388.904663 101.226223 
L 388.237803 102.123874 
L 387.570943 102.044983 
L 386.904083 103.311347 
L 386.237223 101.679611 
L 385.570363 97.46524 
L 384.903503 95.407749 
L 384.236644 95.496057 
L 383.569784 97.142538 
L 382.902924 97.948519 
L 382.236064 100.458198 
L 381.569204 101.497643 
L 380.902344 105.335237 
L 380.235484 105.802503 
L 379.568624 104.167058 
L 378.901764 103.797076 
L 378.234904 105.712658 
L 377.568044 108.097387 
L 376.901184 108.627988 
L 376.234324 104.185006 
L 375.567464 94.844513 
L 374.900604 101.750286 
L 374.233744 105.343963 
L 373.566884 106.465783 
L 372.900024 106.690589 
L 372.233164 109.041183 
L 371.566304 110.337229 
L 370.899444 108.619713 
L 370.232585 109.304159 
L 369.565725 113.756542 
L 368.898865 115.171496 
L 368.232005 115.9891 
L 367.565145 116.944438 
L 366.898285 116.998506 
L 366.231425 115.412426 
L 365.564565 115.240384 
L 364.897705 117.240544 
L 364.230845 118.750459 
L 363.563985 116.028043 
L 362.897125 116.846856 
L 362.230265 120.157851 
L 361.563405 119.266562 
L 360.896545 117.856415 
L 360.229685 118.100167 
L 359.562825 120.355944 
L 358.895965 119.986875 
L 358.229105 121.849123 
L 357.562245 124.209406 
L 356.895385 125.831844 
L 356.228525 131.909587 
L 355.561666 151.784433 
L 354.894806 170.519315 
L 354.227946 171.188172 
L 353.561086 170.801484 
L 352.894226 151.394123 
L 352.227366 130.321475 
L 351.560506 121.113305 
L 350.893646 118.151434 
L 350.226786 115.516953 
L 349.559926 115.16745 
L 348.893066 118.04179 
L 348.226206 115.859024 
L 347.559346 115.397454 
L 346.892486 117.11846 
L 346.225626 118.140372 
L 345.558766 116.470203 
L 344.891906 115.390901 
L 344.225046 112.902193 
L 343.558186 111.410044 
L 342.891326 112.952831 
L 342.224466 112.331212 
L 341.557607 110.124362 
L 340.890747 113.530571 
L 340.223887 112.60311 
L 339.557027 108.825108 
L 338.890167 108.939745 
L 338.223307 108.488593 
L 337.556447 110.20941 
L 336.889587 106.154016 
L 336.222727 105.636881 
L 335.555867 104.466623 
L 334.889007 103.505058 
L 334.222147 104.472828 
L 333.555287 103.466586 
L 332.888427 102.858662 
L 332.221567 102.636596 
L 331.554707 104.234459 
L 330.887847 104.541058 
L 330.220987 100.824451 
L 329.554127 98.818937 
L 328.887267 101.583355 
L 328.220407 101.077108 
L 327.553548 96.996799 
L 326.886688 96.776064 
L 326.219828 97.34111 
L 325.552968 95.941077 
L 324.886108 96.750835 
L 324.219248 97.39841 
L 323.552388 93.494597 
L 322.885528 91.789619 
L 322.218668 91.150424 
L 321.551808 93.150987 
L 320.884948 96.719163 
L 320.218088 94.302016 
L 319.551228 92.380981 
L 318.884368 91.492915 
L 318.217508 91.156955 
L 317.550648 88.443029 
L 316.883788 88.724715 
L 316.216928 89.745492 
L 315.550068 86.364487 
L 314.883208 87.481147 
L 314.216348 88.711104 
L 313.549489 86.861904 
L 312.882629 86.640784 
L 312.215769 88.249875 
L 311.548909 87.777265 
L 310.882049 85.871499 
L 310.215189 84.49712 
L 309.548329 82.671727 
L 308.881469 83.570448 
L 308.214609 83.304966 
L 307.547749 86.468071 
L 306.880889 82.920063 
L 306.214029 82.742767 
L 305.547169 84.468737 
L 304.880309 84.004076 
L 304.213449 83.441106 
L 303.546589 81.955861 
L 302.879729 82.805918 
L 302.212869 81.416765 
L 301.546009 82.7035 
L 300.879149 82.881531 
L 300.212289 80.418562 
L 299.545429 79.873364 
L 298.87857 78.074347 
L 298.21171 78.634549 
L 297.54485 77.43769 
L 296.87799 78.385915 
L 296.21113 77.133471 
L 295.54427 76.001868 
L 294.87741 77.324667 
L 294.21055 76.167252 
L 293.54369 76.303775 
L 292.87683 74.669962 
L 292.20997 72.471604 
L 291.54311 70.047306 
L 290.87625 66.705845 
L 290.20939 57.459168 
L 289.54253 68.473652 
L 288.87567 71.243681 
L 288.20881 72.596417 
L 287.54195 72.516074 
L 286.87509 73.026243 
L 286.20823 73.040295 
L 285.54137 71.783683 
L 284.874511 70.698747 
L 284.207651 71.40586 
L 283.540791 72.678946 
L 282.873931 75.451739 
L 282.207071 76.971863 
L 281.540211 76.646738 
L 280.873351 75.237632 
L 280.206491 74.500093 
L 279.539631 73.827619 
L 278.872771 71.80117 
L 278.205911 69.512124 
L 277.539051 70.278835 
L 276.872191 70.57945 
L 276.205331 71.877411 
L 275.538471 67.859331 
L 274.871611 66.17931 
L 274.204751 66.327574 
L 273.537891 68.409829 
L 272.871031 67.476938 
L 272.204171 68.141861 
L 271.537311 71.230723 
L 270.870452 70.674929 
L 270.203592 69.403248 
L 269.536732 63.665121 
L 268.869872 62.593807 
L 268.203012 68.420073 
L 267.536152 67.374454 
L 266.869292 67.719311 
L 266.202432 69.531346 
L 265.535572 70.663244 
L 264.868712 71.170719 
L 264.201852 69.347037 
L 263.534992 67.897062 
L 262.868132 67.099766 
L 262.201272 67.490034 
L 261.534412 68.231891 
L 260.867552 66.233372 
L 260.200692 66.733921 
L 259.533832 66.340405 
L 258.866972 65.265265 
L 258.200112 66.620362 
L 257.533252 65.273568 
L 256.866393 63.703571 
L 256.199533 62.27069 
L 255.532673 63.920146 
L 254.865813 62.727192 
L 254.198953 64.99109 
L 253.532093 69.358649 
L 252.865233 66.93503 
L 252.198373 65.168265 
L 251.531513 63.549057 
L 250.864653 60.285158 
L 250.197793 64.236881 
L 249.530933 66.060174 
L 248.864073 65.258726 
L 248.197213 62.418289 
L 247.530353 62.979365 
L 246.863493 63.260162 
L 246.196633 67.913125 
L 245.529773 64.310392 
L 244.862913 61.391652 
L 244.196053 61.613113 
L 243.529193 62.051163 
L 242.862334 60.763221 
L 242.195474 60.725515 
L 241.528614 63.822781 
L 240.861754 63.733503 
L 240.194894 64.230143 
L 239.528034 62.512046 
L 238.861174 62.185488 
L 238.194314 60.725068 
L 237.527454 62.348748 
L 236.860594 61.532145 
L 236.193734 61.474004 
L 235.526874 62.88788 
L 234.860014 64.426935 
L 234.193154 62.959449 
L 233.526294 60.624332 
L 232.859434 60.778861 
L 232.192574 61.769145 
L 231.525714 60.771631 
L 230.858854 61.307393 
L 230.191994 62.589931 
L 229.525134 63.630486 
L 228.858274 63.854048 
L 228.191415 66.703109 
L 227.524555 64.211787 
L 226.857695 63.182591 
L 226.190835 61.975094 
L 225.523975 63.248485 
L 224.857115 64.63897 
L 224.190255 62.009547 
L 223.523395 61.370962 
L 222.856535 63.043058 
L 222.189675 61.621943 
L 221.522815 61.027423 
L 220.855955 61.146032 
L 220.189095 63.246228 
L 219.522235 62.243636 
L 218.855375 60.461737 
L 218.188515 61.735373 
L 217.521655 62.939036 
L 216.854795 64.297831 
L 216.187935 63.217091 
L 215.521075 61.64389 
L 214.854215 59.688597 
L 214.187356 60.626931 
L 213.520496 61.762402 
L 212.853636 59.943917 
L 212.186776 58.906485 
L 211.519916 57.584246 
L 210.853056 59.378708 
L 210.186196 61.90216 
L 209.519336 62.635611 
L 208.852476 63.311884 
L 208.185616 64.52184 
L 207.518756 61.581399 
L 206.851896 60.0082 
L 206.185036 61.667523 
L 205.518176 53.523822 
L 204.851316 43.425041 
L 204.184456 56.382618 
L 203.517596 62.571946 
L 202.850736 61.833436 
L 202.183876 63.119483 
L 201.517016 62.197593 
L 200.850156 62.984613 
L 200.183297 61.709389 
L 199.516437 62.832481 
L 198.849577 61.312461 
L 198.182717 61.574893 
L 197.515857 63.275675 
L 196.848997 61.021474 
L 196.182137 59.752986 
L 195.515277 58.547647 
L 194.848417 61.349294 
L 194.181557 59.011558 
L 193.514697 58.93543 
L 192.847837 61.166819 
L 192.180977 60.812796 
L 191.514117 59.616637 
L 190.847257 60.208295 
L 190.180397 62.10943 
L 189.513537 61.87828 
L 188.846677 61.384876 
L 188.179817 63.554551 
L 187.512957 62.905364 
L 186.846097 60.740185 
L 186.179238 59.255071 
L 185.512378 60.233935 
L 184.845518 61.012399 
L 184.178658 60.094988 
L 183.511798 59.686368 
L 182.844938 58.603703 
L 182.178078 58.541522 
L 181.511218 60.127797 
L 180.844358 62.25702 
L 180.177498 65.594027 
L 179.510638 64.699169 
L 178.843778 64.870596 
L 178.176918 60.736434 
L 177.510058 60.226878 
L 176.843198 61.143704 
L 176.176338 61.189884 
L 175.509478 62.214797 
L 174.842618 63.09208 
L 174.175758 62.797809 
L 173.508898 61.889861 
L 172.842038 64.390141 
L 172.175178 67.524662 
L 171.508319 62.395381 
L 170.841459 61.186212 
L 170.174599 62.375522 
L 169.507739 61.906695 
L 168.840879 60.020318 
L 168.174019 62.043886 
L 167.507159 61.728248 
L 166.840299 63.417033 
L 166.173439 62.440417 
L 165.506579 63.936569 
L 164.839719 65.579047 
L 164.172859 66.069668 
L 163.505999 63.498039 
L 162.839139 60.539239 
L 162.172279 61.635093 
L 161.505419 64.532452 
L 160.838559 68.10895 
L 160.171699 64.810109 
L 159.504839 67.107737 
L 158.837979 66.568392 
L 158.171119 65.383504 
L 157.50426 64.148054 
L 156.8374 64.719819 
L 156.17054 63.897524 
L 155.50368 65.072612 
L 154.83682 64.903647 
L 154.16996 65.303405 
L 153.5031 64.585461 
L 152.83624 65.749824 
L 152.16938 65.40389 
L 151.50252 62.443797 
L 150.83566 60.177174 
L 150.1688 61.214765 
L 149.50194 65.798241 
L 148.83508 66.341001 
L 148.16822 65.652681 
L 147.50136 62.96774 
L 146.8345 59.867099 
L 146.16764 60.405984 
L 145.50078 63.040549 
L 144.83392 65.717113 
L 144.16706 65.13133 
L 143.500201 64.00814 
L 142.833341 65.107316 
L 142.166481 65.094068 
L 141.499621 65.190314 
L 140.832761 64.600582 
L 140.165901 63.697215 
L 139.499041 63.723201 
L 138.832181 63.414387 
L 138.165321 65.507547 
L 137.498461 65.039131 
L 136.831601 63.346011 
L 136.164741 62.086568 
L 135.497881 63.177322 
L 134.831021 61.671849 
L 134.164161 62.544873 
L 133.497301 66.019036 
L 132.830441 62.447738 
L 132.163581 63.573093 
L 131.496721 63.387692 
L 130.829861 65.349037 
L 130.163001 65.497368 
L 129.496142 66.005651 
L 128.829282 64.133371 
L 128.162422 64.292493 
L 127.495562 63.371783 
L 126.828702 64.245479 
L 126.161842 65.1026 
L 125.494982 65.12085 
L 124.828122 65.974091 
L 124.161262 65.737368 
L 123.494402 62.334721 
L 122.827542 61.59965 
L 122.160682 63.16669 
L 121.493822 63.107505 
L 120.826962 64.289828 
L 120.160102 56.479677 
L 119.493242 42.946341 
L 118.826382 56.018659 
L 118.159522 66.447303 
L 117.492662 66.885309 
L 116.825802 63.271001 
L 116.158942 63.417068 
L 115.492083 64.997776 
L 114.825223 67.911349 
L 114.158363 63.680889 
L 113.491503 63.347748 
L 112.824643 64.396572 
L 112.157783 63.802837 
L 111.490923 66.60462 
L 110.824063 66.28211 
L 110.157203 64.900632 
L 109.490343 63.582648 
L 108.823483 63.462793 
L 108.156623 62.616134 
L 107.489763 62.389175 
L 106.822903 62.462059 
L 106.156043 65.140578 
L 105.489183 66.614682 
L 104.822323 68.873256 
L 104.155463 67.055406 
L 103.488603 63.700053 
L 102.821743 63.492572 
L 102.154883 63.999919 
L 101.488023 64.827971 
L 100.821164 63.078527 
L 100.154304 64.393205 
L 99.487444 64.320679 
L 98.820584 62.317998 
L 98.153724 61.670469 
L 97.486864 63.057629 
L 96.820004 64.286807 
L 96.153144 65.690599 
L 95.486284 64.433721 
L 94.819424 60.931254 
L 94.152564 61.335921 
L 93.485704 61.230181 
L 92.818844 62.161156 
L 92.151984 62.96214 
L 91.485124 61.51093 
L 90.818264 62.303696 
L 90.151404 64.53857 
L 89.484544 61.231405 
L 88.817684 61.271424 
L 88.150824 64.167684 
L 87.483964 62.90779 
L 86.817105 60.877444 
L 86.150245 59.386176 
L 85.483385 61.253702 
L 84.816525 61.771865 
L 84.149665 60.835525 
L 83.482805 57.434385 
L 82.815945 56.286859 
L 82.149085 57.104777 
L 81.482225 54.34177 
L 80.815365 55.77447 
L 80.148505 55.2942 
L 79.481645 55.405886 
L 78.814785 55.174285 
L 78.147925 55.634568 
L 77.481065 54.708555 
L 76.814205 53.918292 
L 76.147345 52.452535 
L 75.480485 50.499417 
L 74.813625 50.537895 
L 74.146765 52.191294 
L 73.479905 52.558507 
L 72.813046 50.765338 
L 72.146186 51.743993 
L 71.479326 53.098217 
L 70.812466 46.568103 
L 70.145606 47.354082 
L 69.478746 48.88239 
L 68.811886 49.011547 
L 68.145026 50.151159 
L 67.478166 48.794436 
L 66.811306 49.832573 
L 66.144446 48.437341 
L 65.477586 46.875115 
L 64.810726 46.468447 
L 64.143866 45.243443 
L 63.477006 44.39127 
L 62.810146 41.051909 
L 62.143286 41.543643 
L 61.476426 42.182667 
L 60.809566 43.382759 
L 60.142706 41.373868 
L 59.475846 40.191257 
L 58.808987 43.230253 
L 58.142127 39.993746 
L 57.475267 39.886876 
L 56.808407 39.023692 
L 56.141547 39.802973 
L 55.474687 35.662959 
L 54.807827 34.22215 
L 54.140967 35.993344 
L 53.474107 36.200491 
L 52.807247 35.379479 
L 52.140387 31.052804 
L 51.473527 36.515626 
L 50.806667 32.6371 
L 50.139807 29.46721 
L 49.472947 35.74923 
L 48.806087 30.626031 
L 48.139227 29.65207 
L 47.472367 33.84492 
L 46.805507 34.169074 
L 46.138647 28.721166 
L 45.471787 27.233144 
L 44.804928 29.039597 
z
" clip-path="url(#pc5f9ca8eec)" style="fill-opacity: 0.33"/>
   </g>
   <g id="matplotlib.axis_1">
    <g id="xtick_1">
     <g id="line2d_1">
      <path d="M 140.832761 218.64351 
L 140.832761 18.118365 
" clip-path="url(#pc5f9ca8eec)" style="fill: none; stroke-dasharray: 0.8,1.32; stroke-dashoffset: 0; stroke: #b0b0b0; stroke-width: 0.8"/>
     </g>
     <g id="line2d_2">
      <defs>
       <path id="mec691a6c21" d="M 0 0 
L 0 3.5 
" style="stroke: #000000; stroke-width: 0.8"/>
      </defs>
      <g>
       <use xlink:href="#mec691a6c21" x="140.832761" y="218.64351" style="stroke: #000000; stroke-width: 0.8"/>
      </g>
     </g>
     <g id="text_1">
      <!-- 20 -->
      <g transform="translate(134.470261 233.241948) scale(0.1 -0.1)">
       <defs>
        <path id="DejaVuSans-32" d="M 1228 531 
L 3431 531 
L 3431 0 
L 469 0 
L 469 531 
Q 828 903 1448 1529 
Q 2069 2156 2228 2338 
Q 2531 2678 2651 2914 
Q 2772 3150 2772 3378 
Q 2772 3750 2511 3984 
Q 2250 4219 1831 4219 
Q 1534 4219 1204 4116 
Q 875 4013 500 3803 
L 500 4441 
Q 881 4594 1212 4672 
Q 1544 4750 1819 4750 
Q 2544 4750 2975 4387 
Q 3406 4025 3406 3419 
Q 3406 3131 3298 2873 
Q 3191 2616 2906 2266 
Q 2828 2175 2409 1742 
Q 1991 1309 1228 531 
z
" transform="scale(0.015625)"/>
        <path id="DejaVuSans-30" d="M 2034 4250 
Q 1547 4250 1301 3770 
Q 1056 3291 1056 2328 
Q 1056 1369 1301 889 
Q 1547 409 2034 409 
Q 2525 409 2770 889 
Q 3016 1369 3016 2328 
Q 3016 3291 2770 3770 
Q 2525 4250 2034 4250 
z
M 2034 4750 
Q 2819 4750 3233 4129 
Q 3647 3509 3647 2328 
Q 3647 1150 3233 529 
Q 2819 -91 2034 -91 
Q 1250 -91 836 529 
Q 422 1150 422 2328 
Q 422 3509 836 4129 
Q 1250 4750 2034 4750 
z
" transform="scale(0.015625)"/>
       </defs>
       <use xlink:href="#DejaVuSans-32"/>
       <use xlink:href="#DejaVuSans-30" transform="translate(63.623047 0)"/>
      </g>
     </g>
    </g>
    <g id="xtick_2">
     <g id="line2d_3">
      <path d="M 247.530353 218.64351 
L 247.530353 18.118365 
" clip-path="url(#pc5f9ca8eec)" style="fill: none; stroke-dasharray: 0.8,1.32; stroke-dashoffset: 0; stroke: #b0b0b0; stroke-width: 0.8"/>
     </g>
     <g id="line2d_4">
      <g>
       <use xlink:href="#mec691a6c21" x="247.530353" y="218.64351" style="stroke: #000000; stroke-width: 0.8"/>
      </g>
     </g>
     <g id="text_2">
      <!-- 40 -->
      <g transform="translate(241.167853 233.241948) scale(0.1 -0.1)">
       <defs>
        <path id="DejaVuSans-34" d="M 2419 4116 
L 825 1625 
L 2419 1625 
L 2419 4116 
z
M 2253 4666 
L 3047 4666 
L 3047 1625 
L 3713 1625 
L 3713 1100 
L 3047 1100 
L 3047 0 
L 2419 0 
L 2419 1100 
L 313 1100 
L 313 1709 
L 2253 4666 
z
" transform="scale(0.015625)"/>
       </defs>
       <use xlink:href="#DejaVuSans-34"/>
       <use xlink:href="#DejaVuSans-30" transform="translate(63.623047 0)"/>
      </g>
     </g>
    </g>
    <g id="xtick_3">
     <g id="line2d_5">
      <path d="M 354.227946 218.64351 
L 354.227946 18.118365 
" clip-path="url(#pc5f9ca8eec)" style="fill: none; stroke-dasharray: 0.8,1.32; stroke-dashoffset: 0; stroke: #b0b0b0; stroke-width: 0.8"/>
     </g>
     <g id="line2d_6">
      <g>
       <use xlink:href="#mec691a6c21" x="354.227946" y="218.64351" style="stroke: #000000; stroke-width: 0.8"/>
      </g>
     </g>
     <g id="text_3">
      <!-- 60 -->
      <g transform="translate(347.865446 233.241948) scale(0.1 -0.1)">
       <defs>
        <path id="DejaVuSans-36" d="M 2113 2584 
Q 1688 2584 1439 2293 
Q 1191 2003 1191 1497 
Q 1191 994 1439 701 
Q 1688 409 2113 409 
Q 2538 409 2786 701 
Q 3034 994 3034 1497 
Q 3034 2003 2786 2293 
Q 2538 2584 2113 2584 
z
M 3366 4563 
L 3366 3988 
Q 3128 4100 2886 4159 
Q 2644 4219 2406 4219 
Q 1781 4219 1451 3797 
Q 1122 3375 1075 2522 
Q 1259 2794 1537 2939 
Q 1816 3084 2150 3084 
Q 2853 3084 3261 2657 
Q 3669 2231 3669 1497 
Q 3669 778 3244 343 
Q 2819 -91 2113 -91 
Q 1303 -91 875 529 
Q 447 1150 447 2328 
Q 447 3434 972 4092 
Q 1497 4750 2381 4750 
Q 2619 4750 2861 4703 
Q 3103 4656 3366 4563 
z
" transform="scale(0.015625)"/>
       </defs>
       <use xlink:href="#DejaVuSans-36"/>
       <use xlink:href="#DejaVuSans-30" transform="translate(63.623047 0)"/>
      </g>
     </g>
    </g>
    <g id="xtick_4">
     <g id="line2d_7">
      <path d="M 460.925538 218.64351 
L 460.925538 18.118365 
" clip-path="url(#pc5f9ca8eec)" style="fill: none; stroke-dasharray: 0.8,1.32; stroke-dashoffset: 0; stroke: #b0b0b0; stroke-width: 0.8"/>
     </g>
     <g id="line2d_8">
      <g>
       <use xlink:href="#mec691a6c21" x="460.925538" y="218.64351" style="stroke: #000000; stroke-width: 0.8"/>
      </g>
     </g>
     <g id="text_4">
      <!-- 80 -->
      <g transform="translate(454.563038 233.241948) scale(0.1 -0.1)">
       <defs>
        <path id="DejaVuSans-38" d="M 2034 2216 
Q 1584 2216 1326 1975 
Q 1069 1734 1069 1313 
Q 1069 891 1326 650 
Q 1584 409 2034 409 
Q 2484 409 2743 651 
Q 3003 894 3003 1313 
Q 3003 1734 2745 1975 
Q 2488 2216 2034 2216 
z
M 1403 2484 
Q 997 2584 770 2862 
Q 544 3141 544 3541 
Q 544 4100 942 4425 
Q 1341 4750 2034 4750 
Q 2731 4750 3128 4425 
Q 3525 4100 3525 3541 
Q 3525 3141 3298 2862 
Q 3072 2584 2669 2484 
Q 3125 2378 3379 2068 
Q 3634 1759 3634 1313 
Q 3634 634 3220 271 
Q 2806 -91 2034 -91 
Q 1263 -91 848 271 
Q 434 634 434 1313 
Q 434 1759 690 2068 
Q 947 2378 1403 2484 
z
M 1172 3481 
Q 1172 3119 1398 2916 
Q 1625 2713 2034 2713 
Q 2441 2713 2670 2916 
Q 2900 3119 2900 3481 
Q 2900 3844 2670 4047 
Q 2441 4250 2034 4250 
Q 1625 4250 1398 4047 
Q 1172 3844 1172 3481 
z
" transform="scale(0.015625)"/>
       </defs>
       <use xlink:href="#DejaVuSans-38"/>
       <use xlink:href="#DejaVuSans-30" transform="translate(63.623047 0)"/>
      </g>
     </g>
    </g>
    <g id="xtick_5">
     <g id="line2d_9">
      <path d="M 567.623131 218.64351 
L 567.623131 18.118365 
" clip-path="url(#pc5f9ca8eec)" style="fill: none; stroke-dasharray: 0.8,1.32; stroke-dashoffset: 0; stroke: #b0b0b0; stroke-width: 0.8"/>
     </g>
     <g id="line2d_10">
      <g>
       <use xlink:href="#mec691a6c21" x="567.623131" y="218.64351" style="stroke: #000000; stroke-width: 0.8"/>
      </g>
     </g>
     <g id="text_5">
      <!-- 100 -->
      <g transform="translate(558.079381 233.241948) scale(0.1 -0.1)">
       <defs>
        <path id="DejaVuSans-31" d="M 794 531 
L 1825 531 
L 1825 4091 
L 703 3866 
L 703 4441 
L 1819 4666 
L 2450 4666 
L 2450 531 
L 3481 531 
L 3481 0 
L 794 0 
L 794 531 
z
" transform="scale(0.015625)"/>
       </defs>
       <use xlink:href="#DejaVuSans-31"/>
       <use xlink:href="#DejaVuSans-30" transform="translate(63.623047 0)"/>
       <use xlink:href="#DejaVuSans-30" transform="translate(127.246094 0)"/>
      </g>
     </g>
    </g>
    <g id="xtick_6">
     <g id="line2d_11">
      <path d="M 674.320723 218.64351 
L 674.320723 18.118365 
" clip-path="url(#pc5f9ca8eec)" style="fill: none; stroke-dasharray: 0.8,1.32; stroke-dashoffset: 0; stroke: #b0b0b0; stroke-width: 0.8"/>
     </g>
     <g id="line2d_12">
      <g>
       <use xlink:href="#mec691a6c21" x="674.320723" y="218.64351" style="stroke: #000000; stroke-width: 0.8"/>
      </g>
     </g>
     <g id="text_6">
      <!-- 120 -->
      <g transform="translate(664.776973 233.241948) scale(0.1 -0.1)">
       <use xlink:href="#DejaVuSans-31"/>
       <use xlink:href="#DejaVuSans-32" transform="translate(63.623047 0)"/>
       <use xlink:href="#DejaVuSans-30" transform="translate(127.246094 0)"/>
      </g>
     </g>
    </g>
    <g id="text_7">
     <!-- Frequency (Hz) -->
     <g transform="translate(343.197656 246.920073) scale(0.1 -0.1)">
      <defs>
       <path id="DejaVuSans-46" d="M 628 4666 
L 3309 4666 
L 3309 4134 
L 1259 4134 
L 1259 2759 
L 3109 2759 
L 3109 2228 
L 1259 2228 
L 1259 0 
L 628 0 
L 628 4666 
z
" transform="scale(0.015625)"/>
       <path id="DejaVuSans-72" d="M 2631 2963 
Q 2534 3019 2420 3045 
Q 2306 3072 2169 3072 
Q 1681 3072 1420 2755 
Q 1159 2438 1159 1844 
L 1159 0 
L 581 0 
L 581 3500 
L 1159 3500 
L 1159 2956 
Q 1341 3275 1631 3429 
Q 1922 3584 2338 3584 
Q 2397 3584 2469 3576 
Q 2541 3569 2628 3553 
L 2631 2963 
z
" transform="scale(0.015625)"/>
       <path id="DejaVuSans-65" d="M 3597 1894 
L 3597 1613 
L 953 1613 
Q 991 1019 1311 708 
Q 1631 397 2203 397 
Q 2534 397 2845 478 
Q 3156 559 3463 722 
L 3463 178 
Q 3153 47 2828 -22 
Q 2503 -91 2169 -91 
Q 1331 -91 842 396 
Q 353 884 353 1716 
Q 353 2575 817 3079 
Q 1281 3584 2069 3584 
Q 2775 3584 3186 3129 
Q 3597 2675 3597 1894 
z
M 3022 2063 
Q 3016 2534 2758 2815 
Q 2500 3097 2075 3097 
Q 1594 3097 1305 2825 
Q 1016 2553 972 2059 
L 3022 2063 
z
" transform="scale(0.015625)"/>
       <path id="DejaVuSans-71" d="M 947 1747 
Q 947 1113 1208 752 
Q 1469 391 1925 391 
Q 2381 391 2643 752 
Q 2906 1113 2906 1747 
Q 2906 2381 2643 2742 
Q 2381 3103 1925 3103 
Q 1469 3103 1208 2742 
Q 947 2381 947 1747 
z
M 2906 525 
Q 2725 213 2448 61 
Q 2172 -91 1784 -91 
Q 1150 -91 751 415 
Q 353 922 353 1747 
Q 353 2572 751 3078 
Q 1150 3584 1784 3584 
Q 2172 3584 2448 3432 
Q 2725 3281 2906 2969 
L 2906 3500 
L 3481 3500 
L 3481 -1331 
L 2906 -1331 
L 2906 525 
z
" transform="scale(0.015625)"/>
       <path id="DejaVuSans-75" d="M 544 1381 
L 544 3500 
L 1119 3500 
L 1119 1403 
Q 1119 906 1312 657 
Q 1506 409 1894 409 
Q 2359 409 2629 706 
Q 2900 1003 2900 1516 
L 2900 3500 
L 3475 3500 
L 3475 0 
L 2900 0 
L 2900 538 
Q 2691 219 2414 64 
Q 2138 -91 1772 -91 
Q 1169 -91 856 284 
Q 544 659 544 1381 
z
M 1991 3584 
L 1991 3584 
z
" transform="scale(0.015625)"/>
       <path id="DejaVuSans-6e" d="M 3513 2113 
L 3513 0 
L 2938 0 
L 2938 2094 
Q 2938 2591 2744 2837 
Q 2550 3084 2163 3084 
Q 1697 3084 1428 2787 
Q 1159 2491 1159 1978 
L 1159 0 
L 581 0 
L 581 3500 
L 1159 3500 
L 1159 2956 
Q 1366 3272 1645 3428 
Q 1925 3584 2291 3584 
Q 2894 3584 3203 3211 
Q 3513 2838 3513 2113 
z
" transform="scale(0.015625)"/>
       <path id="DejaVuSans-63" d="M 3122 3366 
L 3122 2828 
Q 2878 2963 2633 3030 
Q 2388 3097 2138 3097 
Q 1578 3097 1268 2742 
Q 959 2388 959 1747 
Q 959 1106 1268 751 
Q 1578 397 2138 397 
Q 2388 397 2633 464 
Q 2878 531 3122 666 
L 3122 134 
Q 2881 22 2623 -34 
Q 2366 -91 2075 -91 
Q 1284 -91 818 406 
Q 353 903 353 1747 
Q 353 2603 823 3093 
Q 1294 3584 2113 3584 
Q 2378 3584 2631 3529 
Q 2884 3475 3122 3366 
z
" transform="scale(0.015625)"/>
       <path id="DejaVuSans-79" d="M 2059 -325 
Q 1816 -950 1584 -1140 
Q 1353 -1331 966 -1331 
L 506 -1331 
L 506 -850 
L 844 -850 
Q 1081 -850 1212 -737 
Q 1344 -625 1503 -206 
L 1606 56 
L 191 3500 
L 800 3500 
L 1894 763 
L 2988 3500 
L 3597 3500 
L 2059 -325 
z
" transform="scale(0.015625)"/>
       <path id="DejaVuSans-20" transform="scale(0.015625)"/>
       <path id="DejaVuSans-28" d="M 1984 4856 
Q 1566 4138 1362 3434 
Q 1159 2731 1159 2009 
Q 1159 1288 1364 580 
Q 1569 -128 1984 -844 
L 1484 -844 
Q 1016 -109 783 600 
Q 550 1309 550 2009 
Q 550 2706 781 3412 
Q 1013 4119 1484 4856 
L 1984 4856 
z
" transform="scale(0.015625)"/>
       <path id="DejaVuSans-48" d="M 628 4666 
L 1259 4666 
L 1259 2753 
L 3553 2753 
L 3553 4666 
L 4184 4666 
L 4184 0 
L 3553 0 
L 3553 2222 
L 1259 2222 
L 1259 0 
L 628 0 
L 628 4666 
z
" transform="scale(0.015625)"/>
       <path id="DejaVuSans-7a" d="M 353 3500 
L 3084 3500 
L 3084 2975 
L 922 459 
L 3084 459 
L 3084 0 
L 275 0 
L 275 525 
L 2438 3041 
L 353 3041 
L 353 3500 
z
" transform="scale(0.015625)"/>
       <path id="DejaVuSans-29" d="M 513 4856 
L 1013 4856 
Q 1481 4119 1714 3412 
Q 1947 2706 1947 2009 
Q 1947 1309 1714 600 
Q 1481 -109 1013 -844 
L 513 -844 
Q 928 -128 1133 580 
Q 1338 1288 1338 2009 
Q 1338 2731 1133 3434 
Q 928 4138 513 4856 
z
" transform="scale(0.015625)"/>
      </defs>
      <use xlink:href="#DejaVuSans-46"/>
      <use xlink:href="#DejaVuSans-72" transform="translate(50.269531 0)"/>
      <use xlink:href="#DejaVuSans-65" transform="translate(89.132812 0)"/>
      <use xlink:href="#DejaVuSans-71" transform="translate(150.65625 0)"/>
      <use xlink:href="#DejaVuSans-75" transform="translate(214.132812 0)"/>
      <use xlink:href="#DejaVuSans-65" transform="translate(277.511719 0)"/>
      <use xlink:href="#DejaVuSans-6e" transform="translate(339.035156 0)"/>
      <use xlink:href="#DejaVuSans-63" transform="translate(402.414062 0)"/>
      <use xlink:href="#DejaVuSans-79" transform="translate(457.394531 0)"/>
      <use xlink:href="#DejaVuSans-20" transform="translate(516.574219 0)"/>
      <use xlink:href="#DejaVuSans-28" transform="translate(548.361328 0)"/>
      <use xlink:href="#DejaVuSans-48" transform="translate(587.375 0)"/>
      <use xlink:href="#DejaVuSans-7a" transform="translate(662.570312 0)"/>
      <use xlink:href="#DejaVuSans-29" transform="translate(715.060547 0)"/>
     </g>
    </g>
   </g>
   <g id="matplotlib.axis_2">
    <g id="ytick_1">
     <g id="line2d_13">
      <path d="M 44.804928 198.556221 
L 716.99976 198.556221 
" clip-path="url(#pc5f9ca8eec)" style="fill: none; stroke-dasharray: 0.8,1.32; stroke-dashoffset: 0; stroke: #b0b0b0; stroke-width: 0.8"/>
     </g>
     <g id="line2d_14">
      <defs>
       <path id="m4d8aa90155" d="M 0 0 
L -3.5 0 
" style="stroke: #000000; stroke-width: 0.8"/>
      </defs>
      <g>
       <use xlink:href="#m4d8aa90155" x="44.804928" y="198.556221" style="stroke: #000000; stroke-width: 0.8"/>
      </g>
     </g>
     <g id="text_8">
      <!-- 50 -->
      <g transform="translate(16.70024 202.355439) scale(0.1 -0.1)">
       <defs>
        <path id="DejaVuSans-2212" d="M 678 2272 
L 4684 2272 
L 4684 1741 
L 678 1741 
L 678 2272 
z
" transform="scale(0.015625)"/>
        <path id="DejaVuSans-35" d="M 691 4666 
L 3169 4666 
L 3169 4134 
L 1269 4134 
L 1269 2991 
Q 1406 3038 1543 3061 
Q 1681 3084 1819 3084 
Q 2600 3084 3056 2656 
Q 3513 2228 3513 1497 
Q 3513 744 3044 326 
Q 2575 -91 1722 -91 
Q 1428 -91 1123 -41 
Q 819 9 494 109 
L 494 744 
Q 775 591 1075 516 
Q 1375 441 1709 441 
Q 2250 441 2565 725 
Q 2881 1009 2881 1497 
Q 2881 1984 2565 2268 
Q 2250 2553 1709 2553 
Q 1456 2553 1204 2497 
Q 953 2441 691 2322 
L 691 4666 
z
" transform="scale(0.015625)"/>
       </defs>
       <use xlink:href="#DejaVuSans-2212"/>
       <use xlink:href="#DejaVuSans-35" transform="translate(83.789062 0)"/>
       <use xlink:href="#DejaVuSans-30" transform="translate(147.412109 0)"/>
      </g>
     </g>
    </g>
    <g id="ytick_2">
     <g id="line2d_15">
      <path d="M 44.804928 176.112508 
L 716.99976 176.112508 
" clip-path="url(#pc5f9ca8eec)" style="fill: none; stroke-dasharray: 0.8,1.32; stroke-dashoffset: 0; stroke: #b0b0b0; stroke-width: 0.8"/>
     </g>
     <g id="line2d_16">
      <g>
       <use xlink:href="#m4d8aa90155" x="44.804928" y="176.112508" style="stroke: #000000; stroke-width: 0.8"/>
      </g>
     </g>
     <g id="text_9">
      <!-- 40 -->
      <g transform="translate(16.70024 179.911726) scale(0.1 -0.1)">
       <use xlink:href="#DejaVuSans-2212"/>
       <use xlink:href="#DejaVuSans-34" transform="translate(83.789062 0)"/>
       <use xlink:href="#DejaVuSans-30" transform="translate(147.412109 0)"/>
      </g>
     </g>
    </g>
    <g id="ytick_3">
     <g id="line2d_17">
      <path d="M 44.804928 153.668794 
L 716.99976 153.668794 
" clip-path="url(#pc5f9ca8eec)" style="fill: none; stroke-dasharray: 0.8,1.32; stroke-dashoffset: 0; stroke: #b0b0b0; stroke-width: 0.8"/>
     </g>
     <g id="line2d_18">
      <g>
       <use xlink:href="#m4d8aa90155" x="44.804928" y="153.668794" style="stroke: #000000; stroke-width: 0.8"/>
      </g>
     </g>
     <g id="text_10">
      <!-- 30 -->
      <g transform="translate(16.70024 157.468013) scale(0.1 -0.1)">
       <defs>
        <path id="DejaVuSans-33" d="M 2597 2516 
Q 3050 2419 3304 2112 
Q 3559 1806 3559 1356 
Q 3559 666 3084 287 
Q 2609 -91 1734 -91 
Q 1441 -91 1130 -33 
Q 819 25 488 141 
L 488 750 
Q 750 597 1062 519 
Q 1375 441 1716 441 
Q 2309 441 2620 675 
Q 2931 909 2931 1356 
Q 2931 1769 2642 2001 
Q 2353 2234 1838 2234 
L 1294 2234 
L 1294 2753 
L 1863 2753 
Q 2328 2753 2575 2939 
Q 2822 3125 2822 3475 
Q 2822 3834 2567 4026 
Q 2313 4219 1838 4219 
Q 1578 4219 1281 4162 
Q 984 4106 628 3988 
L 628 4550 
Q 988 4650 1302 4700 
Q 1616 4750 1894 4750 
Q 2613 4750 3031 4423 
Q 3450 4097 3450 3541 
Q 3450 3153 3228 2886 
Q 3006 2619 2597 2516 
z
" transform="scale(0.015625)"/>
       </defs>
       <use xlink:href="#DejaVuSans-2212"/>
       <use xlink:href="#DejaVuSans-33" transform="translate(83.789062 0)"/>
       <use xlink:href="#DejaVuSans-30" transform="translate(147.412109 0)"/>
      </g>
     </g>
    </g>
    <g id="ytick_4">
     <g id="line2d_19">
      <path d="M 44.804928 131.225081 
L 716.99976 131.225081 
" clip-path="url(#pc5f9ca8eec)" style="fill: none; stroke-dasharray: 0.8,1.32; stroke-dashoffset: 0; stroke: #b0b0b0; stroke-width: 0.8"/>
     </g>
     <g id="line2d_20">
      <g>
       <use xlink:href="#m4d8aa90155" x="44.804928" y="131.225081" style="stroke: #000000; stroke-width: 0.8"/>
      </g>
     </g>
     <g id="text_11">
      <!-- 20 -->
      <g transform="translate(16.70024 135.0243) scale(0.1 -0.1)">
       <use xlink:href="#DejaVuSans-2212"/>
       <use xlink:href="#DejaVuSans-32" transform="translate(83.789062 0)"/>
       <use xlink:href="#DejaVuSans-30" transform="translate(147.412109 0)"/>
      </g>
     </g>
    </g>
    <g id="ytick_5">
     <g id="line2d_21">
      <path d="M 44.804928 108.781368 
L 716.99976 108.781368 
" clip-path="url(#pc5f9ca8eec)" style="fill: none; stroke-dasharray: 0.8,1.32; stroke-dashoffset: 0; stroke: #b0b0b0; stroke-width: 0.8"/>
     </g>
     <g id="line2d_22">
      <g>
       <use xlink:href="#m4d8aa90155" x="44.804928" y="108.781368" style="stroke: #000000; stroke-width: 0.8"/>
      </g>
     </g>
     <g id="text_12">
      <!-- 10 -->
      <g transform="translate(16.70024 112.580587) scale(0.1 -0.1)">
       <use xlink:href="#DejaVuSans-2212"/>
       <use xlink:href="#DejaVuSans-31" transform="translate(83.789062 0)"/>
       <use xlink:href="#DejaVuSans-30" transform="translate(147.412109 0)"/>
      </g>
     </g>
    </g>
    <g id="ytick_6">
     <g id="line2d_23">
      <path d="M 44.804928 86.337655 
L 716.99976 86.337655 
" clip-path="url(#pc5f9ca8eec)" style="fill: none; stroke-dasharray: 0.8,1.32; stroke-dashoffset: 0; stroke: #b0b0b0; stroke-width: 0.8"/>
     </g>
     <g id="line2d_24">
      <g>
       <use xlink:href="#m4d8aa90155" x="44.804928" y="86.337655" style="stroke: #000000; stroke-width: 0.8"/>
      </g>
     </g>
     <g id="text_13">
      <!-- 0 -->
      <g transform="translate(31.442428 90.136874) scale(0.1 -0.1)">
       <use xlink:href="#DejaVuSans-30"/>
      </g>
     </g>
    </g>
    <g id="ytick_7">
     <g id="line2d_25">
      <path d="M 44.804928 63.893942 
L 716.99976 63.893942 
" clip-path="url(#pc5f9ca8eec)" style="fill: none; stroke-dasharray: 0.8,1.32; stroke-dashoffset: 0; stroke: #b0b0b0; stroke-width: 0.8"/>
     </g>
     <g id="line2d_26">
      <g>
       <use xlink:href="#m4d8aa90155" x="44.804928" y="63.893942" style="stroke: #000000; stroke-width: 0.8"/>
      </g>
     </g>
     <g id="text_14">
      <!-- 10 -->
      <g transform="translate(25.079928 67.693161) scale(0.1 -0.1)">
       <use xlink:href="#DejaVuSans-31"/>
       <use xlink:href="#DejaVuSans-30" transform="translate(63.623047 0)"/>
      </g>
     </g>
    </g>
    <g id="ytick_8">
     <g id="line2d_27">
      <path d="M 44.804928 41.450229 
L 716.99976 41.450229 
" clip-path="url(#pc5f9ca8eec)" style="fill: none; stroke-dasharray: 0.8,1.32; stroke-dashoffset: 0; stroke: #b0b0b0; stroke-width: 0.8"/>
     </g>
     <g id="line2d_28">
      <g>
       <use xlink:href="#m4d8aa90155" x="44.804928" y="41.450229" style="stroke: #000000; stroke-width: 0.8"/>
      </g>
     </g>
     <g id="text_15">
      <!-- 20 -->
      <g transform="translate(25.079928 45.249448) scale(0.1 -0.1)">
       <use xlink:href="#DejaVuSans-32"/>
       <use xlink:href="#DejaVuSans-30" transform="translate(63.623047 0)"/>
      </g>
     </g>
    </g>
    <g id="ytick_9">
     <g id="line2d_29">
      <path d="M 44.804928 19.006516 
L 716.99976 19.006516 
" clip-path="url(#pc5f9ca8eec)" style="fill: none; stroke-dasharray: 0.8,1.32; stroke-dashoffset: 0; stroke: #b0b0b0; stroke-width: 0.8"/>
     </g>
     <g id="line2d_30">
      <g>
       <use xlink:href="#m4d8aa90155" x="44.804928" y="19.006516" style="stroke: #000000; stroke-width: 0.8"/>
      </g>
     </g>
     <g id="text_16">
      <!-- 30 -->
      <g transform="translate(25.079928 22.805735) scale(0.1 -0.1)">
       <use xlink:href="#DejaVuSans-33"/>
       <use xlink:href="#DejaVuSans-30" transform="translate(63.623047 0)"/>
      </g>
     </g>
    </g>
    <g id="text_17">
     <!-- Power ($\mathrm{dB}\ $$\mathrm{V/Hz}$) -->
     <g transform="translate(10.60024 164.030937) rotate(-90) scale(0.1 -0.1)">
      <defs>
       <path id="DejaVuSans-50" d="M 1259 4147 
L 1259 2394 
L 2053 2394 
Q 2494 2394 2734 2622 
Q 2975 2850 2975 3272 
Q 2975 3691 2734 3919 
Q 2494 4147 2053 4147 
L 1259 4147 
z
M 628 4666 
L 2053 4666 
Q 2838 4666 3239 4311 
Q 3641 3956 3641 3272 
Q 3641 2581 3239 2228 
Q 2838 1875 2053 1875 
L 1259 1875 
L 1259 0 
L 628 0 
L 628 4666 
z
" transform="scale(0.015625)"/>
       <path id="DejaVuSans-6f" d="M 1959 3097 
Q 1497 3097 1228 2736 
Q 959 2375 959 1747 
Q 959 1119 1226 758 
Q 1494 397 1959 397 
Q 2419 397 2687 759 
Q 2956 1122 2956 1747 
Q 2956 2369 2687 2733 
Q 2419 3097 1959 3097 
z
M 1959 3584 
Q 2709 3584 3137 3096 
Q 3566 2609 3566 1747 
Q 3566 888 3137 398 
Q 2709 -91 1959 -91 
Q 1206 -91 779 398 
Q 353 888 353 1747 
Q 353 2609 779 3096 
Q 1206 3584 1959 3584 
z
" transform="scale(0.015625)"/>
       <path id="DejaVuSans-77" d="M 269 3500 
L 844 3500 
L 1563 769 
L 2278 3500 
L 2956 3500 
L 3675 769 
L 4391 3500 
L 4966 3500 
L 4050 0 
L 3372 0 
L 2619 2869 
L 1863 0 
L 1184 0 
L 269 3500 
z
" transform="scale(0.015625)"/>
       <path id="DejaVuSans-64" d="M 2906 2969 
L 2906 4863 
L 3481 4863 
L 3481 0 
L 2906 0 
L 2906 525 
Q 2725 213 2448 61 
Q 2172 -91 1784 -91 
Q 1150 -91 751 415 
Q 353 922 353 1747 
Q 353 2572 751 3078 
Q 1150 3584 1784 3584 
Q 2172 3584 2448 3432 
Q 2725 3281 2906 2969 
z
M 947 1747 
Q 947 1113 1208 752 
Q 1469 391 1925 391 
Q 2381 391 2643 752 
Q 2906 1113 2906 1747 
Q 2906 2381 2643 2742 
Q 2381 3103 1925 3103 
Q 1469 3103 1208 2742 
Q 947 2381 947 1747 
z
" transform="scale(0.015625)"/>
       <path id="DejaVuSans-42" d="M 1259 2228 
L 1259 519 
L 2272 519 
Q 2781 519 3026 730 
Q 3272 941 3272 1375 
Q 3272 1813 3026 2020 
Q 2781 2228 2272 2228 
L 1259 2228 
z
M 1259 4147 
L 1259 2741 
L 2194 2741 
Q 2656 2741 2882 2914 
Q 3109 3088 3109 3444 
Q 3109 3797 2882 3972 
Q 2656 4147 2194 4147 
L 1259 4147 
z
M 628 4666 
L 2241 4666 
Q 2963 4666 3353 4366 
Q 3744 4066 3744 3513 
Q 3744 3084 3544 2831 
Q 3344 2578 2956 2516 
Q 3422 2416 3680 2098 
Q 3938 1781 3938 1306 
Q 3938 681 3513 340 
Q 3088 0 2303 0 
L 628 0 
L 628 4666 
z
" transform="scale(0.015625)"/>
       <path id="DejaVuSans-b5" d="M 544 -1331 
L 544 3500 
L 1119 3500 
L 1119 1325 
Q 1119 872 1334 640 
Q 1550 409 1972 409 
Q 2434 409 2667 671 
Q 2900 934 2900 1459 
L 2900 3500 
L 3475 3500 
L 3475 806 
Q 3475 619 3529 530 
Q 3584 441 3700 441 
Q 3728 441 3778 458 
Q 3828 475 3916 513 
L 3916 50 
Q 3788 -22 3673 -56 
Q 3559 -91 3450 -91 
Q 3234 -91 3106 31 
Q 2978 153 2931 403 
Q 2775 156 2548 32 
Q 2322 -91 2016 -91 
Q 1697 -91 1473 31 
Q 1250 153 1119 397 
L 1119 -1331 
L 544 -1331 
z
" transform="scale(0.015625)"/>
       <path id="DejaVuSans-56" d="M 1831 0 
L 50 4666 
L 709 4666 
L 2188 738 
L 3669 4666 
L 4325 4666 
L 2547 0 
L 1831 0 
z
" transform="scale(0.015625)"/>
       <path id="DejaVuSans-b2" d="M 838 2444 
L 2163 2444 
L 2163 2088 
L 294 2088 
L 294 2431 
Q 400 2528 597 2703 
Q 1672 3656 1672 3950 
Q 1672 4156 1509 4282 
Q 1347 4409 1081 4409 
Q 919 4409 728 4354 
Q 538 4300 313 4191 
L 313 4575 
Q 553 4663 761 4706 
Q 969 4750 1147 4750 
Q 1600 4750 1872 4544 
Q 2144 4338 2144 4000 
Q 2144 3566 1109 2678 
Q 934 2528 838 2444 
z
" transform="scale(0.015625)"/>
       <path id="DejaVuSans-2f" d="M 1625 4666 
L 2156 4666 
L 531 -594 
L 0 -594 
L 1625 4666 
z
" transform="scale(0.015625)"/>
      </defs>
      <use xlink:href="#DejaVuSans-50" transform="translate(0 0.015625)"/>
      <use xlink:href="#DejaVuSans-6f" transform="translate(60.302734 0.015625)"/>
      <use xlink:href="#DejaVuSans-77" transform="translate(121.484375 0.015625)"/>
      <use xlink:href="#DejaVuSans-65" transform="translate(203.271484 0.015625)"/>
      <use xlink:href="#DejaVuSans-72" transform="translate(264.794922 0.015625)"/>
      <use xlink:href="#DejaVuSans-20" transform="translate(305.908203 0.015625)"/>
      <use xlink:href="#DejaVuSans-28" transform="translate(337.695312 0.015625)"/>
      <use xlink:href="#DejaVuSans-64" transform="translate(376.708984 0.015625)"/>
      <use xlink:href="#DejaVuSans-42" transform="translate(440.185547 0.015625)"/>
      <use xlink:href="#DejaVuSans-b5" transform="translate(541.259441 0.015625)"/>
      <use xlink:href="#DejaVuSans-56" transform="translate(604.882488 0.015625)"/>
      <use xlink:href="#DejaVuSans-b2" transform="translate(673.290691 0.015625)"/>
      <use xlink:href="#DejaVuSans-2f" transform="translate(713.378582 0.015625)"/>
      <use xlink:href="#DejaVuSans-48" transform="translate(745.319988 0.015625)"/>
      <use xlink:href="#DejaVuSans-7a" transform="translate(820.5153 0.015625)"/>
      <use xlink:href="#DejaVuSans-29" transform="translate(873.005535 0.015625)"/>
     </g>
    </g>
   </g>
   <g id="line2d_31">
    <path d="M 460.925538 218.64351 
L 460.925538 18.118365 
" clip-path="url(#pc5f9ca8eec)" style="fill: none; stroke-dasharray: 7.4,3.2; stroke-dashoffset: 0; stroke: #000000; stroke-opacity: 0.25; stroke-width: 2"/>
   </g>
   <g id="line2d_32">
    <path d="M 36.802608 218.64351 
L 36.802608 18.118365 
" clip-path="url(#pc5f9ca8eec)" style="fill: none; stroke-dasharray: 7.4,3.2; stroke-dashoffset: 0; stroke: #000000; stroke-opacity: 0.25; stroke-width: 2"/>
   </g>
   <g id="line2d_33">
    <path d="M 44.804928 39.325594 
L 45.471787 38.149795 
L 46.138647 39.912998 
L 46.805507 42.79609 
L 47.472367 44.28144 
L 48.139227 41.835478 
L 48.806087 41.634391 
L 49.472947 46.213358 
L 50.139807 41.843664 
L 51.473527 46.190916 
L 52.140387 43.899941 
L 52.807247 45.435517 
L 53.474107 45.947491 
L 54.140967 47.206378 
L 54.807827 44.339237 
L 55.474687 43.992228 
L 56.141547 46.998397 
L 56.808407 46.240247 
L 57.475267 47.837221 
L 58.142127 49.066328 
L 58.808987 51.705971 
L 59.475846 50.339582 
L 60.142706 50.393442 
L 60.809566 50.674521 
L 62.143286 50.517991 
L 63.477006 53.36895 
L 64.143866 53.398458 
L 64.810726 55.008342 
L 65.477586 54.645962 
L 66.144446 53.970084 
L 66.811306 56.082847 
L 67.478166 54.681658 
L 68.145026 55.992899 
L 68.811886 56.061574 
L 69.478746 55.283744 
L 70.145606 53.848188 
L 70.812466 55.41054 
L 71.479326 58.95725 
L 72.146186 57.954049 
L 72.813046 58.848602 
L 73.479905 59.240171 
L 74.146765 58.722251 
L 74.813625 56.662059 
L 75.480485 57.212984 
L 76.147345 60.040827 
L 77.481065 62.873312 
L 78.814785 61.173797 
L 79.481645 62.15481 
L 80.148505 61.86956 
L 80.815365 63.416198 
L 81.482225 63.947425 
L 82.149085 65.581827 
L 82.815945 64.501003 
L 83.482805 63.989838 
L 84.149665 65.815324 
L 84.816525 66.667696 
L 85.483385 65.613159 
L 86.150245 65.758299 
L 86.817105 68.705114 
L 87.483964 69.273653 
L 88.150824 70.61896 
L 88.817684 68.186944 
L 89.484544 67.989332 
L 90.151404 69.81887 
L 90.818264 67.112967 
L 91.485124 68.171362 
L 92.151984 69.651326 
L 92.818844 68.357256 
L 93.485704 69.653908 
L 94.152564 68.214126 
L 94.819424 68.78359 
L 95.486284 70.037761 
L 96.153144 72.680313 
L 96.820004 71.030536 
L 98.153724 69.770077 
L 98.820584 69.791291 
L 99.487444 72.385622 
L 100.154304 71.933014 
L 100.821164 71.055822 
L 101.488023 71.045983 
L 102.154883 72.700689 
L 102.821743 72.506405 
L 103.488603 70.727883 
L 104.155463 72.788918 
L 104.822323 75.321782 
L 105.489183 73.893518 
L 106.156043 73.156921 
L 106.822903 71.403305 
L 107.489763 70.716771 
L 108.156623 71.657341 
L 108.823483 73.243293 
L 109.490343 72.009563 
L 110.157203 72.260792 
L 110.824063 71.811993 
L 111.490923 73.731487 
L 112.824643 73.340593 
L 113.491503 72.125325 
L 114.158363 71.948184 
L 114.825223 73.762709 
L 115.492083 71.832319 
L 116.158942 73.561269 
L 116.825802 73.622218 
L 117.492662 74.900746 
L 118.159522 74.807387 
L 119.493242 54.935273 
L 120.160102 65.520066 
L 120.826962 73.44108 
L 121.493822 74.492206 
L 122.160682 73.884873 
L 122.827542 72.016728 
L 123.494402 71.416243 
L 124.828122 73.372649 
L 125.494982 74.46696 
L 126.161842 74.393252 
L 126.828702 74.151434 
L 127.495562 73.075788 
L 128.829282 74.74898 
L 129.496142 76.408757 
L 130.163001 74.660941 
L 130.829861 73.229111 
L 131.496721 72.548127 
L 132.830441 74.174739 
L 133.497301 75.25666 
L 134.164161 73.052756 
L 134.831021 72.263489 
L 135.497881 73.663242 
L 136.164741 72.489541 
L 136.831601 72.568319 
L 138.165321 75.075894 
L 138.832181 74.138163 
L 139.499041 73.993349 
L 140.832761 74.840901 
L 141.499621 74.877414 
L 142.166481 75.320676 
L 142.833341 76.514105 
L 143.500201 75.382727 
L 144.16706 75.686044 
L 144.83392 75.795684 
L 146.16764 72.242291 
L 146.8345 71.55799 
L 147.50136 74.418873 
L 148.16822 75.782769 
L 148.83508 76.495967 
L 149.50194 76.133383 
L 150.1688 74.516573 
L 150.83566 73.760032 
L 151.50252 73.87723 
L 152.16938 74.941862 
L 152.83624 74.447126 
L 153.5031 75.026362 
L 154.16996 76.446309 
L 154.83682 75.432195 
L 156.17054 76.625763 
L 156.8374 77.052035 
L 157.50426 76.023153 
L 158.171119 77.081974 
L 158.837979 76.853005 
L 159.504839 76.87084 
L 160.171699 75.042722 
L 160.838559 78.360258 
L 161.505419 75.261952 
L 162.172279 73.773387 
L 162.839139 73.70751 
L 163.505999 76.110742 
L 164.172859 78.037528 
L 164.839719 77.416646 
L 166.173439 74.835295 
L 167.507159 74.321743 
L 168.174019 74.885131 
L 168.840879 73.12128 
L 170.174599 74.362607 
L 170.841459 74.017404 
L 171.508319 75.7598 
L 172.175178 78.665735 
L 172.842038 76.420114 
L 173.508898 74.999225 
L 174.175758 76.183249 
L 174.842618 75.774896 
L 175.509478 75.032909 
L 176.176338 75.108647 
L 176.843198 73.862867 
L 177.510058 74.129075 
L 178.176918 74.55763 
L 178.843778 76.424419 
L 179.510638 77.024712 
L 180.177498 76.501986 
L 182.178078 72.195189 
L 182.844938 71.620435 
L 183.511798 71.507528 
L 184.845518 73.47877 
L 185.512378 73.086932 
L 186.179238 71.606679 
L 186.846097 74.248281 
L 187.512957 75.410164 
L 188.179817 75.786669 
L 188.846677 75.500944 
L 189.513537 74.015146 
L 190.180397 74.066768 
L 190.847257 73.251575 
L 192.180977 73.161572 
L 192.847837 74.600763 
L 193.514697 73.025853 
L 194.181557 73.492046 
L 194.848417 73.665298 
L 195.515277 71.859551 
L 196.182137 72.160087 
L 196.848997 74.081513 
L 197.515857 76.54951 
L 198.182717 74.898446 
L 198.849577 73.672727 
L 199.516437 74.597739 
L 200.850156 75.885 
L 201.517016 75.378952 
L 202.183876 75.80497 
L 202.850736 75.157698 
L 203.517596 76.354446 
L 204.851316 54.169694 
L 206.185036 74.638289 
L 206.851896 73.857804 
L 207.518756 75.067506 
L 208.185616 77.687992 
L 208.852476 77.527792 
L 209.519336 76.073342 
L 210.186196 75.203176 
L 211.519916 71.798317 
L 212.186776 73.426417 
L 212.853636 73.461742 
L 213.520496 74.818126 
L 214.187356 74.252222 
L 214.854215 74.064966 
L 216.187935 76.289491 
L 216.854795 77.421076 
L 217.521655 76.09759 
L 218.188515 75.650084 
L 218.855375 75.610214 
L 219.522235 76.327914 
L 220.189095 76.015221 
L 220.855955 75.007119 
L 221.522815 74.761737 
L 222.189675 75.695981 
L 222.856535 76.364317 
L 223.523395 76.624224 
L 224.190255 76.408139 
L 224.857115 77.196082 
L 225.523975 76.590529 
L 226.190835 75.101302 
L 226.857695 75.338797 
L 227.524555 76.043973 
L 228.191415 78.07296 
L 228.858274 76.89691 
L 229.525134 77.908284 
L 230.191994 76.978822 
L 230.858854 75.41284 
L 231.525714 74.908642 
L 232.192574 76.022548 
L 232.859434 74.426193 
L 233.526294 73.743387 
L 234.193154 75.551248 
L 234.860014 76.089647 
L 235.526874 76.885152 
L 236.193734 77.229677 
L 236.860594 76.754951 
L 237.527454 76.049072 
L 238.194314 74.887913 
L 238.861174 75.590017 
L 239.528034 77.14765 
L 240.861754 78.144961 
L 241.528614 76.912524 
L 242.195474 75.296458 
L 242.862334 74.709845 
L 243.529193 75.899285 
L 244.196053 76.650235 
L 244.862913 77.912447 
L 245.529773 78.077007 
L 246.196633 80.170943 
L 246.863493 77.649467 
L 247.530353 77.205112 
L 248.197213 77.268932 
L 248.864073 78.41684 
L 249.530933 78.776634 
L 250.197793 78.477729 
L 250.864653 76.442403 
L 252.198373 78.316706 
L 252.865233 81.08842 
L 253.532093 83.057167 
L 254.865813 78.755917 
L 255.532673 80.129583 
L 256.199533 77.330513 
L 256.866393 78.446499 
L 257.533252 80.542136 
L 258.200112 80.346801 
L 258.866972 80.338074 
L 259.533832 82.467668 
L 260.200692 83.002665 
L 260.867552 81.607323 
L 261.534412 81.535107 
L 262.201272 81.296509 
L 262.868132 82.16978 
L 263.534992 82.464639 
L 264.201852 81.959327 
L 264.868712 84.069858 
L 265.535572 83.640517 
L 266.202432 83.779247 
L 266.869292 82.469692 
L 267.536152 83.821478 
L 268.203012 82.704571 
L 268.869872 76.810021 
L 269.536732 77.34041 
L 270.203592 83.382009 
L 270.870452 84.515853 
L 271.537311 84.608814 
L 272.204171 82.838529 
L 272.871031 82.355069 
L 273.537891 82.531554 
L 274.204751 80.895858 
L 274.871611 81.763589 
L 275.538471 83.097891 
L 276.205331 85.110692 
L 276.872191 83.420311 
L 277.539051 84.455734 
L 278.205911 84.681547 
L 278.872771 86.03041 
L 279.539631 87.913954 
L 280.206491 87.799762 
L 280.873351 86.972596 
L 281.540211 88.177265 
L 282.207071 89.809113 
L 282.873931 90.407449 
L 283.540791 87.622772 
L 284.207651 86.135533 
L 285.54137 85.931383 
L 286.20823 87.512827 
L 286.87509 87.938139 
L 287.54195 87.564976 
L 288.20881 88.545952 
L 288.87567 87.339253 
L 290.20939 68.561943 
L 291.54311 86.71035 
L 292.20997 87.501667 
L 292.87683 89.90475 
L 293.54369 91.063588 
L 294.21055 89.854036 
L 294.87741 92.384031 
L 296.21113 92.775888 
L 296.87799 93.235768 
L 297.54485 91.988053 
L 298.21171 91.427897 
L 298.87857 92.30463 
L 299.545429 94.184474 
L 300.212289 94.687877 
L 300.879149 95.887212 
L 301.546009 96.719815 
L 302.212869 96.415861 
L 302.879729 97.368456 
L 303.546589 96.787071 
L 304.213449 98.660205 
L 304.880309 98.212598 
L 305.547169 98.093744 
L 306.214029 98.35173 
L 306.880889 98.074276 
L 307.547749 100.703726 
L 308.214609 98.224405 
L 308.881469 97.938537 
L 309.548329 98.406478 
L 310.215189 100.696518 
L 310.882049 99.929934 
L 311.548909 99.938978 
L 312.215769 101.355305 
L 312.882629 102.106755 
L 313.549489 102.623686 
L 314.216348 102.905749 
L 314.883208 102.065069 
L 315.550068 101.935759 
L 316.216928 103.613629 
L 316.883788 103.830867 
L 317.550648 104.280082 
L 318.217508 105.128805 
L 319.551228 105.623599 
L 320.218088 107.068645 
L 320.884948 111.256974 
L 322.218668 106.647392 
L 322.885528 106.513583 
L 323.552388 108.586125 
L 324.219248 111.168445 
L 324.886108 111.772828 
L 325.552968 110.885996 
L 326.219828 111.496244 
L 326.886688 111.860166 
L 327.553548 112.949375 
L 328.220407 115.509691 
L 328.887267 116.392052 
L 329.554127 115.144117 
L 330.220987 115.552856 
L 330.887847 116.601333 
L 332.221567 116.704699 
L 332.888427 117.742002 
L 334.222147 117.910259 
L 334.889007 118.20131 
L 335.555867 118.050911 
L 336.222727 119.17065 
L 336.889587 118.97975 
L 337.556447 121.770304 
L 338.223307 122.309923 
L 338.890167 122.585875 
L 339.557027 124.243715 
L 340.223887 125.495466 
L 340.890747 126.087612 
L 341.557607 123.182136 
L 342.891326 127.006253 
L 343.558186 124.933772 
L 344.225046 125.741614 
L 344.891906 128.362075 
L 345.558766 128.817425 
L 346.225626 130.132924 
L 346.892486 130.641032 
L 347.559346 129.765452 
L 348.226206 130.423311 
L 348.893066 131.637206 
L 349.559926 129.471268 
L 350.226786 128.509595 
L 350.893646 130.113461 
L 351.560506 134.14948 
L 352.227366 143.544432 
L 353.561086 180.429483 
L 354.227946 180.923167 
L 354.894806 180.134918 
L 356.228525 146.42553 
L 356.895385 137.742665 
L 357.562245 134.659582 
L 358.229105 133.295758 
L 358.895965 131.537443 
L 359.562825 132.528618 
L 360.229685 132.15742 
L 360.896545 131.297731 
L 361.563405 132.4507 
L 362.230265 132.312789 
L 362.897125 130.531749 
L 364.230845 133.015105 
L 364.897705 132.311273 
L 365.564565 130.564393 
L 366.231425 129.549625 
L 366.898285 129.941574 
L 367.565145 129.049206 
L 368.232005 129.964625 
L 368.898865 129.868365 
L 369.565725 128.981648 
L 370.232585 124.803687 
L 370.899444 122.951383 
L 371.566304 124.795166 
L 372.233164 124.178842 
L 372.900024 122.555586 
L 373.566884 123.344277 
L 374.233744 122.56339 
L 375.567464 103.41909 
L 376.234324 112.962852 
L 376.901184 124.315619 
L 377.568044 121.96464 
L 378.901764 119.38063 
L 379.568624 120.575098 
L 380.902344 122.051113 
L 381.569204 117.266884 
L 382.236064 117.331587 
L 382.902924 116.23608 
L 384.236644 113.442622 
L 384.903503 112.809274 
L 385.570363 113.968594 
L 386.237223 117.35413 
L 386.904083 117.606838 
L 387.570943 117.279978 
L 388.237803 116.702573 
L 388.904663 116.764065 
L 389.571523 113.586094 
L 390.238383 113.052749 
L 390.905243 113.768503 
L 391.572103 115.208021 
L 392.238963 114.232992 
L 392.905823 113.993863 
L 394.239543 110.18992 
L 394.906403 111.224949 
L 396.906983 107.502076 
L 398.240703 111.243722 
L 398.907562 110.705408 
L 399.574422 108.472589 
L 400.908142 107.525678 
L 401.575002 104.947255 
L 402.241862 106.261673 
L 402.908722 106.54711 
L 403.575582 105.850092 
L 404.242442 105.790889 
L 404.909302 104.890161 
L 405.576162 105.345622 
L 406.243022 103.720045 
L 406.909882 104.160749 
L 407.576742 103.674441 
L 408.243602 101.342491 
L 408.910462 101.687935 
L 409.577322 102.249982 
L 410.244182 101.63837 
L 410.911042 102.032589 
L 411.577902 101.83713 
L 412.244762 102.365123 
L 412.911621 101.916516 
L 413.578481 102.407012 
L 414.245341 102.405637 
L 414.912201 99.826 
L 415.579061 99.905865 
L 416.245921 101.169504 
L 416.912781 99.395922 
L 417.579641 99.456694 
L 418.246501 100.130418 
L 418.913361 99.421411 
L 419.580221 101.945171 
L 420.247081 102.050916 
L 420.913941 99.284202 
L 421.580801 97.445164 
L 422.247661 97.268167 
L 422.914521 99.690824 
L 423.581381 98.384194 
L 424.248241 98.844693 
L 425.581961 98.556023 
L 426.248821 99.706513 
L 426.91568 99.145464 
L 427.58254 97.726743 
L 428.2494 96.616769 
L 428.91626 97.070647 
L 429.58312 97.904564 
L 430.91684 94.090067 
L 431.5837 95.771048 
L 432.25056 95.333472 
L 432.91742 95.211293 
L 433.58428 96.257055 
L 434.25114 96.044753 
L 434.918 96.387827 
L 435.58486 98.499157 
L 436.25172 98.266968 
L 436.91858 96.208244 
L 437.58544 95.061447 
L 438.2523 96.118335 
L 438.91916 81.531918 
L 439.58602 75.280687 
L 440.25288 88.435005 
L 440.91974 95.827511 
L 441.586599 96.309762 
L 442.253459 96.484156 
L 442.920319 94.526229 
L 443.587179 94.983354 
L 444.254039 98.001437 
L 444.920899 95.285573 
L 445.587759 94.213533 
L 446.254619 93.75489 
L 446.921479 92.651603 
L 447.588339 93.959153 
L 448.255199 94.877064 
L 448.922059 94.710359 
L 449.588919 92.503121 
L 450.255779 94.359882 
L 450.922639 97.7428 
L 451.589499 97.150114 
L 452.256359 95.756719 
L 452.923219 95.454034 
L 453.590079 96.594393 
L 454.256939 96.379282 
L 454.923799 93.487089 
L 455.590658 93.035367 
L 456.257518 95.598255 
L 456.924378 95.700933 
L 457.591238 94.470157 
L 458.258098 93.719871 
L 458.924958 93.753266 
L 459.591818 94.451589 
L 460.258678 84.936873 
L 460.925538 77.020392 
L 462.259258 91.84494 
L 462.926118 94.237661 
L 463.592978 93.446609 
L 464.259838 92.258005 
L 464.926698 93.740117 
L 465.593558 93.704488 
L 466.260418 94.320292 
L 466.927278 94.782188 
L 467.594138 94.438613 
L 468.260998 94.628884 
L 468.927858 94.582247 
L 469.594717 95.086707 
L 470.261577 95.322203 
L 470.928437 94.515452 
L 471.595297 95.487208 
L 472.262157 93.949083 
L 472.929017 95.47883 
L 473.595877 97.408498 
L 474.929597 93.348119 
L 475.596457 93.467947 
L 476.263317 95.244519 
L 476.930177 95.532018 
L 477.597037 97.135842 
L 478.263897 96.842442 
L 478.930757 96.207708 
L 479.597617 97.052691 
L 480.264477 98.134207 
L 480.931337 97.29978 
L 482.265057 96.91011 
L 482.931917 99.116312 
L 483.598776 98.684509 
L 484.265636 96.157145 
L 484.932496 98.289247 
L 485.599356 98.678997 
L 486.266216 98.682186 
L 486.933076 100.353417 
L 487.599936 101.427316 
L 488.266796 101.418129 
L 488.933656 99.467525 
L 489.600516 100.571572 
L 490.267376 99.749828 
L 490.934236 102.450799 
L 491.601096 103.360486 
L 492.267956 101.551973 
L 492.934816 101.120852 
L 493.601676 103.854655 
L 494.268536 104.495137 
L 495.602256 102.081397 
L 496.269116 102.693834 
L 496.935976 104.332495 
L 497.602836 104.387418 
L 498.936555 103.988603 
L 499.603415 105.118123 
L 500.270275 105.633991 
L 500.937135 104.541347 
L 501.603995 106.220742 
L 502.270855 106.175638 
L 502.937715 107.383079 
L 503.604575 105.317755 
L 504.271435 104.40471 
L 504.938295 105.484284 
L 506.272015 108.964962 
L 506.938875 108.581352 
L 507.605735 110.205068 
L 508.272595 110.273308 
L 508.939455 108.88222 
L 509.606315 109.850546 
L 510.273175 111.793065 
L 510.940035 109.906294 
L 511.606895 111.582559 
L 512.273754 113.880552 
L 512.940614 113.499226 
L 514.274334 115.181094 
L 514.941194 117.10871 
L 515.608054 117.668428 
L 516.274914 116.457324 
L 516.941774 116.344834 
L 517.608634 118.533134 
L 518.275494 118.537544 
L 518.942354 117.208496 
L 520.276074 119.010334 
L 520.942934 120.744667 
L 521.609794 121.568232 
L 522.276654 121.75814 
L 523.610374 124.547459 
L 524.277234 119.529651 
L 524.944094 118.266183 
L 526.277813 126.860534 
L 526.944673 127.43317 
L 527.611533 128.328723 
L 528.278393 128.587135 
L 528.945253 131.151682 
L 529.612113 130.968748 
L 530.278973 129.709431 
L 530.945833 132.201458 
L 532.279553 132.259869 
L 532.946413 134.043768 
L 533.613273 133.862905 
L 534.280133 134.55649 
L 534.946993 138.634964 
L 535.613853 139.602108 
L 536.280713 138.300048 
L 537.614433 143.188051 
L 538.281293 143.545554 
L 538.948153 142.467414 
L 540.281872 145.427896 
L 540.948732 145.633271 
L 541.615592 144.318105 
L 542.282452 145.664154 
L 542.949312 147.521485 
L 543.616172 150.203386 
L 544.949892 153.098866 
L 545.616752 147.989626 
L 546.283612 140.805371 
L 547.617332 156.361217 
L 548.284192 157.58474 
L 548.951052 157.619962 
L 549.617912 157.900781 
L 550.284772 163.403513 
L 550.951632 164.514988 
L 551.618492 165.24187 
L 552.285352 164.738049 
L 552.952212 167.861109 
L 553.619072 166.247566 
L 554.285931 169.208411 
L 554.952791 170.590794 
L 555.619651 172.452005 
L 556.286511 172.749197 
L 556.953371 174.187749 
L 557.620231 176.379315 
L 558.287091 177.357077 
L 558.953951 177.926909 
L 559.620811 180.540706 
L 560.287671 181.087171 
L 560.954531 183.043108 
L 562.288251 185.681395 
L 562.955111 186.597327 
L 563.621971 186.170837 
L 564.288831 187.825242 
L 564.955691 187.438424 
L 565.622551 189.029047 
L 566.956271 190.565345 
L 567.623131 189.774904 
L 568.289991 190.802399 
L 568.95685 190.571178 
L 569.62371 190.879456 
L 570.95743 191.046421 
L 571.62429 190.90863 
L 572.29115 191.256937 
L 572.95801 190.661573 
L 573.62487 191.011597 
L 574.29173 191.526886 
L 574.95859 190.887152 
L 575.62545 191.160185 
L 576.29231 190.77586 
L 576.95917 191.131154 
L 577.62603 190.701236 
L 578.29289 191.555217 
L 578.95975 190.65607 
L 579.62661 191.479146 
L 580.96033 191.235863 
L 581.62719 190.962147 
L 582.29405 191.707596 
L 582.960909 191.387034 
L 583.627769 191.773916 
L 584.294629 191.397915 
L 584.961489 191.711956 
L 585.628349 191.581866 
L 586.295209 191.895117 
L 586.962069 192.046225 
L 587.628929 191.865357 
L 588.295789 191.857917 
L 589.629509 192.108679 
L 590.963229 191.991634 
L 591.630089 192.442806 
L 592.296949 192.078468 
L 592.963809 192.434225 
L 593.630669 192.295402 
L 596.298109 192.496496 
L 596.964968 192.412057 
L 597.631828 192.73677 
L 598.298688 192.362063 
L 598.965548 192.818225 
L 599.632408 192.565976 
L 600.299268 192.736937 
L 601.632988 192.696678 
L 602.299848 192.854334 
L 602.966708 192.756168 
L 604.967288 192.939535 
L 605.634148 192.850296 
L 606.301008 193.002141 
L 606.967868 192.866467 
L 607.634728 193.077871 
L 608.301588 192.917846 
L 608.968448 193.126049 
L 609.635308 192.985891 
L 610.302168 193.107449 
L 612.969607 193.073082 
L 613.636467 193.350501 
L 614.303327 193.094797 
L 614.970187 193.4147 
L 615.637047 193.130066 
L 616.303907 193.399609 
L 616.970767 193.204832 
L 617.637627 193.408488 
L 619.638207 193.36149 
L 622.305647 193.55141 
L 622.972507 193.42408 
L 623.639367 193.621798 
L 624.306227 193.516433 
L 624.973087 193.622878 
L 626.306806 193.620519 
L 630.974826 193.762827 
L 633.642266 193.786917 
L 634.309126 193.890601 
L 634.975986 193.817029 
L 636.976566 193.982076 
L 637.643426 193.857259 
L 638.977146 193.958387 
L 639.644005 193.911704 
L 641.644585 194.098352 
L 642.311445 193.804255 
L 642.978305 194.170433 
L 643.645165 193.889753 
L 644.312025 194.267483 
L 644.978885 193.896233 
L 645.645745 194.002708 
L 646.312605 194.303685 
L 646.979465 193.990093 
L 647.646325 194.226187 
L 648.313185 194.027165 
L 648.980045 194.212209 
L 650.313765 194.117498 
L 650.980625 194.282263 
L 651.647485 194.154115 
L 652.314345 194.335735 
L 652.981205 194.10705 
L 653.648064 194.236493 
L 654.314924 194.242735 
L 654.981784 194.395877 
L 655.648644 194.22245 
L 656.982364 194.342251 
L 658.316084 194.297551 
L 659.649804 194.416988 
L 660.316664 194.348945 
L 661.650384 194.428659 
L 663.650964 194.443532 
L 673.653863 194.59696 
L 674.320723 194.514742 
L 674.987583 194.657442 
L 675.654443 194.519659 
L 677.655023 194.689885 
L 678.988743 194.522605 
L 679.655603 194.687755 
L 680.322463 194.718181 
L 680.989323 194.543718 
L 681.656182 194.805996 
L 682.323042 194.52775 
L 682.989902 194.771999 
L 683.656762 194.575834 
L 684.323622 194.683427 
L 684.990482 194.652236 
L 685.657342 194.791858 
L 686.324202 194.627313 
L 686.991062 194.754082 
L 687.657922 194.676998 
L 688.991642 194.814689 
L 689.658502 194.645873 
L 690.325362 194.802155 
L 690.992222 194.682853 
L 691.659082 194.782148 
L 694.326522 194.743548 
L 694.993382 194.830413 
L 695.660242 194.749362 
L 696.993961 194.781992 
L 702.328841 194.822747 
L 704.329421 194.77508 
L 704.996281 194.887794 
L 705.663141 194.772015 
L 706.330001 194.869081 
L 707.663721 194.82141 
L 710.33116 194.898275 
L 710.99802 194.707599 
L 711.66488 194.927646 
L 712.33174 194.800349 
L 716.3329 194.845402 
L 716.99976 201.522919 
L 716.99976 201.522919 
" clip-path="url(#pc5f9ca8eec)" style="fill: none; stroke: #000000; stroke-width: 0.5; stroke-linecap: square"/>
   </g>
   <g id="patch_3">
    <path d="M 44.804928 218.64351 
L 44.804928 18.118365 
" style="fill: none; stroke: #000000; stroke-width: 0.8; stroke-linejoin: miter; stroke-linecap: square"/>
   </g>
   <g id="patch_4">
    <path d="M 716.99976 218.64351 
L 716.99976 18.118365 
" style="fill: none; stroke: #000000; stroke-width: 0.8; stroke-linejoin: miter; stroke-linecap: square"/>
   </g>
   <g id="patch_5">
    <path d="M 44.804928 218.64351 
L 716.99976 218.64351 
" style="fill: none; stroke: #000000; stroke-width: 0.8; stroke-linejoin: miter; stroke-linecap: square"/>
   </g>
   <g id="patch_6">
    <path d="M 44.804928 18.118365 
L 716.99976 18.118365 
" style="fill: none; stroke: #000000; stroke-width: 0.8; stroke-linejoin: miter; stroke-linecap: square"/>
   </g>
   <g id="text_18">
    <!-- EEG -->
    <g transform="translate(368.670781 12.118365) scale(0.12 -0.12)">
     <defs>
      <path id="DejaVuSans-45" d="M 628 4666 
L 3578 4666 
L 3578 4134 
L 1259 4134 
L 1259 2753 
L 3481 2753 
L 3481 2222 
L 1259 2222 
L 1259 531 
L 3634 531 
L 3634 0 
L 628 0 
L 628 4666 
z
" transform="scale(0.015625)"/>
      <path id="DejaVuSans-47" d="M 3809 666 
L 3809 1919 
L 2778 1919 
L 2778 2438 
L 4434 2438 
L 4434 434 
Q 4069 175 3628 42 
Q 3188 -91 2688 -91 
Q 1594 -91 976 548 
Q 359 1188 359 2328 
Q 359 3472 976 4111 
Q 1594 4750 2688 4750 
Q 3144 4750 3555 4637 
Q 3966 4525 4313 4306 
L 4313 3634 
Q 3963 3931 3569 4081 
Q 3175 4231 2741 4231 
Q 1884 4231 1454 3753 
Q 1025 3275 1025 2328 
Q 1025 1384 1454 906 
Q 1884 428 2741 428 
Q 3075 428 3337 486 
Q 3600 544 3809 666 
z
" transform="scale(0.015625)"/>
     </defs>
     <use xlink:href="#DejaVuSans-45"/>
     <use xlink:href="#DejaVuSans-45" transform="translate(63.183594 0)"/>
     <use xlink:href="#DejaVuSans-47" transform="translate(126.367188 0)"/>
    </g>
   </g>
  </g>
 </g>
 <defs>
  <clipPath id="pc5f9ca8eec">
   <rect x="44.804928" y="18.118365" width="672.194832" height="200.525145"/>
  </clipPath>
 </defs>
</svg>
