<?xml version="1.0" encoding="utf-8" standalone="no"?>
<!DOCTYPE svg PUBLIC "-//W3C//DTD SVG 1.1//EN"
  "http://www.w3.org/Graphics/SVG/1.1/DTD/svg11.dtd">
<svg xmlns:xlink="http://www.w3.org/1999/xlink" width="720pt" height="252pt" viewBox="0 0 720 252" xmlns="http://www.w3.org/2000/svg" version="1.1">
 <metadata>
  <rdf:RDF xmlns:dc="http://purl.org/dc/elements/1.1/" xmlns:cc="http://creativecommons.org/ns#" xmlns:rdf="http://www.w3.org/1999/02/22-rdf-syntax-ns#">
   <cc:Work>
    <dc:type rdf:resource="http://purl.org/dc/dcmitype/StillImage"/>
    <dc:date>2025-05-15T02:25:48.495870</dc:date>
    <dc:format>image/svg+xml</dc:format>
    <dc:creator>
     <cc:Agent>
      <dc:title>Matplotlib v3.10.1, https://matplotlib.org/</dc:title>
     </cc:Agent>
    </dc:creator>
   </cc:Work>
  </rdf:RDF>
 </metadata>
 <defs>
  <style type="text/css">*{stroke-linejoin: round; stroke-linecap: butt}</style>
 </defs>
 <g id="figure_1">
  <g id="patch_1">
   <path d="M 0 252 
L 720 252 
L 720 0 
L 0 0 
L 0 252 
z
" style="fill: none"/>
  </g>
  <g id="axes_1">
   <g id="patch_2">
    <path d="M 44.804928 218.64351 
L 716.99976 218.64351 
L 716.99976 18.118365 
L 44.804928 18.118365 
L 44.804928 218.64351 
z
" style="fill: none"/>
   </g>
   <g id="FillBetweenPolyCollection_1">
    <path d="M 44.804928 29.993898 
L 44.804928 61.122621 
L 45.471787 60.265133 
L 46.138647 63.411318 
L 46.805507 63.845549 
L 47.472367 68.826677 
L 48.139227 67.747087 
L 48.806087 65.687077 
L 49.472947 71.80806 
L 50.139807 68.043871 
L 50.806667 70.462652 
L 51.473527 70.517099 
L 52.140387 71.898753 
L 52.807247 69.962556 
L 53.474107 70.250518 
L 54.140967 74.471159 
L 54.807827 68.380412 
L 55.474687 65.202186 
L 56.141547 67.96574 
L 56.808407 66.870604 
L 57.475267 70.438988 
L 58.142127 73.942438 
L 58.808987 77.057606 
L 59.475846 77.531696 
L 60.142706 75.95101 
L 60.809566 73.628344 
L 61.476426 75.342773 
L 62.143286 76.031844 
L 62.810146 81.224812 
L 63.477006 80.370368 
L 64.143866 79.108508 
L 64.810726 82.117658 
L 65.477586 80.393947 
L 66.144446 76.02686 
L 66.811306 80.329804 
L 67.478166 77.676881 
L 68.145026 79.520424 
L 68.811886 81.492373 
L 69.478746 79.286466 
L 70.145606 77.294776 
L 70.812466 83.224493 
L 71.479326 84.064167 
L 72.146186 83.089944 
L 72.813046 87.25371 
L 73.479905 85.768473 
L 74.146765 84.730979 
L 74.813625 80.974676 
L 75.480485 82.757787 
L 76.147345 88.34465 
L 76.814205 90.142472 
L 77.481065 93.513088 
L 78.147925 89.762398 
L 78.814785 87.596102 
L 79.481645 90.35984 
L 80.148505 89.550305 
L 80.815365 93.528917 
L 81.482225 97.329813 
L 82.149085 98.104699 
L 82.815945 96.061207 
L 83.482805 92.774734 
L 84.149665 93.097122 
L 84.816525 94.293448 
L 85.483385 91.912667 
L 86.150245 95.142415 
L 86.817105 101.802871 
L 87.483964 100.476422 
L 88.150824 102.636693 
L 88.817684 99.712739 
L 89.484544 99.177522 
L 90.151404 99.637805 
L 90.818264 94.931051 
L 91.485124 99.258106 
L 92.151984 101.503964 
L 92.818844 98.871676 
L 93.485704 104.23785 
L 94.152564 99.69689 
L 94.819424 102.003365 
L 95.486284 100.504408 
L 96.153144 106.597817 
L 96.820004 103.814651 
L 97.486864 103.470709 
L 98.153724 103.882194 
L 98.820584 103.004555 
L 99.487444 107.833029 
L 100.154304 106.276669 
L 100.821164 105.627692 
L 101.488023 102.948178 
L 102.154883 109.217956 
L 102.821743 109.421695 
L 103.488603 103.747257 
L 104.155463 104.827116 
L 104.822323 109.765047 
L 105.489183 108.920107 
L 106.156043 108.780349 
L 106.822903 107.590201 
L 107.489763 105.665989 
L 108.156623 108.137464 
L 108.823483 111.671358 
L 109.490343 107.698082 
L 110.157203 106.515785 
L 110.824063 103.101013 
L 111.490923 108.301107 
L 112.157783 112.114215 
L 112.824643 110.517101 
L 113.491503 108.411582 
L 114.158363 107.408174 
L 114.825223 106.522282 
L 115.492083 105.054569 
L 116.158942 112.716258 
L 116.825802 113.12406 
L 117.492662 111.445606 
L 118.159522 111.803998 
L 118.826382 96.717731 
L 119.493242 87.244678 
L 120.160102 98.828132 
L 120.826962 111.007612 
L 121.493822 115.877604 
L 122.160682 114.048091 
L 122.827542 110.716489 
L 123.494402 107.731835 
L 124.161262 105.414469 
L 124.828122 108.179139 
L 125.494982 112.81496 
L 126.161842 112.601899 
L 126.828702 113.212468 
L 127.495562 111.222819 
L 128.162422 112.377677 
L 128.829282 115.191362 
L 129.496142 117.277221 
L 130.163001 112.853791 
L 130.829861 108.688624 
L 131.496721 109.664888 
L 132.163581 111.768578 
L 132.830441 115.940351 
L 133.497301 113.854654 
L 134.164161 112.409393 
L 134.831021 111.409831 
L 135.497881 113.29753 
L 136.164741 111.409521 
L 136.831601 109.717959 
L 137.498461 111.360529 
L 138.165321 114.089378 
L 138.832181 114.421786 
L 139.499041 113.456219 
L 140.165901 115.017632 
L 140.832761 114.720587 
L 141.499621 113.949533 
L 142.166481 115.43101 
L 142.833341 119.046637 
L 143.500201 117.22645 
L 144.16706 116.568026 
L 144.83392 115.915711 
L 145.50078 114.912604 
L 146.16764 113.218365 
L 146.8345 111.955081 
L 147.50136 116.023303 
L 148.16822 116.044908 
L 148.83508 117.086261 
L 149.50194 116.813761 
L 150.1688 118.899635 
L 150.83566 118.283008 
L 151.50252 115.057269 
L 152.16938 113.877027 
L 152.83624 111.86398 
L 153.5031 115.34626 
L 154.16996 118.56769 
L 154.83682 116.144645 
L 155.50368 117.724303 
L 156.17054 121.202825 
L 156.8374 121.356787 
L 157.50426 119.065649 
L 158.171119 120.394785 
L 158.837979 117.906141 
L 159.504839 117.139411 
L 160.171699 115.054108 
L 160.838559 120.12982 
L 161.505419 116.231993 
L 162.172279 116.069452 
L 162.839139 117.469691 
L 163.505999 120.30845 
L 164.172859 122.274628 
L 164.839719 121.088721 
L 165.506579 119.531747 
L 166.173439 118.038086 
L 166.840299 115.878777 
L 167.507159 117.524658 
L 168.174019 118.884649 
L 168.840879 116.426582 
L 169.507739 115.684198 
L 170.174599 116.700352 
L 170.841459 117.444529 
L 171.508319 120.899752 
L 172.175178 121.931802 
L 172.842038 119.828091 
L 173.508898 119.387902 
L 174.175758 121.578011 
L 174.842618 119.837155 
L 175.509478 119.034178 
L 176.176338 120.622169 
L 176.843198 117.075306 
L 177.510058 119.258795 
L 178.176918 119.771432 
L 178.843778 119.10449 
L 179.510638 121.203592 
L 180.177498 118.306593 
L 180.844358 118.726958 
L 181.511218 117.726437 
L 182.178078 115.917697 
L 182.844938 114.066626 
L 183.511798 112.079096 
L 184.178658 114.340198 
L 184.845518 116.050617 
L 185.512378 116.072591 
L 186.179238 113.012343 
L 186.846097 118.748504 
L 187.512957 119.008653 
L 188.179817 119.222656 
L 188.846677 121.564898 
L 189.513537 116.399148 
L 190.180397 116.114976 
L 190.847257 116.538016 
L 191.514117 117.258366 
L 192.180977 115.376902 
L 192.847837 119.127703 
L 193.514697 117.799713 
L 194.181557 119.068535 
L 194.848417 116.080322 
L 195.515277 114.81082 
L 196.182137 113.967747 
L 196.848997 117.831703 
L 197.515857 121.866319 
L 198.182717 119.519667 
L 198.849577 116.156321 
L 199.516437 116.710742 
L 200.183297 120.357513 
L 200.850156 120.314432 
L 201.517016 120.012929 
L 202.183876 119.868283 
L 202.850736 119.914755 
L 203.517596 122.403556 
L 204.184456 100.696488 
L 204.851316 84.222706 
L 205.518176 98.197444 
L 206.185036 118.566953 
L 206.851896 118.709597 
L 207.518756 120.028693 
L 208.185616 123.440685 
L 208.852476 124.800675 
L 209.519336 121.482135 
L 210.186196 119.892847 
L 210.853056 118.767191 
L 211.519916 116.1669 
L 212.186776 119.158635 
L 212.853636 117.613079 
L 213.520496 119.034347 
L 214.187356 118.939723 
L 214.854215 119.904037 
L 215.521075 120.639995 
L 216.187935 121.251827 
L 216.854795 123.088994 
L 217.521655 121.072469 
L 218.188515 121.607221 
L 218.855375 123.362093 
L 219.522235 122.833861 
L 220.189095 120.398003 
L 220.855955 120.55051 
L 221.522815 119.93667 
L 222.189675 121.900615 
L 222.856535 121.743187 
L 223.523395 125.143792 
L 224.190255 123.405778 
L 224.857115 121.928789 
L 225.523975 122.067438 
L 226.190835 119.546339 
L 226.857695 118.462458 
L 227.524555 119.025655 
L 228.191415 121.442285 
L 228.858274 122.137149 
L 229.525134 125.588863 
L 230.191994 124.213254 
L 230.858854 121.527644 
L 231.525714 120.745654 
L 232.192574 122.684101 
L 232.859434 119.294389 
L 233.526294 117.511291 
L 234.193154 119.364259 
L 234.860014 118.862136 
L 235.526874 123.539451 
L 236.193734 126.758356 
L 236.860594 125.235225 
L 237.527454 121.823612 
L 238.194314 120.791551 
L 238.861174 120.666402 
L 239.528034 124.934018 
L 240.194894 123.900798 
L 240.861754 126.066624 
L 241.528614 122.190257 
L 242.195474 122.027522 
L 242.862334 120.16708 
L 243.529193 121.824355 
L 244.196053 124.713873 
L 244.862913 128.885704 
L 245.529773 124.965623 
L 246.196633 125.871412 
L 246.863493 125.271874 
L 247.530353 124.383327 
L 248.197213 125.344752 
L 248.864073 124.561984 
L 249.530933 124.424201 
L 250.197793 126.275998 
L 250.864653 126.060215 
L 251.531513 123.809624 
L 252.198373 124.41242 
L 252.865233 130.071896 
L 253.532093 132.451318 
L 254.198953 132.22758 
L 254.865813 129.406719 
L 255.532673 131.697673 
L 256.199533 125.794653 
L 256.866393 126.996651 
L 257.533252 130.912635 
L 258.200112 128.363029 
L 258.866972 130.331466 
L 259.533832 135.133168 
L 260.200692 136.216063 
L 260.867552 132.666655 
L 261.534412 129.531311 
L 262.201272 129.84592 
L 262.868132 133.104741 
L 263.534992 132.805075 
L 264.201852 129.071205 
L 264.868712 132.748444 
L 265.535572 132.121958 
L 266.202432 134.420868 
L 266.869292 133.038583 
L 267.536152 137.811557 
L 268.203012 132.711225 
L 268.869872 123.753532 
L 269.536732 123.696197 
L 270.203592 133.300701 
L 270.870452 134.905494 
L 271.537311 134.172728 
L 272.204171 133.692532 
L 272.871031 133.103879 
L 273.537891 132.264578 
L 274.204751 130.5004 
L 274.871611 133.186684 
L 275.538471 134.864867 
L 276.205331 134.912267 
L 276.872191 131.635837 
L 277.539051 135.252167 
L 278.205911 137.128331 
L 278.872771 137.78087 
L 279.539631 140.361087 
L 280.206491 139.063576 
L 280.873351 135.388622 
L 281.540211 136.874994 
L 282.207071 141.455468 
L 282.873931 145.408797 
L 283.540791 141.177612 
L 284.207651 138.760014 
L 284.874511 139.368972 
L 285.54137 137.460326 
L 286.20823 140.351708 
L 286.87509 141.618693 
L 287.54195 141.370192 
L 288.20881 144.161534 
L 288.87567 142.509263 
L 289.54253 118.133024 
L 290.20939 106.602573 
L 290.87625 118.608494 
L 291.54311 142.566398 
L 292.20997 141.123444 
L 292.87683 145.136662 
L 293.54369 146.166379 
L 294.21055 142.705162 
L 294.87741 148.708331 
L 295.54427 151.250964 
L 296.21113 150.074091 
L 296.87799 149.630083 
L 297.54485 147.262504 
L 298.21171 143.76344 
L 298.87857 147.096929 
L 299.545429 150.278569 
L 300.212289 150.848744 
L 300.879149 150.822517 
L 301.546009 153.688074 
L 302.212869 154.311997 
L 302.879729 155.522 
L 303.546589 154.954716 
L 304.213449 158.32628 
L 304.880309 156.100097 
L 305.547169 154.890733 
L 306.214029 158.582913 
L 306.880889 157.377154 
L 307.547749 159.908878 
L 308.214609 157.215068 
L 308.881469 155.699229 
L 309.548329 158.848539 
L 310.215189 162.755423 
L 310.882049 158.657519 
L 311.548909 155.410519 
L 312.215769 159.187364 
L 312.882629 163.9506 
L 313.549489 165.155978 
L 314.216348 163.091409 
L 314.883208 162.438083 
L 315.550068 163.822685 
L 316.216928 163.694382 
L 316.883788 165.866612 
L 317.550648 167.937248 
L 318.217508 165.961658 
L 318.884368 166.30898 
L 319.551228 165.855753 
L 320.218088 167.308649 
L 320.884948 176.47973 
L 321.551808 174.021238 
L 322.218668 170.681815 
L 322.885528 169.678825 
L 323.552388 172.749204 
L 324.219248 174.930264 
L 324.886108 177.765661 
L 325.552968 176.459097 
L 326.219828 176.010532 
L 326.886688 178.239788 
L 327.553548 180.57338 
L 328.220407 182.624185 
L 328.887267 184.427948 
L 329.554127 184.751696 
L 330.220987 183.216644 
L 330.887847 180.620124 
L 331.554707 181.260378 
L 332.221567 183.766703 
L 332.888427 186.691571 
L 333.555287 186.111931 
L 334.222147 184.559059 
L 334.889007 187.046531 
L 335.555867 185.207748 
L 336.222727 186.731793 
L 336.889587 185.635344 
L 337.556447 187.508771 
L 338.223307 192.273585 
L 338.890167 191.874746 
L 339.557027 197.678054 
L 340.223887 195.308755 
L 340.890747 195.842123 
L 341.557607 192.044869 
L 342.224466 195.363983 
L 342.891326 198.532265 
L 343.558186 196.337064 
L 344.225046 195.072485 
L 344.891906 199.981001 
L 345.558766 199.843688 
L 346.225626 201.134346 
L 346.892486 203.813916 
L 347.559346 204.44598 
L 348.226206 204.99434 
L 348.893066 205.196848 
L 349.559926 203.914646 
L 350.226786 199.946402 
L 350.893646 200.039924 
L 351.560506 203.2128 
L 352.227366 202.912884 
L 352.894226 199.810035 
L 353.561086 167.0613 
L 354.227946 142.309689 
L 354.894806 159.840984 
L 355.561666 202.984443 
L 356.228525 205.521361 
L 356.895385 207.858944 
L 357.562245 204.490989 
L 358.229105 205.221282 
L 358.895965 201.998383 
L 359.562825 204.680739 
L 360.229685 206.558039 
L 360.896545 205.695467 
L 361.563405 205.881839 
L 362.230265 205.0129 
L 362.897125 203.363475 
L 363.563985 209.528731 
L 364.230845 208.233046 
L 364.897705 208.879794 
L 365.564565 206.991646 
L 366.231425 202.494777 
L 366.898285 203.042787 
L 367.565145 198.946767 
L 368.232005 204.081623 
L 368.898865 204.256686 
L 369.565725 203.673022 
L 370.232585 198.003159 
L 370.899444 193.754193 
L 371.566304 196.153334 
L 372.233164 197.624466 
L 372.900024 194.840677 
L 373.566884 197.949633 
L 374.233744 197.571805 
L 374.900604 171.555486 
L 375.567464 155.386049 
L 376.234324 170.297419 
L 376.901184 197.596973 
L 377.568044 191.49509 
L 378.234904 190.765477 
L 378.901764 190.112891 
L 379.568624 192.852104 
L 380.235484 193.151743 
L 380.902344 195.972488 
L 381.569204 187.034431 
L 382.236064 189.052087 
L 382.902924 189.639938 
L 383.569784 186.477849 
L 384.236644 184.963382 
L 384.903503 182.716817 
L 385.570363 183.264576 
L 386.237223 187.187268 
L 386.904083 185.084864 
L 387.570943 186.916718 
L 388.237803 184.160178 
L 388.904663 186.296032 
L 389.571523 181.346067 
L 390.238383 181.412034 
L 390.905243 182.416332 
L 391.572103 185.212022 
L 392.238963 181.38095 
L 392.905823 180.145616 
L 393.572683 179.959583 
L 394.239543 175.19348 
L 394.906403 176.094328 
L 395.573263 175.126098 
L 396.240123 172.177732 
L 396.906983 170.568129 
L 397.573843 174.757444 
L 398.240703 176.869856 
L 398.907562 176.038201 
L 399.574422 171.324656 
L 400.241282 169.500251 
L 400.908142 172.519115 
L 401.575002 169.092554 
L 402.241862 170.126382 
L 402.908722 171.028364 
L 403.575582 169.018236 
L 404.242442 168.549417 
L 404.909302 166.553396 
L 405.576162 167.481347 
L 406.243022 165.418419 
L 406.909882 167.519269 
L 407.576742 166.792766 
L 408.243602 163.439138 
L 408.910462 162.975489 
L 409.577322 165.447416 
L 410.244182 164.310029 
L 410.911042 166.29378 
L 411.577902 166.651594 
L 412.244762 165.25617 
L 412.911621 163.787455 
L 413.578481 165.733016 
L 414.245341 161.866375 
L 414.912201 159.714474 
L 415.579061 159.550727 
L 416.245921 161.938892 
L 416.912781 159.806155 
L 417.579641 157.4842 
L 418.246501 154.727024 
L 418.913361 156.23825 
L 419.580221 162.835253 
L 420.247081 163.601661 
L 420.913941 161.781187 
L 421.580801 157.825146 
L 422.247661 156.912424 
L 422.914521 159.331797 
L 423.581381 156.090147 
L 424.248241 156.015317 
L 424.915101 158.923544 
L 425.581961 157.172668 
L 426.248821 161.651587 
L 426.91568 158.517926 
L 427.58254 153.278451 
L 428.2494 151.34026 
L 428.91626 155.656606 
L 429.58312 159.248684 
L 430.24998 156.14018 
L 430.91684 152.928654 
L 431.5837 156.443168 
L 432.25056 155.086541 
L 432.91742 151.307576 
L 433.58428 153.937963 
L 434.25114 152.709502 
L 434.918 153.297816 
L 435.58486 156.648585 
L 436.25172 155.29139 
L 436.91858 153.31367 
L 437.58544 151.50884 
L 438.2523 154.266516 
L 438.91916 133.355295 
L 439.58602 124.306855 
L 440.25288 141.517195 
L 440.91974 152.895366 
L 441.586599 152.138177 
L 442.253459 152.200975 
L 442.920319 153.032649 
L 443.587179 152.640637 
L 444.254039 155.914523 
L 444.920899 148.314469 
L 445.587759 149.263896 
L 446.254619 151.130664 
L 446.921479 149.242502 
L 447.588339 152.659066 
L 448.255199 152.372423 
L 448.922059 150.602985 
L 449.588919 147.587982 
L 450.255779 150.201627 
L 450.922639 153.673688 
L 451.589499 153.501058 
L 452.256359 151.076963 
L 452.923219 154.424011 
L 453.590079 156.901751 
L 454.256939 154.912243 
L 454.923799 151.585194 
L 455.590658 150.459238 
L 456.257518 152.496812 
L 456.924378 152.457603 
L 457.591238 152.15675 
L 458.258098 151.040172 
L 458.924958 148.004628 
L 459.591818 150.784153 
L 460.258678 128.494958 
L 460.925538 115.524237 
L 461.592398 128.47599 
L 462.259258 146.36308 
L 462.926118 153.53156 
L 463.592978 152.690626 
L 464.259838 148.222833 
L 464.926698 152.804183 
L 465.593558 154.465629 
L 466.260418 155.184257 
L 466.927278 154.466496 
L 467.594138 152.042259 
L 468.260998 152.44233 
L 468.927858 151.377278 
L 469.594717 150.498618 
L 470.261577 152.764211 
L 470.928437 152.399618 
L 471.595297 154.827306 
L 472.262157 150.735699 
L 472.929017 152.570418 
L 473.595877 154.667477 
L 474.262737 152.040867 
L 474.929597 147.893569 
L 475.596457 151.727023 
L 476.263317 153.049849 
L 476.930177 149.444461 
L 477.597037 151.121318 
L 478.263897 152.863785 
L 478.930757 154.488132 
L 479.597617 156.681694 
L 480.264477 157.493772 
L 480.931337 153.03423 
L 481.598197 150.32251 
L 482.265057 150.270797 
L 482.931917 153.852225 
L 483.598776 155.217983 
L 484.265636 152.701654 
L 484.932496 152.983128 
L 485.599356 154.011934 
L 486.266216 154.22707 
L 486.933076 156.009066 
L 487.599936 155.412275 
L 488.266796 155.507677 
L 488.933656 151.624906 
L 489.600516 153.959307 
L 490.267376 153.201745 
L 490.934236 158.598636 
L 491.601096 161.244234 
L 492.267956 157.212203 
L 492.934816 153.761568 
L 493.601676 154.598424 
L 494.268536 156.323262 
L 494.935396 156.555837 
L 495.602256 154.000096 
L 496.269116 151.071089 
L 496.935976 155.206754 
L 497.602836 153.606053 
L 498.269695 157.32702 
L 498.936555 159.063639 
L 499.603415 159.539425 
L 500.270275 158.443301 
L 500.937135 154.962047 
L 501.603995 156.233125 
L 502.270855 157.289782 
L 502.937715 159.583304 
L 503.604575 154.960257 
L 504.271435 156.138604 
L 504.938295 157.682281 
L 505.605155 158.727367 
L 506.272015 156.820743 
L 506.938875 156.363345 
L 507.605735 159.319662 
L 508.272595 158.535039 
L 508.939455 156.310633 
L 509.606315 157.106597 
L 510.273175 158.754657 
L 510.940035 155.516173 
L 511.606895 159.399988 
L 512.273754 161.016542 
L 512.940614 158.984954 
L 513.607474 159.402481 
L 514.274334 158.512556 
L 514.941194 159.915933 
L 515.608054 161.084899 
L 516.274914 162.415715 
L 516.941774 163.045846 
L 517.608634 166.548528 
L 518.275494 165.726332 
L 518.942354 161.861759 
L 519.609214 162.880289 
L 520.276074 161.778736 
L 520.942934 163.742503 
L 521.609794 161.610791 
L 522.276654 162.033355 
L 522.943514 165.264268 
L 523.610374 165.170304 
L 524.277234 154.870774 
L 524.944094 152.124744 
L 525.610954 158.37363 
L 526.277813 162.927717 
L 526.944673 163.871962 
L 527.611533 163.822869 
L 528.278393 165.379777 
L 528.945253 166.11154 
L 529.612113 164.640169 
L 530.278973 165.009544 
L 530.945833 167.174906 
L 531.612693 167.754275 
L 532.279553 166.11959 
L 532.946413 161.790675 
L 533.613273 159.70841 
L 534.280133 161.15599 
L 534.946993 166.389747 
L 535.613853 164.999795 
L 536.280713 164.145185 
L 536.947573 166.580544 
L 537.614433 170.163247 
L 538.281293 168.77793 
L 538.948153 165.972995 
L 539.615013 168.750039 
L 540.281872 168.011184 
L 540.948732 168.619048 
L 541.615592 165.333102 
L 542.282452 166.879299 
L 542.949312 167.219066 
L 543.616172 167.712767 
L 544.283032 167.349621 
L 544.949892 167.605033 
L 545.616752 153.016121 
L 546.283612 139.313063 
L 546.950472 150.97035 
L 547.617332 167.405916 
L 548.284192 167.491844 
L 548.951052 166.677307 
L 549.617912 164.94538 
L 550.284772 169.771384 
L 550.951632 172.979884 
L 551.618492 171.949743 
L 552.285352 172.118608 
L 552.952212 172.360329 
L 553.619072 169.623355 
L 554.285931 168.464307 
L 554.952791 172.287545 
L 555.619651 172.558599 
L 556.286511 171.185101 
L 556.953371 170.382563 
L 557.620231 173.816631 
L 558.287091 170.933738 
L 558.953951 167.985794 
L 559.620811 168.54988 
L 560.287671 170.14841 
L 560.954531 173.160584 
L 561.621391 168.599216 
L 562.288251 171.219551 
L 562.955111 174.359716 
L 563.621971 170.854347 
L 564.288831 168.901222 
L 564.955691 169.818866 
L 565.622551 170.970808 
L 566.289411 170.314017 
L 566.956271 169.470075 
L 567.623131 167.541433 
L 568.289991 169.110424 
L 568.95685 170.008196 
L 569.62371 174.150592 
L 570.29057 175.32319 
L 570.95743 171.916631 
L 571.62429 168.199073 
L 572.29115 172.997065 
L 572.95801 173.535286 
L 573.62487 171.479741 
L 574.29173 171.006701 
L 574.95859 172.886849 
L 575.62545 172.886835 
L 576.29231 171.547563 
L 576.95917 172.488914 
L 577.62603 168.921536 
L 578.29289 170.617688 
L 578.95975 171.223704 
L 579.62661 169.167254 
L 580.29347 167.034179 
L 580.96033 171.111752 
L 581.62719 172.265195 
L 582.29405 176.824991 
L 582.960909 175.21048 
L 583.627769 178.164638 
L 584.294629 173.126356 
L 584.961489 173.873245 
L 585.628349 174.155216 
L 586.295209 175.305781 
L 586.962069 171.836884 
L 587.628929 173.550065 
L 588.295789 174.446214 
L 588.962649 168.129071 
L 589.629509 171.878102 
L 590.296369 173.871716 
L 590.963229 172.843853 
L 591.630089 172.83901 
L 592.296949 171.419064 
L 592.963809 176.049541 
L 593.630669 178.458887 
L 594.297529 173.798963 
L 594.964389 169.639534 
L 595.631249 171.641654 
L 596.298109 177.660117 
L 596.964968 175.17826 
L 597.631828 174.625296 
L 598.298688 177.529732 
L 598.965548 176.818972 
L 599.632408 176.356017 
L 600.299268 176.612472 
L 600.966128 177.113072 
L 601.632988 175.544847 
L 602.299848 176.07041 
L 602.966708 173.027999 
L 603.633568 174.81895 
L 604.300428 179.199773 
L 604.967288 177.457546 
L 605.634148 176.759442 
L 606.301008 174.557835 
L 606.967868 174.050634 
L 607.634728 175.047793 
L 608.301588 177.002321 
L 608.968448 174.700189 
L 609.635308 172.638104 
L 610.302168 168.205362 
L 610.969027 171.122526 
L 611.635887 171.164064 
L 612.302747 175.20375 
L 612.969607 175.116811 
L 613.636467 178.297986 
L 614.303327 180.228977 
L 614.970187 177.721278 
L 615.637047 177.174176 
L 616.303907 170.620536 
L 616.970767 171.024601 
L 617.637627 174.090209 
L 618.304487 176.671747 
L 618.971347 176.537889 
L 619.638207 176.439333 
L 620.305067 176.256016 
L 620.971927 173.69233 
L 621.638787 173.239972 
L 622.305647 174.197958 
L 622.972507 174.225679 
L 623.639367 175.197277 
L 624.306227 179.41163 
L 624.973087 179.992241 
L 625.639946 175.017842 
L 626.306806 175.286934 
L 626.973666 176.159498 
L 627.640526 177.234 
L 628.307386 176.510001 
L 628.974246 175.21685 
L 629.641106 177.859216 
L 630.307966 173.913476 
L 630.974826 161.348067 
L 631.641686 150.164756 
L 632.308546 161.128285 
L 632.975406 174.816917 
L 633.642266 174.441866 
L 634.309126 172.498261 
L 634.975986 172.30012 
L 635.642846 175.166326 
L 636.309706 179.270343 
L 636.976566 177.197967 
L 637.643426 177.46278 
L 638.310286 177.526718 
L 638.977146 178.415795 
L 639.644005 179.054831 
L 640.310865 180.018192 
L 640.977725 181.765607 
L 641.644585 179.394823 
L 642.311445 179.688963 
L 642.978305 178.765211 
L 643.645165 180.420334 
L 644.312025 180.460477 
L 644.978885 178.334159 
L 645.645745 179.622307 
L 646.312605 178.002105 
L 646.979465 180.120335 
L 647.646325 181.843954 
L 648.313185 182.26608 
L 648.980045 177.925086 
L 649.646905 178.83881 
L 650.313765 178.957772 
L 650.980625 177.616042 
L 651.647485 180.702836 
L 652.314345 176.030865 
L 652.981205 176.275857 
L 653.648064 177.110445 
L 654.314924 181.222769 
L 654.981784 180.137443 
L 655.648644 178.180071 
L 656.315504 179.276572 
L 656.982364 182.526446 
L 657.649224 181.860005 
L 658.316084 181.577594 
L 658.982944 183.420228 
L 659.649804 180.106814 
L 660.316664 178.569866 
L 660.983524 179.637799 
L 661.650384 182.207629 
L 662.317244 181.158892 
L 662.984104 180.153991 
L 663.650964 183.461351 
L 664.317824 180.622075 
L 664.984684 181.707161 
L 665.651544 183.005154 
L 666.318404 182.623123 
L 666.985264 183.067614 
L 667.652123 185.249668 
L 668.318983 181.104505 
L 668.985843 182.503722 
L 669.652703 183.616694 
L 670.319563 181.483538 
L 670.986423 181.554361 
L 671.653283 183.300278 
L 672.320143 178.163881 
L 672.987003 178.276384 
L 673.653863 175.146367 
L 674.320723 168.654634 
L 674.987583 175.115221 
L 675.654443 180.052459 
L 676.321303 181.749048 
L 676.988163 183.70312 
L 677.655023 181.315893 
L 678.321883 181.576293 
L 678.988743 178.615619 
L 679.655603 180.405701 
L 680.322463 185.848007 
L 680.989323 185.590239 
L 681.656182 181.380693 
L 682.323042 181.86269 
L 682.989902 180.75943 
L 683.656762 182.044352 
L 684.323622 184.752502 
L 684.990482 185.651973 
L 685.657342 189.578366 
L 686.324202 188.161871 
L 686.991062 186.133463 
L 687.657922 187.599111 
L 688.324782 187.651595 
L 688.991642 184.624572 
L 689.658502 184.527626 
L 690.325362 187.327155 
L 690.992222 185.219329 
L 691.659082 187.290746 
L 692.325942 185.399657 
L 692.992802 184.582487 
L 693.659662 184.680174 
L 694.326522 186.918289 
L 694.993382 181.537044 
L 695.660242 176.664061 
L 696.327101 179.983806 
L 696.993961 185.437628 
L 697.660821 188.716061 
L 698.327681 187.905474 
L 698.994541 188.626916 
L 699.661401 188.243924 
L 700.328261 185.99917 
L 700.995121 184.126469 
L 701.661981 186.749572 
L 702.328841 190.088207 
L 702.995701 192.500753 
L 703.662561 185.691412 
L 704.329421 187.51318 
L 704.996281 189.058709 
L 705.663141 191.280799 
L 706.330001 187.965501 
L 706.996861 187.945353 
L 707.663721 187.430554 
L 708.330581 187.026724 
L 708.997441 187.733898 
L 709.664301 184.6819 
L 710.33116 183.111898 
L 710.99802 185.533985 
L 711.66488 185.006023 
L 712.33174 186.876681 
L 712.9986 187.976192 
L 713.66546 181.924877 
L 714.33232 180.978551 
L 714.99918 183.740034 
L 715.66604 184.73815 
L 716.3329 174.759136 
L 716.99976 178.003207 
L 716.99976 143.181986 
L 716.99976 143.181986 
L 716.3329 139.854925 
L 715.66604 143.546871 
L 714.99918 137.321522 
L 714.33232 138.393576 
L 713.66546 140.273492 
L 712.9986 145.916129 
L 712.33174 147.32541 
L 711.66488 147.115503 
L 710.99802 147.237546 
L 710.33116 147.013001 
L 709.664301 146.439454 
L 708.997441 144.494288 
L 708.330581 142.041372 
L 707.663721 144.295465 
L 706.996861 142.71713 
L 706.330001 144.26599 
L 705.663141 144.450016 
L 704.996281 144.280659 
L 704.329421 143.200112 
L 703.662561 144.346246 
L 702.995701 145.761858 
L 702.328841 145.893226 
L 701.661981 148.976069 
L 700.995121 147.786962 
L 700.328261 144.216928 
L 699.661401 141.715591 
L 698.994541 143.320961 
L 698.327681 146.424553 
L 697.660821 145.130493 
L 696.993961 146.934107 
L 696.327101 144.153904 
L 695.660242 137.716413 
L 694.993382 145.193699 
L 694.326522 149.422632 
L 693.659662 147.595507 
L 692.992802 142.378054 
L 692.325942 142.044543 
L 691.659082 140.720733 
L 690.992222 145.319063 
L 690.325362 143.281463 
L 689.658502 141.428277 
L 688.991642 141.440972 
L 688.324782 146.641621 
L 687.657922 145.949993 
L 686.991062 144.938218 
L 686.324202 146.881236 
L 685.657342 142.091202 
L 684.990482 146.024891 
L 684.323622 144.325802 
L 683.656762 142.270213 
L 682.989902 141.99842 
L 682.323042 142.276848 
L 681.656182 141.921048 
L 680.989323 147.44519 
L 680.322463 145.42623 
L 679.655603 142.244935 
L 678.988743 145.981777 
L 678.321883 143.862777 
L 677.655023 140.780877 
L 676.988163 143.524829 
L 676.321303 144.629863 
L 675.654443 139.204541 
L 674.987583 137.394095 
L 674.320723 137.516053 
L 673.653863 137.104245 
L 672.987003 133.979467 
L 672.320143 135.787335 
L 671.653283 138.379376 
L 670.986423 139.096447 
L 670.319563 136.180747 
L 669.652703 135.793862 
L 668.985843 136.459135 
L 668.318983 138.245396 
L 667.652123 134.485207 
L 666.985264 130.927991 
L 666.318404 131.50784 
L 665.651544 131.111819 
L 664.984684 130.837354 
L 664.317824 133.194324 
L 663.650964 137.400057 
L 662.984104 138.569296 
L 662.317244 134.43578 
L 661.650384 134.41929 
L 660.983524 140.150413 
L 660.316664 135.047018 
L 659.649804 135.818875 
L 658.982944 137.187266 
L 658.316084 135.176716 
L 657.649224 135.033756 
L 656.982364 135.747708 
L 656.315504 138.542256 
L 655.648644 139.18963 
L 654.981784 135.464622 
L 654.314924 140.518851 
L 653.648064 140.061681 
L 652.981205 133.221911 
L 652.314345 137.607205 
L 651.647485 141.441974 
L 650.980625 138.181754 
L 650.313765 135.07222 
L 649.646905 135.16935 
L 648.980045 135.117623 
L 648.313185 137.708825 
L 647.646325 137.927172 
L 646.979465 137.358859 
L 646.312605 135.321118 
L 645.645745 136.390837 
L 644.978885 135.898674 
L 644.312025 131.748141 
L 643.645165 132.494973 
L 642.978305 137.761991 
L 642.311445 135.207022 
L 641.644585 134.800059 
L 640.977725 135.840065 
L 640.310865 133.423468 
L 639.644005 130.700331 
L 638.977146 132.584097 
L 638.310286 132.018084 
L 637.643426 134.147351 
L 636.976566 133.929402 
L 636.309706 135.714078 
L 635.642846 135.769773 
L 634.975986 135.569206 
L 634.309126 138.6825 
L 633.642266 138.111153 
L 632.975406 135.095128 
L 632.308546 133.276108 
L 631.641686 126.008896 
L 630.974826 131.732511 
L 630.307966 133.059897 
L 629.641106 130.023568 
L 628.974246 131.49737 
L 628.307386 131.377498 
L 627.640526 130.714821 
L 626.973666 131.307544 
L 626.306806 131.809673 
L 625.639946 133.057753 
L 624.973087 135.396966 
L 624.306227 135.15713 
L 623.639367 133.220151 
L 622.972507 130.694346 
L 622.305647 134.277191 
L 621.638787 135.131588 
L 620.971927 130.462083 
L 620.305067 128.279481 
L 619.638207 129.197169 
L 618.971347 133.071189 
L 618.304487 128.913518 
L 617.637627 126.527328 
L 616.970767 130.357832 
L 616.303907 133.851616 
L 615.637047 134.177426 
L 614.970187 134.128167 
L 614.303327 129.29931 
L 613.636467 130.274489 
L 612.969607 136.123474 
L 612.302747 137.348591 
L 611.635887 133.663244 
L 610.969027 134.556366 
L 610.302168 128.458333 
L 609.635308 132.721246 
L 608.968448 133.465706 
L 608.301588 131.294902 
L 607.634728 130.375115 
L 606.967868 129.799133 
L 606.301008 135.698526 
L 605.634148 132.522399 
L 604.967288 128.881933 
L 604.300428 134.808176 
L 603.633568 132.975383 
L 602.966708 134.609245 
L 602.299848 130.832055 
L 601.632988 128.621625 
L 600.966128 130.160406 
L 600.299268 129.80123 
L 599.632408 129.534844 
L 598.965548 126.951779 
L 598.298688 128.619785 
L 597.631828 125.243365 
L 596.964968 127.394554 
L 596.298109 130.10012 
L 595.631249 131.297205 
L 594.964389 135.221216 
L 594.297529 135.402029 
L 593.630669 132.140443 
L 592.963809 132.558798 
L 592.296949 131.945762 
L 591.630089 129.698378 
L 590.963229 133.001884 
L 590.296369 130.110465 
L 589.629509 133.069457 
L 588.962649 131.684908 
L 588.295789 132.96398 
L 587.628929 128.840702 
L 586.962069 130.355001 
L 586.295209 133.706177 
L 585.628349 131.035373 
L 584.961489 134.435494 
L 584.294629 129.599807 
L 583.627769 130.102838 
L 582.960909 133.310544 
L 582.29405 126.6064 
L 581.62719 127.699766 
L 580.96033 129.133146 
L 580.29347 128.802623 
L 579.62661 129.65882 
L 578.95975 130.147934 
L 578.29289 129.181633 
L 577.62603 126.966866 
L 576.95917 126.634894 
L 576.29231 126.019141 
L 575.62545 128.863853 
L 574.95859 129.339456 
L 574.29173 127.775107 
L 573.62487 127.043596 
L 572.95801 128.406207 
L 572.29115 123.844712 
L 571.62429 126.114065 
L 570.95743 131.954103 
L 570.29057 133.522623 
L 569.62371 132.234048 
L 568.95685 128.369839 
L 568.289991 124.307836 
L 567.623131 126.139134 
L 566.956271 132.10125 
L 566.289411 126.645155 
L 565.622551 126.917837 
L 564.955691 125.236061 
L 564.288831 121.088892 
L 563.621971 123.637916 
L 562.955111 130.727882 
L 562.288251 131.222463 
L 561.621391 126.870529 
L 560.954531 129.255135 
L 560.287671 130.623447 
L 559.620811 127.711097 
L 558.953951 124.9636 
L 558.287091 126.286148 
L 557.620231 124.912978 
L 556.953371 123.986943 
L 556.286511 123.345542 
L 555.619651 125.190232 
L 554.952791 125.95817 
L 554.285931 124.381172 
L 553.619072 123.474356 
L 552.952212 124.151782 
L 552.285352 122.885087 
L 551.618492 124.97493 
L 550.951632 130.159749 
L 550.284772 129.594658 
L 549.617912 121.869334 
L 548.951052 122.591034 
L 548.284192 124.354684 
L 547.617332 125.28667 
L 546.950472 122.948208 
L 546.283612 112.649126 
L 545.616752 122.53959 
L 544.949892 128.217313 
L 544.283032 126.982949 
L 543.616172 125.554216 
L 542.949312 120.875477 
L 542.282452 119.082003 
L 541.615592 119.845563 
L 540.948732 122.438194 
L 540.281872 125.838438 
L 539.615013 123.747552 
L 538.948153 124.449888 
L 538.281293 127.94695 
L 537.614433 127.395437 
L 536.947573 126.772506 
L 536.280713 124.011235 
L 535.613853 129.326258 
L 534.946993 127.939843 
L 534.280133 123.401811 
L 533.613273 124.683961 
L 532.946413 125.135188 
L 532.279553 118.297301 
L 531.612693 118.553024 
L 530.945833 121.373784 
L 530.278973 118.17959 
L 529.612113 123.905618 
L 528.945253 125.698211 
L 528.278393 120.479078 
L 527.611533 123.036388 
L 526.944673 122.600205 
L 526.277813 123.353536 
L 525.610954 117.803206 
L 524.944094 111.999249 
L 524.277234 114.567963 
L 523.610374 121.778269 
L 522.943514 119.159301 
L 522.276654 119.756114 
L 521.609794 120.992641 
L 520.942934 118.435403 
L 520.276074 116.424949 
L 519.609214 114.08376 
L 518.942354 113.870897 
L 518.275494 115.800662 
L 517.608634 116.344113 
L 516.941774 114.728718 
L 516.274914 117.091552 
L 515.608054 123.342705 
L 514.941194 124.219331 
L 514.274334 121.373855 
L 513.607474 118.566327 
L 512.940614 118.359915 
L 512.273754 118.472662 
L 511.606895 114.366675 
L 510.940035 114.360999 
L 510.273175 117.945155 
L 509.606315 115.012511 
L 508.939455 113.85027 
L 508.272595 116.771799 
L 507.605735 117.097008 
L 506.938875 116.041881 
L 506.272015 117.739065 
L 505.605155 111.508987 
L 504.938295 108.316646 
L 504.271435 107.5319 
L 503.604575 112.289634 
L 502.937715 114.826097 
L 502.270855 114.389111 
L 501.603995 116.337239 
L 500.937135 113.429581 
L 500.270275 113.920403 
L 499.603415 112.167558 
L 498.936555 109.961781 
L 498.269695 113.130488 
L 497.602836 118.09213 
L 496.935976 116.973335 
L 496.269116 116.757955 
L 495.602256 112.647347 
L 494.935396 114.3574 
L 494.268536 118.802764 
L 493.601676 119.265717 
L 492.934816 112.521608 
L 492.267956 110.631935 
L 491.601096 112.905619 
L 490.934236 113.271268 
L 490.267376 110.857597 
L 489.600516 113.190604 
L 488.933656 112.58335 
L 488.266796 115.014471 
L 487.599936 115.621157 
L 486.933076 112.285889 
L 486.266216 109.342002 
L 485.599356 109.869973 
L 484.932496 110.201229 
L 484.265636 104.325468 
L 483.598776 109.781797 
L 482.931917 112.83917 
L 482.265057 110.068727 
L 481.598197 110.698795 
L 480.931337 108.992997 
L 480.264477 107.441814 
L 479.597617 105.18388 
L 478.930757 105.073679 
L 478.263897 108.881177 
L 477.597037 111.73586 
L 476.930177 108.775407 
L 476.263317 104.53504 
L 475.596457 100.663759 
L 474.929597 104.377411 
L 474.262737 106.338516 
L 473.595877 110.157624 
L 472.929017 106.612327 
L 472.262157 103.981196 
L 471.595297 104.630977 
L 470.928437 104.314728 
L 470.261577 106.441411 
L 469.594717 108.135607 
L 468.927858 105.935661 
L 468.260998 104.977254 
L 467.594138 104.987977 
L 466.927278 103.549508 
L 466.260418 101.730554 
L 465.593558 100.535691 
L 464.926698 102.460169 
L 464.259838 102.560903 
L 463.592978 101.657592 
L 462.926118 103.476854 
L 462.259258 103.252374 
L 461.592398 98.47885 
L 460.925538 89.391321 
L 460.258678 100.429928 
L 459.591818 106.924451 
L 458.924958 107.660197 
L 458.258098 104.574585 
L 457.591238 105.704961 
L 456.924378 109.17266 
L 456.257518 108.822123 
L 455.590658 103.108833 
L 454.923799 103.421876 
L 454.256939 108.836569 
L 453.590079 107.468441 
L 452.923219 106.603462 
L 452.256359 110.777176 
L 451.589499 112.560583 
L 450.922639 114.208066 
L 450.255779 107.45692 
L 449.588919 104.51595 
L 448.922059 108.127062 
L 448.255199 106.760348 
L 447.588339 103.83018 
L 446.921479 103.254685 
L 446.254619 104.718074 
L 445.587759 108.033966 
L 444.920899 112.084115 
L 444.254039 112.817055 
L 443.587179 106.849994 
L 442.920319 105.07334 
L 442.253459 111.930164 
L 441.586599 111.38761 
L 440.91974 109.110533 
L 440.25288 98.227513 
L 439.58602 75.600773 
L 438.91916 85.492902 
L 438.2523 108.685054 
L 437.58544 108.204135 
L 436.91858 109.952497 
L 436.25172 114.22571 
L 435.58486 113.41273 
L 434.918 110.466308 
L 434.25114 109.999377 
L 433.58428 109.39808 
L 432.91742 108.845258 
L 432.25056 105.619217 
L 431.5837 105.346892 
L 430.91684 103.943452 
L 430.24998 106.440245 
L 429.58312 109.268903 
L 428.91626 110.209767 
L 428.2494 113.084928 
L 427.58254 114.494785 
L 426.91568 113.718242 
L 426.248821 112.116226 
L 425.581961 113.150135 
L 424.915101 111.810204 
L 424.248241 115.214032 
L 423.581381 113.744494 
L 422.914521 114.500244 
L 422.247661 109.540202 
L 421.580801 109.15375 
L 420.913941 110.853248 
L 420.247081 117.255227 
L 419.580221 117.851691 
L 418.913361 116.657638 
L 418.246501 120.44579 
L 417.579641 115.540281 
L 416.912781 113.126134 
L 416.245921 116.421493 
L 415.579061 114.886042 
L 414.912201 114.474596 
L 414.245341 120.175626 
L 413.578481 116.378678 
L 412.911621 116.664802 
L 412.244762 116.551377 
L 411.577902 113.739134 
L 410.911042 114.593793 
L 410.244182 115.187356 
L 409.577322 116.12376 
L 408.910462 116.76432 
L 408.243602 115.413719 
L 407.576742 118.945468 
L 406.909882 119.780086 
L 406.243022 120.529595 
L 405.576162 123.306257 
L 404.909302 122.960057 
L 404.242442 123.388123 
L 403.575582 123.457264 
L 402.908722 123.323833 
L 402.241862 123.474086 
L 401.575002 120.527264 
L 400.908142 124.84547 
L 400.241282 129.368727 
L 399.574422 129.004157 
L 398.907562 130.982814 
L 398.240703 131.593165 
L 397.573843 128.057208 
L 396.906983 126.677406 
L 396.240123 128.69597 
L 395.573263 129.670071 
L 394.906403 132.285377 
L 394.239543 130.257847 
L 393.572683 131.06691 
L 392.905823 136.939119 
L 392.238963 135.956243 
L 391.572103 135.571545 
L 390.905243 133.599388 
L 390.238383 132.613145 
L 389.571523 134.191475 
L 388.904663 139.0252 
L 388.237803 140.685542 
L 387.570943 140.291922 
L 386.904083 142.294959 
L 386.237223 139.755138 
L 385.570363 133.463651 
L 384.903503 130.349007 
L 384.236644 130.383883 
L 383.569784 132.976592 
L 382.902924 134.031508 
L 382.236064 138.066159 
L 381.569204 139.435203 
L 380.902344 145.450245 
L 380.235484 145.94287 
L 379.568624 143.64747 
L 378.901764 143.126928 
L 378.234904 145.911095 
L 377.568044 149.448452 
L 376.901184 150.403587 
L 376.234324 143.49567 
L 375.567464 129.578438 
L 374.900604 139.83575 
L 374.233744 145.380702 
L 373.566884 147.046108 
L 372.900024 147.595281 
L 372.233164 150.659068 
L 371.566304 153.065843 
L 370.899444 150.300319 
L 370.232585 151.419931 
L 369.565725 158.377917 
L 368.898865 160.130969 
L 368.232005 161.531495 
L 367.565145 163.141382 
L 366.898285 162.905081 
L 366.231425 160.848157 
L 365.564565 160.221866 
L 364.897705 163.470719 
L 364.230845 165.644449 
L 363.563985 161.710493 
L 362.897125 162.814321 
L 362.230265 167.675074 
L 361.563405 166.516289 
L 360.896545 164.382303 
L 360.229685 164.442594 
L 359.562825 168.484895 
L 358.895965 167.564691 
L 358.229105 170.101654 
L 357.562245 173.080239 
L 356.895385 168.213547 
L 356.228525 161.829722 
L 355.561666 164.211268 
L 354.894806 102.617379 
L 354.227946 81.19386 
L 353.561086 111.133964 
L 352.894226 164.47351 
L 352.227366 161.665146 
L 351.560506 161.834203 
L 350.893646 163.709098 
L 350.226786 160.867823 
L 349.559926 160.279473 
L 348.893066 164.378096 
L 348.226206 161.729746 
L 347.559346 160.498502 
L 346.892486 163.228037 
L 346.225626 164.809628 
L 345.558766 162.2364 
L 344.891906 160.668409 
L 344.225046 156.895279 
L 343.558186 154.538998 
L 342.891326 157.007453 
L 342.224466 155.848338 
L 341.557607 152.747513 
L 340.890747 157.760737 
L 340.223887 156.427737 
L 339.557027 150.54208 
L 338.890167 150.889053 
L 338.223307 150.238207 
L 337.556447 152.786398 
L 336.889587 146.580693 
L 336.222727 145.819078 
L 335.555867 144.084943 
L 334.889007 142.551405 
L 334.222147 144.155032 
L 333.555287 142.52504 
L 332.888427 141.625789 
L 332.221567 141.249901 
L 331.554707 143.695569 
L 330.887847 144.132493 
L 330.220987 138.550938 
L 329.554127 135.469087 
L 328.887267 139.718242 
L 328.220407 138.836669 
L 327.553548 132.895279 
L 326.886688 132.339311 
L 326.219828 133.228155 
L 325.552968 131.15881 
L 324.886108 132.421224 
L 324.219248 133.309071 
L 323.552388 127.579213 
L 322.885528 124.77044 
L 322.218668 123.929361 
L 321.551808 126.856152 
L 320.884948 132.385976 
L 320.218088 128.598763 
L 319.551228 125.777446 
L 318.884368 124.42937 
L 318.217508 123.939397 
L 317.550648 119.747698 
L 316.883788 120.233503 
L 316.216928 121.821824 
L 315.550068 116.564549 
L 314.883208 118.418598 
L 314.216348 120.20026 
L 313.549489 117.41475 
L 312.882629 117.05419 
L 312.215769 119.514934 
L 311.548909 118.894728 
L 310.882049 115.910979 
L 310.215189 113.832159 
L 309.548329 111.108541 
L 308.881469 112.476607 
L 308.214609 112.048369 
L 307.547749 116.857585 
L 306.880889 111.45839 
L 306.214029 111.18088 
L 305.547169 113.868808 
L 304.880309 113.110701 
L 304.213449 112.301029 
L 303.546589 110.025334 
L 302.879729 111.287202 
L 302.212869 109.306006 
L 301.546009 111.150191 
L 300.879149 111.453144 
L 300.212289 107.720463 
L 299.545429 106.908059 
L 298.87857 104.19486 
L 298.21171 105.032096 
L 297.54485 103.21215 
L 296.87799 104.66701 
L 296.21113 102.76966 
L 295.54427 101.055756 
L 294.87741 103.061123 
L 294.21055 101.304773 
L 293.54369 101.50609 
L 292.87683 99.068037 
L 292.20997 95.728581 
L 291.54311 92.049314 
L 290.87625 87.012899 
L 290.20939 73.012382 
L 289.54253 89.683934 
L 288.87567 93.883206 
L 288.20881 95.899096 
L 287.54195 95.775255 
L 286.87509 96.583089 
L 286.20823 96.5836 
L 285.54137 94.687348 
L 284.874511 93.026953 
L 284.207651 94.088277 
L 283.540791 96.047934 
L 282.873931 100.218258 
L 282.207071 102.525797 
L 281.540211 102.040491 
L 280.873351 99.858044 
L 280.206491 98.777116 
L 279.539631 97.757014 
L 278.872771 94.683647 
L 278.205911 91.22025 
L 277.539051 92.372459 
L 276.872191 92.841147 
L 276.205331 94.796716 
L 275.538471 88.67976 
L 274.871611 86.195923 
L 274.204751 86.383787 
L 273.537891 89.533996 
L 272.871031 88.106914 
L 272.204171 89.128438 
L 271.537311 93.808831 
L 270.870452 92.932496 
L 270.203592 90.990646 
L 269.536732 82.368545 
L 268.869872 80.700104 
L 268.203012 89.537087 
L 267.536152 87.92041 
L 266.869292 88.482276 
L 266.202432 91.171564 
L 265.535572 92.906149 
L 264.868712 93.687019 
L 264.201852 90.91341 
L 263.534992 88.717986 
L 262.868132 87.527342 
L 262.201272 88.090162 
L 261.534412 89.225635 
L 260.867552 86.205046 
L 260.200692 86.936259 
L 259.533832 86.377011 
L 258.866972 84.728221 
L 258.200112 86.785499 
L 257.533252 84.741764 
L 256.866393 82.3646 
L 256.199533 80.200717 
L 255.532673 82.708922 
L 254.865813 80.892552 
L 254.198953 84.334914 
L 253.532093 90.913458 
L 252.865233 87.288897 
L 252.198373 84.57507 
L 251.531513 82.129191 
L 250.864653 77.239808 
L 250.197793 83.162584 
L 249.530933 85.959683 
L 248.864073 84.730759 
L 248.197213 80.445968 
L 247.530353 81.281632 
L 246.863493 81.726989 
L 246.196633 88.757948 
L 245.529773 83.309523 
L 244.862913 78.899455 
L 244.196053 79.245723 
L 243.529193 79.904238 
L 242.862334 77.964932 
L 242.195474 77.885984 
L 241.528614 82.593232 
L 240.861754 82.46218 
L 240.194894 83.220743 
L 239.528034 80.617799 
L 238.861174 80.131625 
L 238.194314 77.910238 
L 237.527454 80.382803 
L 236.860594 79.14047 
L 236.193734 79.053877 
L 235.526874 81.192824 
L 234.860014 83.533049 
L 234.193154 81.320763 
L 233.526294 77.788264 
L 232.859434 78.014271 
L 232.192574 79.511301 
L 231.525714 78.035072 
L 230.858854 78.814873 
L 230.191994 80.775332 
L 229.525134 82.332068 
L 228.858274 82.699175 
L 228.191415 86.968749 
L 227.524555 83.220827 
L 226.857695 81.655575 
L 226.190835 79.856096 
L 225.523975 81.768918 
L 224.857115 83.852638 
L 224.190255 79.905872 
L 223.523395 78.915193 
L 222.856535 81.438518 
L 222.189675 79.32413 
L 221.522815 78.397912 
L 220.855955 78.565247 
L 220.189095 81.742428 
L 219.522235 80.24512 
L 218.855375 77.547143 
L 218.188515 79.451856 
L 217.521655 81.276197 
L 216.854795 83.343757 
L 216.187935 81.704852 
L 215.521075 79.313282 
L 214.854215 76.356399 
L 214.187356 77.772471 
L 213.520496 79.478097 
L 212.853636 76.763794 
L 212.186776 75.122882 
L 211.519916 73.177381 
L 210.853056 75.854117 
L 210.186196 79.709627 
L 209.519336 80.771766 
L 208.852476 81.854556 
L 208.185616 83.634108 
L 207.518756 79.190564 
L 206.851896 76.79831 
L 206.185036 79.328477 
L 205.518176 66.99119 
L 204.851316 51.705717 
L 204.184456 71.329078 
L 203.517596 80.659581 
L 202.850736 79.577325 
L 202.183876 81.495121 
L 201.517016 80.117758 
L 200.850156 81.29001 
L 200.183297 79.352606 
L 199.516437 81.059304 
L 198.849577 78.760204 
L 198.182717 79.154163 
L 197.515857 81.724895 
L 196.848997 78.313062 
L 196.182137 76.406461 
L 195.515277 74.564502 
L 194.848417 78.817951 
L 194.181557 75.285505 
L 193.514697 75.158801 
L 192.847837 78.518304 
L 192.180977 78.011776 
L 191.514117 76.195283 
L 190.847257 77.092125 
L 190.180397 79.971483 
L 189.513537 79.593214 
L 188.846677 78.871225 
L 188.179817 82.146801 
L 187.512957 81.164616 
L 186.846097 77.900723 
L 186.179238 75.649097 
L 185.512378 77.123871 
L 184.845518 78.343162 
L 184.178658 76.909078 
L 183.511798 76.317121 
L 182.844938 74.676703 
L 182.178078 74.588772 
L 181.511218 76.997784 
L 180.844358 80.186905 
L 180.177498 85.274369 
L 179.510638 83.907286 
L 178.843778 84.184812 
L 178.176918 77.898972 
L 177.510058 77.153502 
L 176.843198 78.531699 
L 176.176338 78.634876 
L 175.509478 80.154637 
L 174.842618 81.492568 
L 174.175758 81.067688 
L 173.508898 79.66481 
L 172.842038 83.493172 
L 172.175178 88.214381 
L 171.508319 80.442028 
L 170.841459 78.635144 
L 170.174599 80.442328 
L 169.507739 79.698043 
L 168.840879 76.889537 
L 168.174019 79.911837 
L 167.507159 79.477219 
L 166.840299 81.984363 
L 166.173439 80.544093 
L 165.506579 82.810496 
L 164.839719 85.268806 
L 164.172859 86.019107 
L 163.505999 82.15309 
L 162.839139 77.664933 
L 162.172279 79.313525 
L 161.505419 83.712517 
L 160.838559 89.071191 
L 160.171699 84.143308 
L 159.504839 87.602984 
L 158.837979 86.783676 
L 158.171119 84.988074 
L 157.50426 83.106872 
L 156.8374 84.008393 
L 156.17054 82.733137 
L 155.50368 84.480261 
L 154.83682 84.275876 
L 154.16996 84.896322 
L 153.5031 83.717044 
L 152.83624 85.56678 
L 152.16938 85.013883 
L 151.50252 80.532664 
L 150.83566 77.096124 
L 150.1688 78.676378 
L 149.50194 85.559813 
L 148.83508 86.402639 
L 148.16822 85.392649 
L 147.50136 81.293393 
L 146.8345 76.611271 
L 146.16764 77.434019 
L 145.50078 81.401029 
L 144.83392 85.450719 
L 144.16706 84.591346 
L 143.500201 82.821283 
L 142.833341 84.564342 
L 142.166481 84.474064 
L 141.499621 84.699604 
L 140.832761 83.737783 
L 140.165901 82.370152 
L 139.499041 82.433787 
L 138.832181 81.892081 
L 138.165321 85.125151 
L 137.498461 84.396558 
L 136.831601 81.846419 
L 136.164741 79.954656 
L 135.497881 81.56665 
L 134.831021 79.298623 
L 134.164161 80.614986 
L 133.497301 85.879438 
L 132.830441 80.525728 
L 132.163581 82.147179 
L 131.496721 81.881316 
L 130.829861 84.895635 
L 130.163001 85.047714 
L 129.496142 85.864729 
L 128.829282 83.038956 
L 128.162422 83.207355 
L 127.495562 81.925222 
L 126.828702 83.189465 
L 126.161842 84.484171 
L 125.494982 84.533081 
L 124.828122 85.837698 
L 124.161262 85.402998 
L 123.494402 80.346123 
L 122.827542 79.213035 
L 122.160682 81.53649 
L 121.493822 81.509762 
L 120.826962 83.248537 
L 120.160102 71.46762 
L 119.493242 50.99637 
L 118.826382 70.76965 
L 118.159522 86.476368 
L 117.492662 87.288246 
L 116.825802 81.710396 
L 116.158942 81.986829 
L 115.492083 84.306812 
L 114.825223 88.820615 
L 114.158363 82.378034 
L 113.491503 81.90571 
L 112.824643 83.455481 
L 112.157783 82.527607 
L 111.490923 86.866664 
L 110.824063 86.4016 
L 110.157203 84.164927 
L 109.490343 82.241985 
L 108.823483 82.11442 
L 108.156623 80.712673 
L 107.489763 80.473947 
L 106.822903 80.60051 
L 106.156043 84.623011 
L 105.489183 86.779828 
L 104.822323 90.382453 
L 104.155463 87.495619 
L 103.488603 82.464225 
L 102.821743 82.123806 
L 102.154883 82.908533 
L 101.488023 84.116006 
L 100.821164 81.52423 
L 100.154304 83.463997 
L 99.487444 83.45828 
L 98.820584 80.309588 
L 98.153724 79.346163 
L 97.486864 81.533462 
L 96.820004 83.34463 
L 96.153144 85.38004 
L 95.486284 83.605483 
L 94.819424 78.246812 
L 94.152564 78.859598 
L 93.485704 78.739321 
L 92.818844 80.014436 
L 92.151984 81.445731 
L 91.485124 79.107193 
L 90.818264 80.339474 
L 90.151404 83.583671 
L 89.484544 78.811849 
L 88.817684 78.732696 
L 88.150824 83.091935 
L 87.483964 81.274123 
L 86.817105 78.197987 
L 86.150245 75.867882 
L 85.483385 78.76564 
L 84.816525 79.453517 
L 84.149665 78.045183 
L 83.482805 72.978376 
L 82.815945 71.169707 
L 82.149085 72.439937 
L 81.482225 68.27661 
L 80.815365 70.390606 
L 80.148505 69.687842 
L 79.481645 69.870711 
L 78.814785 69.484739 
L 78.147925 70.140251 
L 77.481065 68.806367 
L 76.814205 67.59779 
L 76.147345 65.410395 
L 75.480485 62.370731 
L 74.813625 62.487965 
L 74.146765 65.000324 
L 73.479905 65.477216 
L 72.813046 62.855173 
L 72.146186 64.277342 
L 71.479326 66.365923 
L 70.812466 56.409773 
L 70.145606 57.628328 
L 69.478746 59.969137 
L 68.811886 60.207357 
L 68.145026 61.847352 
L 67.478166 59.82073 
L 66.811306 61.388901 
L 66.144446 59.282848 
L 65.477586 56.943357 
L 64.810726 56.274339 
L 64.143866 54.446826 
L 63.477006 53.175463 
L 62.810146 48.075619 
L 62.143286 48.84051 
L 61.476426 49.879532 
L 60.809566 51.572103 
L 60.142706 48.58801 
L 59.475846 46.861112 
L 58.808987 51.405538 
L 58.142127 46.493931 
L 57.475267 46.382117 
L 56.808407 45.057823 
L 56.141547 46.187904 
L 55.474687 39.978809 
L 54.807827 37.803954 
L 54.140967 40.47789 
L 53.474107 40.75877 
L 52.807247 39.544091 
L 52.140387 33.044303 
L 51.473527 41.294832 
L 50.806667 35.410203 
L 50.139807 30.578715 
L 49.472947 40.146411 
L 48.806087 32.40539 
L 48.139227 30.851986 
L 47.472367 37.253169 
L 46.805507 37.793214 
L 46.138647 29.511247 
L 45.471787 27.233144 
L 44.804928 29.993898 
z
" clip-path="url(#p62afc0108a)" style="fill-opacity: 0.33"/>
   </g>
   <g id="matplotlib.axis_1">
    <g id="xtick_1">
     <g id="line2d_1">
      <path d="M 140.832761 218.64351 
L 140.832761 18.118365 
" clip-path="url(#p62afc0108a)" style="fill: none; stroke-dasharray: 0.8,1.32; stroke-dashoffset: 0; stroke: #b0b0b0; stroke-width: 0.8"/>
     </g>
     <g id="line2d_2">
      <defs>
       <path id="m8a7708ab4d" d="M 0 0 
L 0 3.5 
" style="stroke: #000000; stroke-width: 0.8"/>
      </defs>
      <g>
       <use xlink:href="#m8a7708ab4d" x="140.832761" y="218.64351" style="stroke: #000000; stroke-width: 0.8"/>
      </g>
     </g>
     <g id="text_1">
      <!-- 20 -->
      <g transform="translate(134.470261 233.241948) scale(0.1 -0.1)">
       <defs>
        <path id="DejaVuSans-32" d="M 1228 531 
L 3431 531 
L 3431 0 
L 469 0 
L 469 531 
Q 828 903 1448 1529 
Q 2069 2156 2228 2338 
Q 2531 2678 2651 2914 
Q 2772 3150 2772 3378 
Q 2772 3750 2511 3984 
Q 2250 4219 1831 4219 
Q 1534 4219 1204 4116 
Q 875 4013 500 3803 
L 500 4441 
Q 881 4594 1212 4672 
Q 1544 4750 1819 4750 
Q 2544 4750 2975 4387 
Q 3406 4025 3406 3419 
Q 3406 3131 3298 2873 
Q 3191 2616 2906 2266 
Q 2828 2175 2409 1742 
Q 1991 1309 1228 531 
z
" transform="scale(0.015625)"/>
        <path id="DejaVuSans-30" d="M 2034 4250 
Q 1547 4250 1301 3770 
Q 1056 3291 1056 2328 
Q 1056 1369 1301 889 
Q 1547 409 2034 409 
Q 2525 409 2770 889 
Q 3016 1369 3016 2328 
Q 3016 3291 2770 3770 
Q 2525 4250 2034 4250 
z
M 2034 4750 
Q 2819 4750 3233 4129 
Q 3647 3509 3647 2328 
Q 3647 1150 3233 529 
Q 2819 -91 2034 -91 
Q 1250 -91 836 529 
Q 422 1150 422 2328 
Q 422 3509 836 4129 
Q 1250 4750 2034 4750 
z
" transform="scale(0.015625)"/>
       </defs>
       <use xlink:href="#DejaVuSans-32"/>
       <use xlink:href="#DejaVuSans-30" transform="translate(63.623047 0)"/>
      </g>
     </g>
    </g>
    <g id="xtick_2">
     <g id="line2d_3">
      <path d="M 247.530353 218.64351 
L 247.530353 18.118365 
" clip-path="url(#p62afc0108a)" style="fill: none; stroke-dasharray: 0.8,1.32; stroke-dashoffset: 0; stroke: #b0b0b0; stroke-width: 0.8"/>
     </g>
     <g id="line2d_4">
      <g>
       <use xlink:href="#m8a7708ab4d" x="247.530353" y="218.64351" style="stroke: #000000; stroke-width: 0.8"/>
      </g>
     </g>
     <g id="text_2">
      <!-- 40 -->
      <g transform="translate(241.167853 233.241948) scale(0.1 -0.1)">
       <defs>
        <path id="DejaVuSans-34" d="M 2419 4116 
L 825 1625 
L 2419 1625 
L 2419 4116 
z
M 2253 4666 
L 3047 4666 
L 3047 1625 
L 3713 1625 
L 3713 1100 
L 3047 1100 
L 3047 0 
L 2419 0 
L 2419 1100 
L 313 1100 
L 313 1709 
L 2253 4666 
z
" transform="scale(0.015625)"/>
       </defs>
       <use xlink:href="#DejaVuSans-34"/>
       <use xlink:href="#DejaVuSans-30" transform="translate(63.623047 0)"/>
      </g>
     </g>
    </g>
    <g id="xtick_3">
     <g id="line2d_5">
      <path d="M 354.227946 218.64351 
L 354.227946 18.118365 
" clip-path="url(#p62afc0108a)" style="fill: none; stroke-dasharray: 0.8,1.32; stroke-dashoffset: 0; stroke: #b0b0b0; stroke-width: 0.8"/>
     </g>
     <g id="line2d_6">
      <g>
       <use xlink:href="#m8a7708ab4d" x="354.227946" y="218.64351" style="stroke: #000000; stroke-width: 0.8"/>
      </g>
     </g>
     <g id="text_3">
      <!-- 60 -->
      <g transform="translate(347.865446 233.241948) scale(0.1 -0.1)">
       <defs>
        <path id="DejaVuSans-36" d="M 2113 2584 
Q 1688 2584 1439 2293 
Q 1191 2003 1191 1497 
Q 1191 994 1439 701 
Q 1688 409 2113 409 
Q 2538 409 2786 701 
Q 3034 994 3034 1497 
Q 3034 2003 2786 2293 
Q 2538 2584 2113 2584 
z
M 3366 4563 
L 3366 3988 
Q 3128 4100 2886 4159 
Q 2644 4219 2406 4219 
Q 1781 4219 1451 3797 
Q 1122 3375 1075 2522 
Q 1259 2794 1537 2939 
Q 1816 3084 2150 3084 
Q 2853 3084 3261 2657 
Q 3669 2231 3669 1497 
Q 3669 778 3244 343 
Q 2819 -91 2113 -91 
Q 1303 -91 875 529 
Q 447 1150 447 2328 
Q 447 3434 972 4092 
Q 1497 4750 2381 4750 
Q 2619 4750 2861 4703 
Q 3103 4656 3366 4563 
z
" transform="scale(0.015625)"/>
       </defs>
       <use xlink:href="#DejaVuSans-36"/>
       <use xlink:href="#DejaVuSans-30" transform="translate(63.623047 0)"/>
      </g>
     </g>
    </g>
    <g id="xtick_4">
     <g id="line2d_7">
      <path d="M 460.925538 218.64351 
L 460.925538 18.118365 
" clip-path="url(#p62afc0108a)" style="fill: none; stroke-dasharray: 0.8,1.32; stroke-dashoffset: 0; stroke: #b0b0b0; stroke-width: 0.8"/>
     </g>
     <g id="line2d_8">
      <g>
       <use xlink:href="#m8a7708ab4d" x="460.925538" y="218.64351" style="stroke: #000000; stroke-width: 0.8"/>
      </g>
     </g>
     <g id="text_4">
      <!-- 80 -->
      <g transform="translate(454.563038 233.241948) scale(0.1 -0.1)">
       <defs>
        <path id="DejaVuSans-38" d="M 2034 2216 
Q 1584 2216 1326 1975 
Q 1069 1734 1069 1313 
Q 1069 891 1326 650 
Q 1584 409 2034 409 
Q 2484 409 2743 651 
Q 3003 894 3003 1313 
Q 3003 1734 2745 1975 
Q 2488 2216 2034 2216 
z
M 1403 2484 
Q 997 2584 770 2862 
Q 544 3141 544 3541 
Q 544 4100 942 4425 
Q 1341 4750 2034 4750 
Q 2731 4750 3128 4425 
Q 3525 4100 3525 3541 
Q 3525 3141 3298 2862 
Q 3072 2584 2669 2484 
Q 3125 2378 3379 2068 
Q 3634 1759 3634 1313 
Q 3634 634 3220 271 
Q 2806 -91 2034 -91 
Q 1263 -91 848 271 
Q 434 634 434 1313 
Q 434 1759 690 2068 
Q 947 2378 1403 2484 
z
M 1172 3481 
Q 1172 3119 1398 2916 
Q 1625 2713 2034 2713 
Q 2441 2713 2670 2916 
Q 2900 3119 2900 3481 
Q 2900 3844 2670 4047 
Q 2441 4250 2034 4250 
Q 1625 4250 1398 4047 
Q 1172 3844 1172 3481 
z
" transform="scale(0.015625)"/>
       </defs>
       <use xlink:href="#DejaVuSans-38"/>
       <use xlink:href="#DejaVuSans-30" transform="translate(63.623047 0)"/>
      </g>
     </g>
    </g>
    <g id="xtick_5">
     <g id="line2d_9">
      <path d="M 567.623131 218.64351 
L 567.623131 18.118365 
" clip-path="url(#p62afc0108a)" style="fill: none; stroke-dasharray: 0.8,1.32; stroke-dashoffset: 0; stroke: #b0b0b0; stroke-width: 0.8"/>
     </g>
     <g id="line2d_10">
      <g>
       <use xlink:href="#m8a7708ab4d" x="567.623131" y="218.64351" style="stroke: #000000; stroke-width: 0.8"/>
      </g>
     </g>
     <g id="text_5">
      <!-- 100 -->
      <g transform="translate(558.079381 233.241948) scale(0.1 -0.1)">
       <defs>
        <path id="DejaVuSans-31" d="M 794 531 
L 1825 531 
L 1825 4091 
L 703 3866 
L 703 4441 
L 1819 4666 
L 2450 4666 
L 2450 531 
L 3481 531 
L 3481 0 
L 794 0 
L 794 531 
z
" transform="scale(0.015625)"/>
       </defs>
       <use xlink:href="#DejaVuSans-31"/>
       <use xlink:href="#DejaVuSans-30" transform="translate(63.623047 0)"/>
       <use xlink:href="#DejaVuSans-30" transform="translate(127.246094 0)"/>
      </g>
     </g>
    </g>
    <g id="xtick_6">
     <g id="line2d_11">
      <path d="M 674.320723 218.64351 
L 674.320723 18.118365 
" clip-path="url(#p62afc0108a)" style="fill: none; stroke-dasharray: 0.8,1.32; stroke-dashoffset: 0; stroke: #b0b0b0; stroke-width: 0.8"/>
     </g>
     <g id="line2d_12">
      <g>
       <use xlink:href="#m8a7708ab4d" x="674.320723" y="218.64351" style="stroke: #000000; stroke-width: 0.8"/>
      </g>
     </g>
     <g id="text_6">
      <!-- 120 -->
      <g transform="translate(664.776973 233.241948) scale(0.1 -0.1)">
       <use xlink:href="#DejaVuSans-31"/>
       <use xlink:href="#DejaVuSans-32" transform="translate(63.623047 0)"/>
       <use xlink:href="#DejaVuSans-30" transform="translate(127.246094 0)"/>
      </g>
     </g>
    </g>
    <g id="text_7">
     <!-- Frequency (Hz) -->
     <g transform="translate(343.197656 246.920073) scale(0.1 -0.1)">
      <defs>
       <path id="DejaVuSans-46" d="M 628 4666 
L 3309 4666 
L 3309 4134 
L 1259 4134 
L 1259 2759 
L 3109 2759 
L 3109 2228 
L 1259 2228 
L 1259 0 
L 628 0 
L 628 4666 
z
" transform="scale(0.015625)"/>
       <path id="DejaVuSans-72" d="M 2631 2963 
Q 2534 3019 2420 3045 
Q 2306 3072 2169 3072 
Q 1681 3072 1420 2755 
Q 1159 2438 1159 1844 
L 1159 0 
L 581 0 
L 581 3500 
L 1159 3500 
L 1159 2956 
Q 1341 3275 1631 3429 
Q 1922 3584 2338 3584 
Q 2397 3584 2469 3576 
Q 2541 3569 2628 3553 
L 2631 2963 
z
" transform="scale(0.015625)"/>
       <path id="DejaVuSans-65" d="M 3597 1894 
L 3597 1613 
L 953 1613 
Q 991 1019 1311 708 
Q 1631 397 2203 397 
Q 2534 397 2845 478 
Q 3156 559 3463 722 
L 3463 178 
Q 3153 47 2828 -22 
Q 2503 -91 2169 -91 
Q 1331 -91 842 396 
Q 353 884 353 1716 
Q 353 2575 817 3079 
Q 1281 3584 2069 3584 
Q 2775 3584 3186 3129 
Q 3597 2675 3597 1894 
z
M 3022 2063 
Q 3016 2534 2758 2815 
Q 2500 3097 2075 3097 
Q 1594 3097 1305 2825 
Q 1016 2553 972 2059 
L 3022 2063 
z
" transform="scale(0.015625)"/>
       <path id="DejaVuSans-71" d="M 947 1747 
Q 947 1113 1208 752 
Q 1469 391 1925 391 
Q 2381 391 2643 752 
Q 2906 1113 2906 1747 
Q 2906 2381 2643 2742 
Q 2381 3103 1925 3103 
Q 1469 3103 1208 2742 
Q 947 2381 947 1747 
z
M 2906 525 
Q 2725 213 2448 61 
Q 2172 -91 1784 -91 
Q 1150 -91 751 415 
Q 353 922 353 1747 
Q 353 2572 751 3078 
Q 1150 3584 1784 3584 
Q 2172 3584 2448 3432 
Q 2725 3281 2906 2969 
L 2906 3500 
L 3481 3500 
L 3481 -1331 
L 2906 -1331 
L 2906 525 
z
" transform="scale(0.015625)"/>
       <path id="DejaVuSans-75" d="M 544 1381 
L 544 3500 
L 1119 3500 
L 1119 1403 
Q 1119 906 1312 657 
Q 1506 409 1894 409 
Q 2359 409 2629 706 
Q 2900 1003 2900 1516 
L 2900 3500 
L 3475 3500 
L 3475 0 
L 2900 0 
L 2900 538 
Q 2691 219 2414 64 
Q 2138 -91 1772 -91 
Q 1169 -91 856 284 
Q 544 659 544 1381 
z
M 1991 3584 
L 1991 3584 
z
" transform="scale(0.015625)"/>
       <path id="DejaVuSans-6e" d="M 3513 2113 
L 3513 0 
L 2938 0 
L 2938 2094 
Q 2938 2591 2744 2837 
Q 2550 3084 2163 3084 
Q 1697 3084 1428 2787 
Q 1159 2491 1159 1978 
L 1159 0 
L 581 0 
L 581 3500 
L 1159 3500 
L 1159 2956 
Q 1366 3272 1645 3428 
Q 1925 3584 2291 3584 
Q 2894 3584 3203 3211 
Q 3513 2838 3513 2113 
z
" transform="scale(0.015625)"/>
       <path id="DejaVuSans-63" d="M 3122 3366 
L 3122 2828 
Q 2878 2963 2633 3030 
Q 2388 3097 2138 3097 
Q 1578 3097 1268 2742 
Q 959 2388 959 1747 
Q 959 1106 1268 751 
Q 1578 397 2138 397 
Q 2388 397 2633 464 
Q 2878 531 3122 666 
L 3122 134 
Q 2881 22 2623 -34 
Q 2366 -91 2075 -91 
Q 1284 -91 818 406 
Q 353 903 353 1747 
Q 353 2603 823 3093 
Q 1294 3584 2113 3584 
Q 2378 3584 2631 3529 
Q 2884 3475 3122 3366 
z
" transform="scale(0.015625)"/>
       <path id="DejaVuSans-79" d="M 2059 -325 
Q 1816 -950 1584 -1140 
Q 1353 -1331 966 -1331 
L 506 -1331 
L 506 -850 
L 844 -850 
Q 1081 -850 1212 -737 
Q 1344 -625 1503 -206 
L 1606 56 
L 191 3500 
L 800 3500 
L 1894 763 
L 2988 3500 
L 3597 3500 
L 2059 -325 
z
" transform="scale(0.015625)"/>
       <path id="DejaVuSans-20" transform="scale(0.015625)"/>
       <path id="DejaVuSans-28" d="M 1984 4856 
Q 1566 4138 1362 3434 
Q 1159 2731 1159 2009 
Q 1159 1288 1364 580 
Q 1569 -128 1984 -844 
L 1484 -844 
Q 1016 -109 783 600 
Q 550 1309 550 2009 
Q 550 2706 781 3412 
Q 1013 4119 1484 4856 
L 1984 4856 
z
" transform="scale(0.015625)"/>
       <path id="DejaVuSans-48" d="M 628 4666 
L 1259 4666 
L 1259 2753 
L 3553 2753 
L 3553 4666 
L 4184 4666 
L 4184 0 
L 3553 0 
L 3553 2222 
L 1259 2222 
L 1259 0 
L 628 0 
L 628 4666 
z
" transform="scale(0.015625)"/>
       <path id="DejaVuSans-7a" d="M 353 3500 
L 3084 3500 
L 3084 2975 
L 922 459 
L 3084 459 
L 3084 0 
L 275 0 
L 275 525 
L 2438 3041 
L 353 3041 
L 353 3500 
z
" transform="scale(0.015625)"/>
       <path id="DejaVuSans-29" d="M 513 4856 
L 1013 4856 
Q 1481 4119 1714 3412 
Q 1947 2706 1947 2009 
Q 1947 1309 1714 600 
Q 1481 -109 1013 -844 
L 513 -844 
Q 928 -128 1133 580 
Q 1338 1288 1338 2009 
Q 1338 2731 1133 3434 
Q 928 4138 513 4856 
z
" transform="scale(0.015625)"/>
      </defs>
      <use xlink:href="#DejaVuSans-46"/>
      <use xlink:href="#DejaVuSans-72" transform="translate(50.269531 0)"/>
      <use xlink:href="#DejaVuSans-65" transform="translate(89.132812 0)"/>
      <use xlink:href="#DejaVuSans-71" transform="translate(150.65625 0)"/>
      <use xlink:href="#DejaVuSans-75" transform="translate(214.132812 0)"/>
      <use xlink:href="#DejaVuSans-65" transform="translate(277.511719 0)"/>
      <use xlink:href="#DejaVuSans-6e" transform="translate(339.035156 0)"/>
      <use xlink:href="#DejaVuSans-63" transform="translate(402.414062 0)"/>
      <use xlink:href="#DejaVuSans-79" transform="translate(457.394531 0)"/>
      <use xlink:href="#DejaVuSans-20" transform="translate(516.574219 0)"/>
      <use xlink:href="#DejaVuSans-28" transform="translate(548.361328 0)"/>
      <use xlink:href="#DejaVuSans-48" transform="translate(587.375 0)"/>
      <use xlink:href="#DejaVuSans-7a" transform="translate(662.570312 0)"/>
      <use xlink:href="#DejaVuSans-29" transform="translate(715.060547 0)"/>
     </g>
    </g>
   </g>
   <g id="matplotlib.axis_2">
    <g id="ytick_1">
     <g id="line2d_13">
      <path d="M 44.804928 218.560392 
L 716.99976 218.560392 
" clip-path="url(#p62afc0108a)" style="fill: none; stroke-dasharray: 0.8,1.32; stroke-dashoffset: 0; stroke: #b0b0b0; stroke-width: 0.8"/>
     </g>
     <g id="line2d_14">
      <defs>
       <path id="m85612823e2" d="M 0 0 
L -3.5 0 
" style="stroke: #000000; stroke-width: 0.8"/>
      </defs>
      <g>
       <use xlink:href="#m85612823e2" x="44.804928" y="218.560392" style="stroke: #000000; stroke-width: 0.8"/>
      </g>
     </g>
     <g id="text_8">
      <!-- 30 -->
      <g transform="translate(16.70024 222.359611) scale(0.1 -0.1)">
       <defs>
        <path id="DejaVuSans-2212" d="M 678 2272 
L 4684 2272 
L 4684 1741 
L 678 1741 
L 678 2272 
z
" transform="scale(0.015625)"/>
        <path id="DejaVuSans-33" d="M 2597 2516 
Q 3050 2419 3304 2112 
Q 3559 1806 3559 1356 
Q 3559 666 3084 287 
Q 2609 -91 1734 -91 
Q 1441 -91 1130 -33 
Q 819 25 488 141 
L 488 750 
Q 750 597 1062 519 
Q 1375 441 1716 441 
Q 2309 441 2620 675 
Q 2931 909 2931 1356 
Q 2931 1769 2642 2001 
Q 2353 2234 1838 2234 
L 1294 2234 
L 1294 2753 
L 1863 2753 
Q 2328 2753 2575 2939 
Q 2822 3125 2822 3475 
Q 2822 3834 2567 4026 
Q 2313 4219 1838 4219 
Q 1578 4219 1281 4162 
Q 984 4106 628 3988 
L 628 4550 
Q 988 4650 1302 4700 
Q 1616 4750 1894 4750 
Q 2613 4750 3031 4423 
Q 3450 4097 3450 3541 
Q 3450 3153 3228 2886 
Q 3006 2619 2597 2516 
z
" transform="scale(0.015625)"/>
       </defs>
       <use xlink:href="#DejaVuSans-2212"/>
       <use xlink:href="#DejaVuSans-33" transform="translate(83.789062 0)"/>
       <use xlink:href="#DejaVuSans-30" transform="translate(147.412109 0)"/>
      </g>
     </g>
    </g>
    <g id="ytick_2">
     <g id="line2d_15">
      <path d="M 44.804928 184.603818 
L 716.99976 184.603818 
" clip-path="url(#p62afc0108a)" style="fill: none; stroke-dasharray: 0.8,1.32; stroke-dashoffset: 0; stroke: #b0b0b0; stroke-width: 0.8"/>
     </g>
     <g id="line2d_16">
      <g>
       <use xlink:href="#m85612823e2" x="44.804928" y="184.603818" style="stroke: #000000; stroke-width: 0.8"/>
      </g>
     </g>
     <g id="text_9">
      <!-- 20 -->
      <g transform="translate(16.70024 188.403037) scale(0.1 -0.1)">
       <use xlink:href="#DejaVuSans-2212"/>
       <use xlink:href="#DejaVuSans-32" transform="translate(83.789062 0)"/>
       <use xlink:href="#DejaVuSans-30" transform="translate(147.412109 0)"/>
      </g>
     </g>
    </g>
    <g id="ytick_3">
     <g id="line2d_17">
      <path d="M 44.804928 150.647244 
L 716.99976 150.647244 
" clip-path="url(#p62afc0108a)" style="fill: none; stroke-dasharray: 0.8,1.32; stroke-dashoffset: 0; stroke: #b0b0b0; stroke-width: 0.8"/>
     </g>
     <g id="line2d_18">
      <g>
       <use xlink:href="#m85612823e2" x="44.804928" y="150.647244" style="stroke: #000000; stroke-width: 0.8"/>
      </g>
     </g>
     <g id="text_10">
      <!-- 10 -->
      <g transform="translate(16.70024 154.446463) scale(0.1 -0.1)">
       <use xlink:href="#DejaVuSans-2212"/>
       <use xlink:href="#DejaVuSans-31" transform="translate(83.789062 0)"/>
       <use xlink:href="#DejaVuSans-30" transform="translate(147.412109 0)"/>
      </g>
     </g>
    </g>
    <g id="ytick_4">
     <g id="line2d_19">
      <path d="M 44.804928 116.69067 
L 716.99976 116.69067 
" clip-path="url(#p62afc0108a)" style="fill: none; stroke-dasharray: 0.8,1.32; stroke-dashoffset: 0; stroke: #b0b0b0; stroke-width: 0.8"/>
     </g>
     <g id="line2d_20">
      <g>
       <use xlink:href="#m85612823e2" x="44.804928" y="116.69067" style="stroke: #000000; stroke-width: 0.8"/>
      </g>
     </g>
     <g id="text_11">
      <!-- 0 -->
      <g transform="translate(31.442428 120.489889) scale(0.1 -0.1)">
       <use xlink:href="#DejaVuSans-30"/>
      </g>
     </g>
    </g>
    <g id="ytick_5">
     <g id="line2d_21">
      <path d="M 44.804928 82.734096 
L 716.99976 82.734096 
" clip-path="url(#p62afc0108a)" style="fill: none; stroke-dasharray: 0.8,1.32; stroke-dashoffset: 0; stroke: #b0b0b0; stroke-width: 0.8"/>
     </g>
     <g id="line2d_22">
      <g>
       <use xlink:href="#m85612823e2" x="44.804928" y="82.734096" style="stroke: #000000; stroke-width: 0.8"/>
      </g>
     </g>
     <g id="text_12">
      <!-- 10 -->
      <g transform="translate(25.079928 86.533314) scale(0.1 -0.1)">
       <use xlink:href="#DejaVuSans-31"/>
       <use xlink:href="#DejaVuSans-30" transform="translate(63.623047 0)"/>
      </g>
     </g>
    </g>
    <g id="ytick_6">
     <g id="line2d_23">
      <path d="M 44.804928 48.777521 
L 716.99976 48.777521 
" clip-path="url(#p62afc0108a)" style="fill: none; stroke-dasharray: 0.8,1.32; stroke-dashoffset: 0; stroke: #b0b0b0; stroke-width: 0.8"/>
     </g>
     <g id="line2d_24">
      <g>
       <use xlink:href="#m85612823e2" x="44.804928" y="48.777521" style="stroke: #000000; stroke-width: 0.8"/>
      </g>
     </g>
     <g id="text_13">
      <!-- 20 -->
      <g transform="translate(25.079928 52.57674) scale(0.1 -0.1)">
       <use xlink:href="#DejaVuSans-32"/>
       <use xlink:href="#DejaVuSans-30" transform="translate(63.623047 0)"/>
      </g>
     </g>
    </g>
    <g id="text_14">
     <!-- Power ($\mathrm{dB}\ $$\mathrm{V/Hz}$) -->
     <g transform="translate(10.60024 164.030937) rotate(-90) scale(0.1 -0.1)">
      <defs>
       <path id="DejaVuSans-50" d="M 1259 4147 
L 1259 2394 
L 2053 2394 
Q 2494 2394 2734 2622 
Q 2975 2850 2975 3272 
Q 2975 3691 2734 3919 
Q 2494 4147 2053 4147 
L 1259 4147 
z
M 628 4666 
L 2053 4666 
Q 2838 4666 3239 4311 
Q 3641 3956 3641 3272 
Q 3641 2581 3239 2228 
Q 2838 1875 2053 1875 
L 1259 1875 
L 1259 0 
L 628 0 
L 628 4666 
z
" transform="scale(0.015625)"/>
       <path id="DejaVuSans-6f" d="M 1959 3097 
Q 1497 3097 1228 2736 
Q 959 2375 959 1747 
Q 959 1119 1226 758 
Q 1494 397 1959 397 
Q 2419 397 2687 759 
Q 2956 1122 2956 1747 
Q 2956 2369 2687 2733 
Q 2419 3097 1959 3097 
z
M 1959 3584 
Q 2709 3584 3137 3096 
Q 3566 2609 3566 1747 
Q 3566 888 3137 398 
Q 2709 -91 1959 -91 
Q 1206 -91 779 398 
Q 353 888 353 1747 
Q 353 2609 779 3096 
Q 1206 3584 1959 3584 
z
" transform="scale(0.015625)"/>
       <path id="DejaVuSans-77" d="M 269 3500 
L 844 3500 
L 1563 769 
L 2278 3500 
L 2956 3500 
L 3675 769 
L 4391 3500 
L 4966 3500 
L 4050 0 
L 3372 0 
L 2619 2869 
L 1863 0 
L 1184 0 
L 269 3500 
z
" transform="scale(0.015625)"/>
       <path id="DejaVuSans-64" d="M 2906 2969 
L 2906 4863 
L 3481 4863 
L 3481 0 
L 2906 0 
L 2906 525 
Q 2725 213 2448 61 
Q 2172 -91 1784 -91 
Q 1150 -91 751 415 
Q 353 922 353 1747 
Q 353 2572 751 3078 
Q 1150 3584 1784 3584 
Q 2172 3584 2448 3432 
Q 2725 3281 2906 2969 
z
M 947 1747 
Q 947 1113 1208 752 
Q 1469 391 1925 391 
Q 2381 391 2643 752 
Q 2906 1113 2906 1747 
Q 2906 2381 2643 2742 
Q 2381 3103 1925 3103 
Q 1469 3103 1208 2742 
Q 947 2381 947 1747 
z
" transform="scale(0.015625)"/>
       <path id="DejaVuSans-42" d="M 1259 2228 
L 1259 519 
L 2272 519 
Q 2781 519 3026 730 
Q 3272 941 3272 1375 
Q 3272 1813 3026 2020 
Q 2781 2228 2272 2228 
L 1259 2228 
z
M 1259 4147 
L 1259 2741 
L 2194 2741 
Q 2656 2741 2882 2914 
Q 3109 3088 3109 3444 
Q 3109 3797 2882 3972 
Q 2656 4147 2194 4147 
L 1259 4147 
z
M 628 4666 
L 2241 4666 
Q 2963 4666 3353 4366 
Q 3744 4066 3744 3513 
Q 3744 3084 3544 2831 
Q 3344 2578 2956 2516 
Q 3422 2416 3680 2098 
Q 3938 1781 3938 1306 
Q 3938 681 3513 340 
Q 3088 0 2303 0 
L 628 0 
L 628 4666 
z
" transform="scale(0.015625)"/>
       <path id="DejaVuSans-b5" d="M 544 -1331 
L 544 3500 
L 1119 3500 
L 1119 1325 
Q 1119 872 1334 640 
Q 1550 409 1972 409 
Q 2434 409 2667 671 
Q 2900 934 2900 1459 
L 2900 3500 
L 3475 3500 
L 3475 806 
Q 3475 619 3529 530 
Q 3584 441 3700 441 
Q 3728 441 3778 458 
Q 3828 475 3916 513 
L 3916 50 
Q 3788 -22 3673 -56 
Q 3559 -91 3450 -91 
Q 3234 -91 3106 31 
Q 2978 153 2931 403 
Q 2775 156 2548 32 
Q 2322 -91 2016 -91 
Q 1697 -91 1473 31 
Q 1250 153 1119 397 
L 1119 -1331 
L 544 -1331 
z
" transform="scale(0.015625)"/>
       <path id="DejaVuSans-56" d="M 1831 0 
L 50 4666 
L 709 4666 
L 2188 738 
L 3669 4666 
L 4325 4666 
L 2547 0 
L 1831 0 
z
" transform="scale(0.015625)"/>
       <path id="DejaVuSans-b2" d="M 838 2444 
L 2163 2444 
L 2163 2088 
L 294 2088 
L 294 2431 
Q 400 2528 597 2703 
Q 1672 3656 1672 3950 
Q 1672 4156 1509 4282 
Q 1347 4409 1081 4409 
Q 919 4409 728 4354 
Q 538 4300 313 4191 
L 313 4575 
Q 553 4663 761 4706 
Q 969 4750 1147 4750 
Q 1600 4750 1872 4544 
Q 2144 4338 2144 4000 
Q 2144 3566 1109 2678 
Q 934 2528 838 2444 
z
" transform="scale(0.015625)"/>
       <path id="DejaVuSans-2f" d="M 1625 4666 
L 2156 4666 
L 531 -594 
L 0 -594 
L 1625 4666 
z
" transform="scale(0.015625)"/>
      </defs>
      <use xlink:href="#DejaVuSans-50" transform="translate(0 0.015625)"/>
      <use xlink:href="#DejaVuSans-6f" transform="translate(60.302734 0.015625)"/>
      <use xlink:href="#DejaVuSans-77" transform="translate(121.484375 0.015625)"/>
      <use xlink:href="#DejaVuSans-65" transform="translate(203.271484 0.015625)"/>
      <use xlink:href="#DejaVuSans-72" transform="translate(264.794922 0.015625)"/>
      <use xlink:href="#DejaVuSans-20" transform="translate(305.908203 0.015625)"/>
      <use xlink:href="#DejaVuSans-28" transform="translate(337.695312 0.015625)"/>
      <use xlink:href="#DejaVuSans-64" transform="translate(376.708984 0.015625)"/>
      <use xlink:href="#DejaVuSans-42" transform="translate(440.185547 0.015625)"/>
      <use xlink:href="#DejaVuSans-b5" transform="translate(541.259441 0.015625)"/>
      <use xlink:href="#DejaVuSans-56" transform="translate(604.882488 0.015625)"/>
      <use xlink:href="#DejaVuSans-b2" transform="translate(673.290691 0.015625)"/>
      <use xlink:href="#DejaVuSans-2f" transform="translate(713.378582 0.015625)"/>
      <use xlink:href="#DejaVuSans-48" transform="translate(745.319988 0.015625)"/>
      <use xlink:href="#DejaVuSans-7a" transform="translate(820.5153 0.015625)"/>
      <use xlink:href="#DejaVuSans-29" transform="translate(873.005535 0.015625)"/>
     </g>
    </g>
   </g>
   <g id="line2d_25">
    <path d="M 716.99976 218.64351 
L 716.99976 18.118365 
" clip-path="url(#p62afc0108a)" style="fill: none; stroke-dasharray: 7.4,3.2; stroke-dashoffset: 0; stroke: #000000; stroke-opacity: 0.25; stroke-width: 2"/>
   </g>
   <g id="line2d_26">
    <path d="M 34.135168 218.64351 
L 34.135168 18.118365 
" clip-path="url(#p62afc0108a)" style="fill: none; stroke-dasharray: 7.4,3.2; stroke-dashoffset: 0; stroke: #000000; stroke-opacity: 0.25; stroke-width: 2"/>
   </g>
   <g id="line2d_27">
    <path d="M 44.804928 45.55826 
L 45.471787 43.749139 
L 46.138647 46.461282 
L 46.805507 50.819382 
L 47.472367 53.039923 
L 48.139227 49.299537 
L 48.806087 49.046234 
L 49.472947 55.977236 
L 50.139807 49.311293 
L 50.806667 52.936428 
L 51.473527 55.905966 
L 52.140387 52.471528 
L 52.807247 54.753324 
L 53.474107 55.504644 
L 54.140967 57.474525 
L 54.807827 53.092183 
L 55.474687 52.590497 
L 56.141547 57.076822 
L 56.808407 55.964214 
L 57.475267 58.410553 
L 58.142127 60.218184 
L 58.808987 64.231572 
L 59.475846 62.196404 
L 60.142706 62.26951 
L 60.809566 62.600223 
L 61.476426 62.611153 
L 62.143286 62.436177 
L 63.477006 66.772915 
L 64.143866 66.777667 
L 64.810726 69.195998 
L 65.477586 68.668652 
L 66.144446 67.654854 
L 66.811306 70.859353 
L 67.478166 68.748805 
L 68.145026 70.683888 
L 68.811886 70.849865 
L 69.478746 69.627801 
L 70.145606 67.461552 
L 70.812466 69.817133 
L 71.479326 75.215045 
L 72.146186 73.683643 
L 72.813046 75.054441 
L 73.479905 75.622844 
L 74.146765 74.865651 
L 74.813625 71.731321 
L 75.480485 72.564259 
L 76.147345 76.877523 
L 77.481065 81.159727 
L 78.814785 78.54042 
L 79.481645 80.115276 
L 80.148505 79.619074 
L 80.815365 81.959762 
L 81.482225 82.803211 
L 82.149085 85.272318 
L 82.815945 83.615457 
L 83.482805 82.876555 
L 84.149665 85.571152 
L 84.816525 86.873483 
L 85.483385 85.339154 
L 86.150245 85.505149 
L 86.817105 90.000429 
L 87.483964 90.875272 
L 88.150824 92.864314 
L 88.817684 89.222717 
L 89.484544 88.994685 
L 90.151404 91.610738 
L 90.818264 87.635263 
L 91.485124 89.182649 
L 92.151984 91.474848 
L 92.818844 89.443056 
L 93.485704 91.488585 
L 94.152564 89.278244 
L 94.819424 90.125088 
L 95.486284 92.054945 
L 96.153144 95.988929 
L 96.820004 93.57964 
L 98.153724 91.614179 
L 98.820584 91.657072 
L 99.487444 95.645654 
L 100.154304 94.870333 
L 100.821164 93.575961 
L 101.488023 93.532092 
L 102.154883 96.063245 
L 102.821743 95.77275 
L 103.488603 93.105741 
L 104.155463 96.161368 
L 104.822323 100.07375 
L 105.489183 97.849968 
L 106.156043 96.70168 
L 106.822903 94.095355 
L 107.489763 93.069968 
L 108.156623 94.425068 
L 108.823483 96.892889 
L 109.490343 94.970033 
L 110.157203 95.340356 
L 110.824063 94.751307 
L 111.490923 97.583885 
L 112.824643 96.986291 
L 113.491503 95.158646 
L 114.158363 94.893104 
L 114.825223 97.671448 
L 115.492083 94.68069 
L 116.158942 97.351544 
L 116.825802 97.417228 
L 117.492662 99.366926 
L 118.159522 99.140183 
L 119.493242 69.120524 
L 120.160102 85.147876 
L 120.826962 97.128075 
L 121.493822 98.693683 
L 122.160682 97.79229 
L 122.827542 94.964762 
L 123.494402 94.038979 
L 124.828122 97.008418 
L 125.494982 98.674021 
L 126.161842 98.543035 
L 126.828702 98.200966 
L 127.495562 96.574021 
L 128.829282 99.115159 
L 129.496142 101.570975 
L 130.163001 98.950753 
L 130.829861 96.79213 
L 131.496721 95.773102 
L 132.830441 98.23304 
L 133.497301 99.867046 
L 134.164161 96.512189 
L 134.831021 95.354227 
L 135.497881 97.43209 
L 136.164741 95.682088 
L 136.831601 95.782189 
L 137.498461 97.878544 
L 138.165321 99.607265 
L 138.832181 98.156934 
L 139.499041 97.945003 
L 140.165901 98.693892 
L 140.832761 99.229185 
L 141.499621 99.324569 
L 142.166481 99.952537 
L 142.833341 101.80549 
L 143.500201 100.023866 
L 144.16706 100.579686 
L 144.83392 100.683215 
L 146.16764 95.326192 
L 146.8345 94.283176 
L 147.50136 98.658348 
L 148.16822 100.718779 
L 148.83508 101.74445 
L 149.50194 101.186787 
L 150.1688 98.788007 
L 150.83566 97.689566 
L 151.50252 97.794966 
L 152.16938 99.445455 
L 152.83624 98.71538 
L 153.5031 99.531652 
L 154.16996 101.732006 
L 154.83682 100.210261 
L 156.17054 101.967981 
L 156.8374 102.68259 
L 157.50426 101.08626 
L 158.171119 102.69143 
L 158.837979 102.344908 
L 159.504839 102.371197 
L 160.171699 99.598708 
L 160.838559 104.600506 
L 161.505419 99.972255 
L 162.172279 97.691488 
L 162.839139 97.567312 
L 163.505999 101.23077 
L 164.172859 104.146868 
L 164.839719 103.178764 
L 166.173439 99.291089 
L 167.507159 98.500938 
L 168.174019 99.398243 
L 168.840879 96.658059 
L 170.174599 98.57134 
L 170.841459 98.039837 
L 171.508319 100.67089 
L 172.175178 105.073092 
L 172.842038 101.660632 
L 173.508898 99.526356 
L 174.175758 101.32285 
L 174.842618 100.664861 
L 175.509478 99.594408 
L 176.176338 99.628522 
L 176.843198 97.803503 
L 177.510058 98.206148 
L 178.176918 98.835202 
L 178.843778 101.644651 
L 179.510638 102.555439 
L 180.177498 101.790481 
L 181.511218 97.362111 
L 182.178078 95.253234 
L 182.844938 94.371664 
L 183.511798 94.198108 
L 184.845518 97.19689 
L 185.512378 96.598231 
L 186.179238 94.33072 
L 186.846097 98.324613 
L 187.512957 100.086634 
L 188.179817 100.684728 
L 188.846677 100.218062 
L 189.513537 97.996181 
L 190.180397 98.043229 
L 190.847257 96.815071 
L 192.180977 96.694339 
L 192.847837 98.823003 
L 193.514697 96.479257 
L 194.181557 97.17702 
L 194.848417 97.449136 
L 195.515277 94.687661 
L 196.182137 95.187104 
L 196.848997 98.072382 
L 197.515857 101.795607 
L 198.182717 99.336915 
L 198.849577 97.458262 
L 199.516437 98.885023 
L 200.850156 100.802221 
L 201.517016 100.065343 
L 202.183876 100.681702 
L 202.850736 99.74604 
L 203.517596 101.531568 
L 204.851316 67.964211 
L 206.185036 98.947715 
L 206.851896 97.753953 
L 207.518756 99.609629 
L 208.185616 103.537397 
L 208.852476 103.327616 
L 209.519336 101.126951 
L 210.186196 99.801237 
L 211.519916 94.67214 
L 212.186776 97.140758 
L 212.853636 97.188437 
L 213.520496 99.256222 
L 214.187356 98.356097 
L 214.854215 98.130218 
L 215.521075 99.976639 
L 216.854795 103.216375 
L 217.521655 101.174333 
L 218.188515 100.529538 
L 218.855375 100.454618 
L 219.522235 101.53949 
L 220.189095 101.070215 
L 220.855955 99.557878 
L 221.522815 99.167291 
L 222.189675 100.612372 
L 222.856535 101.590853 
L 223.523395 102.029493 
L 224.190255 101.655825 
L 224.857115 102.890714 
L 225.523975 101.918178 
L 226.190835 99.701217 
L 226.857695 100.059016 
L 227.524555 101.123241 
L 228.191415 104.205517 
L 228.858274 102.418162 
L 229.525134 103.960465 
L 230.191994 102.494293 
L 230.858854 100.171259 
L 231.525714 99.390363 
L 232.192574 101.097701 
L 232.859434 98.65433 
L 233.526294 97.649778 
L 234.193154 100.342511 
L 234.860014 101.197592 
L 235.526874 102.366138 
L 236.193734 102.906116 
L 236.860594 102.187847 
L 237.527454 101.103208 
L 238.194314 99.350895 
L 238.861174 100.399013 
L 239.528034 102.775909 
L 240.861754 104.264402 
L 241.528614 102.391744 
L 242.195474 99.956753 
L 242.862334 99.066006 
L 243.529193 100.864296 
L 244.196053 101.979798 
L 244.862913 103.89258 
L 245.529773 104.137573 
L 246.196633 107.31468 
L 246.863493 103.499432 
L 247.530353 102.83248 
L 248.197213 102.89536 
L 248.864073 104.646372 
L 249.530933 105.191942 
L 250.197793 104.719291 
L 250.864653 101.650011 
L 252.198373 104.493745 
L 252.865233 108.680397 
L 253.532093 111.682388 
L 254.865813 105.149635 
L 255.532673 107.203298 
L 256.199533 102.997685 
L 256.866393 104.680626 
L 257.533252 107.8272 
L 258.200112 107.574264 
L 258.866972 107.529844 
L 259.533832 110.755089 
L 260.200692 111.576161 
L 260.867552 109.43585 
L 261.534412 109.378473 
L 262.201272 108.968041 
L 262.868132 110.316042 
L 263.534992 110.76153 
L 264.201852 109.992307 
L 264.868712 113.217731 
L 265.535572 112.514054 
L 266.202432 112.796216 
L 266.869292 110.76043 
L 267.536152 112.865983 
L 268.203012 111.124156 
L 268.869872 102.226818 
L 269.536732 103.032371 
L 270.203592 112.145673 
L 270.870452 113.918995 
L 271.537311 113.990779 
L 272.204171 111.410485 
L 272.871031 110.605396 
L 273.537891 110.899287 
L 274.204751 108.442093 
L 274.871611 109.691303 
L 275.538471 111.772313 
L 276.205331 114.854491 
L 276.872191 112.238492 
L 277.539051 113.812313 
L 278.205911 114.17429 
L 278.872771 116.232259 
L 279.539631 119.05905 
L 280.206491 118.920346 
L 280.873351 117.623333 
L 281.540211 119.457742 
L 282.207071 121.990633 
L 282.873931 122.813528 
L 283.540791 118.612773 
L 284.207651 116.424146 
L 285.54137 116.073837 
L 286.20823 118.467654 
L 286.87509 119.100891 
L 287.54195 118.572724 
L 288.20881 120.030315 
L 288.87567 118.196234 
L 290.20939 89.807478 
L 291.54311 117.307856 
L 292.20997 118.426012 
L 292.87683 122.102349 
L 293.54369 123.836235 
L 294.21055 122.004967 
L 294.87741 125.884727 
L 296.21113 126.421875 
L 296.87799 127.148547 
L 297.54485 125.237327 
L 298.21171 124.397768 
L 298.87857 125.645895 
L 299.545429 128.593314 
L 300.212289 129.284604 
L 300.879149 131.137831 
L 301.546009 132.419132 
L 302.212869 131.809002 
L 302.879729 133.404601 
L 303.546589 132.490025 
L 304.213449 135.313654 
L 304.880309 134.605399 
L 305.547169 134.379771 
L 306.214029 134.881896 
L 306.880889 134.417772 
L 307.547749 138.383231 
L 308.214609 134.631718 
L 308.881469 134.087918 
L 309.548329 134.97854 
L 310.215189 138.293791 
L 310.882049 137.284249 
L 311.548909 137.152623 
L 312.215769 139.351149 
L 312.882629 140.502395 
L 313.549489 141.285364 
L 314.216348 141.645834 
L 314.883208 140.428341 
L 315.550068 140.193617 
L 316.216928 142.758103 
L 316.883788 143.050058 
L 317.550648 143.842473 
L 318.217508 144.950528 
L 319.551228 145.816599 
L 320.218088 147.953706 
L 320.884948 154.432853 
L 321.551808 150.438695 
L 322.218668 147.305588 
L 322.885528 147.224632 
L 323.552388 150.164209 
L 324.219248 154.119668 
L 324.886108 155.093442 
L 325.552968 153.808954 
L 326.886688 155.28955 
L 327.553548 156.734329 
L 328.220407 160.730427 
L 328.887267 162.073095 
L 329.554127 160.110391 
L 330.220987 160.883791 
L 330.887847 162.376308 
L 332.221567 162.508302 
L 332.888427 164.15868 
L 333.555287 164.318485 
L 334.222147 164.357045 
L 334.889007 164.798968 
L 335.555867 164.646345 
L 336.222727 166.275436 
L 336.889587 166.108019 
L 337.556447 170.147584 
L 338.223307 171.255896 
L 338.890167 171.381899 
L 339.557027 174.110067 
L 340.223887 175.868246 
L 340.890747 176.80143 
L 341.557607 172.396191 
L 342.224466 175.606161 
L 342.891326 177.769859 
L 343.558186 175.438031 
L 344.225046 175.983882 
L 344.891906 180.324705 
L 345.558766 181.040044 
L 346.225626 182.971987 
L 346.892486 183.520977 
L 347.559346 182.472241 
L 348.226206 183.362043 
L 348.893066 184.787472 
L 349.559926 182.09706 
L 350.226786 180.407113 
L 350.893646 181.874511 
L 351.560506 182.523502 
L 352.894226 182.141773 
L 353.561086 139.097632 
L 354.227946 111.751774 
L 354.894806 131.229182 
L 355.561666 183.597855 
L 356.228525 183.675541 
L 356.895385 188.036245 
L 357.562245 188.785614 
L 358.229105 187.661468 
L 358.895965 184.781537 
L 359.562825 186.582817 
L 360.229685 185.500316 
L 360.896545 185.038885 
L 361.563405 186.199064 
L 362.230265 186.343987 
L 362.897125 183.088898 
L 363.563985 185.619612 
L 364.230845 186.938747 
L 364.897705 186.175257 
L 365.564565 183.606756 
L 366.231425 181.671467 
L 366.898285 182.973934 
L 367.565145 181.044075 
L 368.232005 182.806559 
L 368.898865 182.193828 
L 369.565725 181.02547 
L 370.232585 174.711545 
L 370.899444 172.027256 
L 371.566304 174.609588 
L 372.233164 174.141767 
L 372.900024 171.217979 
L 373.566884 172.497871 
L 374.233744 171.476254 
L 375.567464 142.482243 
L 376.234324 156.896544 
L 376.901184 174.00028 
L 377.568044 170.471771 
L 378.234904 168.338286 
L 378.901764 166.619909 
L 379.568624 168.249787 
L 380.902344 170.711367 
L 381.569204 163.234817 
L 382.236064 163.559123 
L 382.902924 161.835723 
L 384.236644 157.673633 
L 384.903503 156.532912 
L 385.570363 158.364114 
L 386.237223 163.471203 
L 386.904083 163.689911 
L 387.570943 163.60432 
L 388.237803 162.42286 
L 388.904663 162.660616 
L 389.571523 157.768771 
L 390.238383 157.012589 
L 390.905243 158.00786 
L 391.572103 160.391784 
L 392.238963 158.668596 
L 392.905823 158.542367 
L 394.239543 152.725664 
L 394.906403 154.189852 
L 396.906983 148.622768 
L 398.240703 154.23151 
L 398.907562 153.510508 
L 399.574422 150.164407 
L 400.908142 148.682292 
L 401.575002 144.809909 
L 402.241862 146.800234 
L 402.908722 147.176099 
L 403.575582 146.23775 
L 404.242442 145.96877 
L 404.909302 144.756727 
L 405.576162 145.393802 
L 406.243022 142.974007 
L 406.909882 143.649677 
L 407.576742 142.869117 
L 408.243602 139.426429 
L 408.910462 139.869905 
L 409.577322 140.785588 
L 410.244182 139.748692 
L 410.911042 140.443786 
L 411.577902 140.195364 
L 412.244762 140.903774 
L 412.911621 140.226129 
L 413.578481 141.055847 
L 414.245341 141.021001 
L 414.912201 137.094535 
L 415.579061 137.218384 
L 416.245921 139.180192 
L 416.912781 136.466145 
L 417.579641 136.512241 
L 418.246501 137.586407 
L 418.913361 136.447944 
L 419.580221 140.343472 
L 420.247081 140.428444 
L 420.913941 136.317217 
L 421.580801 133.489448 
L 422.247661 133.226313 
L 422.914521 136.916021 
L 423.581381 134.917321 
L 424.248241 135.614674 
L 425.581961 135.161402 
L 426.248821 136.883906 
L 426.91568 136.118084 
L 427.58254 133.886618 
L 428.2494 132.212594 
L 428.91626 132.933187 
L 429.58312 134.258793 
L 430.91684 128.436053 
L 431.5837 130.89503 
L 432.25056 130.352879 
L 432.91742 130.076417 
L 433.58428 131.668022 
L 434.25114 131.354439 
L 434.918 131.882062 
L 435.58486 135.030657 
L 436.25172 134.75855 
L 436.91858 131.633084 
L 437.58544 129.856488 
L 438.2523 131.475785 
L 438.91916 109.424099 
L 439.58602 99.953814 
L 440.25288 119.872354 
L 440.91974 131.002949 
L 441.586599 131.762893 
L 442.253459 132.06557 
L 442.920319 129.052995 
L 443.587179 129.745315 
L 444.254039 134.365789 
L 444.920899 130.199292 
L 445.587759 128.648931 
L 446.254619 127.924369 
L 446.921479 126.248594 
L 447.588339 128.244623 
L 448.255199 129.566385 
L 448.922059 129.365023 
L 449.588919 126.051966 
L 450.255779 128.829273 
L 450.922639 133.940877 
L 451.589499 133.030821 
L 452.256359 130.92707 
L 452.923219 130.513737 
L 453.590079 132.185096 
L 454.256939 131.874406 
L 454.923799 127.503535 
L 455.590658 126.784035 
L 456.257518 130.659468 
L 456.924378 130.815131 
L 457.591238 128.930856 
L 458.258098 127.807379 
L 458.924958 127.832413 
L 459.591818 128.854302 
L 460.925538 102.457779 
L 462.259258 124.807727 
L 462.926118 128.504207 
L 463.592978 127.174109 
L 464.259838 125.391868 
L 464.926698 127.632176 
L 465.593558 127.50066 
L 466.260418 128.457405 
L 466.927278 129.008002 
L 467.594138 128.515118 
L 468.260998 128.709792 
L 468.927858 128.65647 
L 469.594717 129.317112 
L 470.261577 129.602811 
L 470.928437 128.357173 
L 471.595297 129.729141 
L 472.262157 127.358448 
L 472.929017 129.591373 
L 473.595877 132.41255 
L 474.929597 126.13549 
L 475.596457 126.195391 
L 476.263317 128.792444 
L 476.930177 129.109934 
L 477.597037 131.428589 
L 478.263897 130.872481 
L 478.930757 129.780905 
L 479.597617 130.932787 
L 480.264477 132.467793 
L 480.931337 131.013613 
L 481.598197 130.510653 
L 482.265057 130.169762 
L 482.931917 133.345697 
L 483.598776 132.49989 
L 484.265636 128.513561 
L 484.932496 131.592179 
L 485.599356 131.940953 
L 486.266216 131.784536 
L 486.933076 134.147477 
L 487.599936 135.516716 
L 488.266796 135.261074 
L 488.933656 132.104128 
L 489.600516 133.574955 
L 490.267376 132.029671 
L 490.934236 135.934952 
L 491.601096 137.074926 
L 492.267956 133.922069 
L 492.934816 133.141588 
L 493.601676 136.93207 
L 494.268536 137.563013 
L 495.602256 133.323722 
L 496.269116 133.914522 
L 496.935976 136.090044 
L 497.602836 135.849092 
L 498.936555 134.51271 
L 499.603415 135.853491 
L 500.270275 136.181852 
L 500.937135 134.195814 
L 501.603995 136.285182 
L 502.270855 135.839446 
L 502.937715 137.204701 
L 503.604575 133.624946 
L 504.271435 131.835252 
L 504.938295 132.999464 
L 506.272015 137.279904 
L 506.938875 136.202613 
L 507.605735 138.208335 
L 508.272595 137.653419 
L 508.939455 135.080452 
L 509.606315 136.059554 
L 510.273175 138.349906 
L 510.940035 134.938586 
L 511.606895 136.883332 
L 512.273754 139.744602 
L 512.940614 138.672435 
L 513.607474 138.984404 
L 514.274334 139.943205 
L 514.941194 142.067632 
L 515.608054 142.213802 
L 516.274914 139.753634 
L 516.941774 138.887282 
L 517.608634 141.446321 
L 518.275494 140.763497 
L 518.942354 137.866328 
L 520.276074 139.101843 
L 520.942934 141.088953 
L 521.609794 141.301716 
L 522.276654 140.894734 
L 523.610374 143.474287 
L 524.277234 134.719369 
L 524.944094 132.061997 
L 526.277813 143.140627 
L 527.611533 143.429629 
L 528.278393 142.929428 
L 528.945253 145.904876 
L 529.612113 144.272893 
L 530.278973 141.594567 
L 530.945833 144.274345 
L 532.279553 142.208446 
L 532.946413 143.462931 
L 533.613273 142.196186 
L 534.280133 142.2789 
L 534.946993 147.164795 
L 535.613853 147.163026 
L 536.280713 144.07821 
L 536.947573 146.676525 
L 537.614433 148.779342 
L 538.281293 148.36244 
L 538.948153 145.211441 
L 539.615013 146.248795 
L 540.281872 146.924811 
L 540.948732 145.528621 
L 541.615592 142.589332 
L 542.282452 142.980651 
L 542.949312 144.047271 
L 543.616172 146.633492 
L 544.283032 147.166285 
L 544.949892 147.911173 
L 546.283612 125.981094 
L 547.617332 146.346293 
L 548.284192 145.923264 
L 549.617912 143.407357 
L 550.284772 149.683021 
L 550.951632 151.569817 
L 551.618492 148.462337 
L 552.285352 147.501847 
L 552.952212 148.256055 
L 553.619072 146.548855 
L 554.285931 146.422739 
L 554.952791 149.122857 
L 555.619651 148.874415 
L 556.286511 147.265322 
L 556.953371 147.184753 
L 557.620231 149.364804 
L 558.287091 148.609943 
L 558.953951 146.474697 
L 559.620811 148.130488 
L 560.287671 150.385929 
L 560.954531 151.207859 
L 561.621391 147.734873 
L 562.288251 151.221007 
L 562.955111 152.543799 
L 563.621971 147.246132 
L 564.288831 144.995057 
L 564.955691 147.527464 
L 565.622551 148.944322 
L 566.289411 148.479586 
L 566.956271 150.785663 
L 567.623131 146.840284 
L 568.289991 146.70913 
L 568.95685 149.189017 
L 569.62371 153.19232 
L 570.29057 154.422907 
L 570.95743 151.935367 
L 571.62429 147.156569 
L 572.29115 148.420889 
L 572.95801 150.970746 
L 573.62487 149.261669 
L 574.29173 149.390904 
L 574.95859 151.113152 
L 575.62545 150.875344 
L 576.29231 148.783352 
L 576.95917 149.561904 
L 577.62603 147.944201 
L 578.29289 149.89966 
L 578.95975 150.685819 
L 580.29347 147.918401 
L 580.96033 150.122449 
L 581.62719 149.98248 
L 582.29405 151.715695 
L 582.960909 154.260512 
L 583.627769 154.133738 
L 584.294629 151.363081 
L 584.961489 154.154369 
L 585.628349 152.595295 
L 586.295209 154.505979 
L 586.962069 151.095942 
L 587.628929 151.195384 
L 588.295789 153.705097 
L 588.962649 149.90699 
L 589.629509 152.473779 
L 590.296369 151.99109 
L 590.963229 152.922868 
L 591.630089 151.268694 
L 592.296949 151.682413 
L 592.963809 154.304169 
L 593.630669 155.299665 
L 594.297529 154.600496 
L 594.964389 152.430375 
L 595.631249 151.469429 
L 596.298109 153.880119 
L 596.964968 151.286407 
L 597.631828 149.93433 
L 598.298688 153.074759 
L 598.965548 151.885376 
L 599.632408 152.945431 
L 600.299268 153.206851 
L 600.966128 153.636739 
L 601.632988 152.083236 
L 602.299848 153.451233 
L 602.966708 153.818622 
L 603.633568 153.897166 
L 604.300428 157.003975 
L 604.967288 153.169739 
L 605.634148 154.640921 
L 606.301008 155.12818 
L 606.967868 151.924883 
L 607.634728 152.711454 
L 608.301588 154.148611 
L 608.968448 154.082947 
L 609.635308 152.679675 
L 610.302168 148.331848 
L 610.969027 152.839446 
L 611.635887 152.413654 
L 612.302747 156.276171 
L 612.969607 155.620143 
L 613.636467 154.286237 
L 614.303327 154.764143 
L 614.970187 155.924722 
L 615.637047 155.675801 
L 616.303907 152.236076 
L 616.970767 150.691217 
L 617.637627 150.308768 
L 618.304487 152.792633 
L 618.971347 154.804539 
L 619.638207 152.818251 
L 620.305067 152.267748 
L 620.971927 152.077207 
L 621.638787 154.18578 
L 622.305647 154.237574 
L 622.972507 152.460013 
L 623.639367 154.208714 
L 624.306227 157.28438 
L 624.973087 157.694603 
L 625.639946 154.037798 
L 626.306806 153.548304 
L 627.640526 153.97441 
L 628.307386 153.94375 
L 628.974246 153.35711 
L 629.641106 153.941392 
L 630.307966 153.486687 
L 630.974826 146.540289 
L 631.641686 138.086826 
L 632.975406 154.956022 
L 633.642266 156.276509 
L 634.309126 155.590381 
L 634.975986 153.934663 
L 635.642846 155.468049 
L 636.309706 157.492211 
L 636.976566 155.563685 
L 637.643426 155.805066 
L 638.310286 154.772401 
L 638.977146 155.499946 
L 639.644005 154.877581 
L 640.977725 158.802836 
L 641.644585 157.097441 
L 642.311445 157.447993 
L 642.978305 158.263601 
L 643.645165 156.457653 
L 644.312025 156.104309 
L 645.645745 158.006572 
L 646.312605 156.661612 
L 646.979465 158.739597 
L 647.646325 159.885563 
L 648.313185 159.987453 
L 648.980045 156.521354 
L 649.646905 157.00408 
L 650.313765 157.014996 
L 650.980625 157.898898 
L 651.647485 161.072405 
L 652.314345 156.819035 
L 652.981205 154.748884 
L 653.648064 158.586063 
L 654.314924 160.87081 
L 654.981784 157.801032 
L 655.648644 158.684851 
L 656.982364 159.137077 
L 657.649224 158.44688 
L 658.316084 158.377155 
L 658.982944 160.303747 
L 659.649804 157.962844 
L 660.316664 156.808442 
L 660.983524 159.894106 
L 661.650384 158.313459 
L 662.317244 157.797336 
L 662.984104 159.361644 
L 663.650964 160.430704 
L 664.317824 156.9082 
L 664.984684 156.272257 
L 665.651544 157.058486 
L 666.985264 156.997802 
L 667.652123 159.867437 
L 668.985843 159.481428 
L 669.652703 159.705278 
L 670.319563 158.832143 
L 670.986423 160.325404 
L 671.653283 160.839827 
L 672.320143 156.975608 
L 672.987003 156.127925 
L 673.653863 156.125306 
L 674.320723 153.085344 
L 675.654443 159.6285 
L 676.321303 163.189455 
L 676.988163 163.613975 
L 677.655023 161.048385 
L 678.321883 162.719535 
L 678.988743 162.298698 
L 679.655603 161.325318 
L 680.322463 165.637118 
L 680.989323 166.517714 
L 681.656182 161.650871 
L 682.323042 162.069769 
L 682.989902 161.378925 
L 683.656762 162.157282 
L 684.323622 164.539152 
L 684.990482 165.838432 
L 685.657342 165.834784 
L 686.324202 167.521554 
L 686.991062 165.53584 
L 687.657922 166.774552 
L 688.324782 167.146608 
L 688.991642 163.032772 
L 689.658502 162.977951 
L 690.325362 165.304309 
L 690.992222 165.269196 
L 691.659082 164.00574 
L 692.992802 163.480271 
L 693.659662 166.137841 
L 694.326522 168.17046 
L 694.993382 163.365372 
L 695.660242 157.190237 
L 696.993961 166.185868 
L 697.660821 166.923277 
L 698.327681 167.165013 
L 699.661401 164.979757 
L 700.328261 165.108049 
L 700.995121 165.956715 
L 701.661981 167.86282 
L 702.328841 167.990717 
L 702.995701 169.131306 
L 703.662561 165.018829 
L 704.329421 165.356646 
L 705.663141 167.865407 
L 706.330001 166.115746 
L 706.996861 165.331241 
L 707.663721 165.86301 
L 708.330581 164.534048 
L 708.997441 166.114093 
L 710.33116 165.06245 
L 710.99802 166.385765 
L 711.66488 166.060763 
L 712.33174 167.101046 
L 712.9986 166.94616 
L 713.66546 161.099185 
L 714.33232 159.686064 
L 714.99918 160.530778 
L 715.66604 164.14251 
L 716.3329 157.30703 
L 716.99976 160.592596 
L 716.99976 160.592596 
" clip-path="url(#p62afc0108a)" style="fill: none; stroke: #000000; stroke-width: 0.5; stroke-linecap: square"/>
   </g>
   <g id="patch_3">
    <path d="M 44.804928 218.64351 
L 44.804928 18.118365 
" style="fill: none; stroke: #000000; stroke-width: 0.8; stroke-linejoin: miter; stroke-linecap: square"/>
   </g>
   <g id="patch_4">
    <path d="M 716.99976 218.64351 
L 716.99976 18.118365 
" style="fill: none; stroke: #000000; stroke-width: 0.8; stroke-linejoin: miter; stroke-linecap: square"/>
   </g>
   <g id="patch_5">
    <path d="M 44.804928 218.64351 
L 716.99976 218.64351 
" style="fill: none; stroke: #000000; stroke-width: 0.8; stroke-linejoin: miter; stroke-linecap: square"/>
   </g>
   <g id="patch_6">
    <path d="M 44.804928 18.118365 
L 716.99976 18.118365 
" style="fill: none; stroke: #000000; stroke-width: 0.8; stroke-linejoin: miter; stroke-linecap: square"/>
   </g>
   <g id="text_15">
    <!-- EEG -->
    <g transform="translate(368.670781 12.118365) scale(0.12 -0.12)">
     <defs>
      <path id="DejaVuSans-45" d="M 628 4666 
L 3578 4666 
L 3578 4134 
L 1259 4134 
L 1259 2753 
L 3481 2753 
L 3481 2222 
L 1259 2222 
L 1259 531 
L 3634 531 
L 3634 0 
L 628 0 
L 628 4666 
z
" transform="scale(0.015625)"/>
      <path id="DejaVuSans-47" d="M 3809 666 
L 3809 1919 
L 2778 1919 
L 2778 2438 
L 4434 2438 
L 4434 434 
Q 4069 175 3628 42 
Q 3188 -91 2688 -91 
Q 1594 -91 976 548 
Q 359 1188 359 2328 
Q 359 3472 976 4111 
Q 1594 4750 2688 4750 
Q 3144 4750 3555 4637 
Q 3966 4525 4313 4306 
L 4313 3634 
Q 3963 3931 3569 4081 
Q 3175 4231 2741 4231 
Q 1884 4231 1454 3753 
Q 1025 3275 1025 2328 
Q 1025 1384 1454 906 
Q 1884 428 2741 428 
Q 3075 428 3337 486 
Q 3600 544 3809 666 
z
" transform="scale(0.015625)"/>
     </defs>
     <use xlink:href="#DejaVuSans-45"/>
     <use xlink:href="#DejaVuSans-45" transform="translate(63.183594 0)"/>
     <use xlink:href="#DejaVuSans-47" transform="translate(126.367188 0)"/>
    </g>
   </g>
  </g>
 </g>
 <defs>
  <clipPath id="p62afc0108a">
   <rect x="44.804928" y="18.118365" width="672.194832" height="200.525145"/>
  </clipPath>
 </defs>
</svg>
